G04*
G04 #@! TF.GenerationSoftware,Altium Limited,Altium Designer,24.9.1 (31)*
G04*
G04 Layer_Physical_Order=2*
G04 Layer_Color=16711680*
%FSTAX44Y44*%
%MOMM*%
G71*
G04*
G04 #@! TF.SameCoordinates,77538C0C-0C9F-436E-B66A-60309351D6FF*
G04*
G04*
G04 #@! TF.FilePolarity,Positive*
G04*
G01*
G75*
%ADD11C,0.3000*%
%ADD58C,0.6000*%
%ADD61C,0.5000*%
%ADD63C,0.4000*%
%ADD64R,1.3980X1.3980*%
%ADD65C,1.3980*%
%ADD66C,1.5300*%
%ADD67C,2.4450*%
%ADD68C,3.2500*%
%ADD69C,1.6000*%
%ADD70R,1.6000X1.6000*%
%ADD71R,1.6000X1.6000*%
%ADD72O,1.0500X2.1500*%
%ADD73O,1.0500X1.8500*%
%ADD74C,0.7000*%
%ADD75C,0.8000*%
G36*
X008001Y0D02*
X0D01*
Y0048768D01*
X008001D01*
Y0D01*
D02*
G37*
%LPC*%
G36*
X00244458Y00461374D02*
X00226458D01*
Y00443374D01*
X00244458D01*
Y00461374D01*
D02*
G37*
G36*
X00211243D02*
X00208873D01*
X00206584Y00460761D01*
X00204532Y00459576D01*
X00202856Y004579D01*
X00201671Y00455848D01*
X00201058Y00453559D01*
Y00451189D01*
X00201671Y004489D01*
X00202856Y00446848D01*
X00204532Y00445172D01*
X00206584Y00443987D01*
X00208873Y00443374D01*
X00211243D01*
X00213532Y00443987D01*
X00215584Y00445172D01*
X0021726Y00446848D01*
X00218445Y004489D01*
X00219058Y00451189D01*
Y00453559D01*
X00218445Y00455848D01*
X0021726Y004579D01*
X00215584Y00459576D01*
X00213532Y00460761D01*
X00211243Y00461374D01*
D02*
G37*
G36*
X0051308Y00467369D02*
X0033528D01*
X00334305Y00467175D01*
X00333478Y00466622D01*
X00326883Y00460028D01*
X00326054Y00460507D01*
X00323765Y0046112D01*
X00321395D01*
X00319106Y00460507D01*
X00317054Y00459322D01*
X00315378Y00457646D01*
X00314193Y00455594D01*
X0031358Y00453305D01*
Y00450935D01*
X00314193Y00448646D01*
X00315378Y00446594D01*
X00317054Y00444918D01*
X00319106Y00443733D01*
X00321395Y0044312D01*
X00323765D01*
X00326054Y00443733D01*
X00328106Y00444918D01*
X00329782Y00446594D01*
X00330967Y00448646D01*
X0033158Y00450935D01*
Y00453305D01*
X00330967Y00455594D01*
X00330488Y00456423D01*
X00336336Y00462271D01*
X00338138D01*
X0033898Y0046112D01*
X0033898Y00460771D01*
Y0044312D01*
X00343902D01*
Y0042418D01*
X00343902Y0042418D01*
X00344212Y00422619D01*
X00345096Y00421296D01*
X00357796Y00408596D01*
X00357796Y00408596D01*
X00359119Y00407712D01*
X0036068Y00407402D01*
X0036068Y00407402D01*
X00384167D01*
X00385185Y0040698D01*
X00386975D01*
X00388629Y00407665D01*
X00389895Y00408931D01*
X0039058Y00410585D01*
Y00412375D01*
X00389895Y00414029D01*
X00388629Y00415295D01*
X00386975Y0041598D01*
X00385185D01*
X00384167Y00415558D01*
X00362369D01*
X00352058Y00425869D01*
Y0044312D01*
X0035698D01*
Y00460771D01*
X0035698Y0046112D01*
X00357822Y00462271D01*
X00512024D01*
X0053652Y00437775D01*
X0053652Y00437775D01*
Y00435985D01*
X00537205Y00434331D01*
X00538471Y00433065D01*
X00540125Y0043238D01*
X00541915D01*
X00543569Y00433065D01*
X00544835Y00434331D01*
X0054552Y00435985D01*
Y00437775D01*
X00544835Y00439429D01*
X00543569Y00440695D01*
X00541915Y0044138D01*
X00540125D01*
X00540125Y0044138D01*
X00514882Y00466622D01*
X00514055Y00467175D01*
X0051308Y00467369D01*
D02*
G37*
G36*
X00092533Y00434852D02*
X00090743D01*
X00089089Y00434167D01*
X00087823Y00432901D01*
X00087138Y00431247D01*
Y00429457D01*
X00087823Y00427803D01*
X00089089Y00426537D01*
X00090743Y00425852D01*
X00092533D01*
X00094187Y00426537D01*
X00095453Y00427803D01*
X00096138Y00429457D01*
Y00431247D01*
X00095453Y00432901D01*
X00094187Y00434167D01*
X00092533Y00434852D01*
D02*
G37*
G36*
X00034733D02*
X00032943D01*
X00031289Y00434167D01*
X00030023Y00432901D01*
X00029338Y00431247D01*
Y00429457D01*
X00030023Y00427803D01*
X00031289Y00426537D01*
X00032943Y00425852D01*
X00034733D01*
X00036387Y00426537D01*
X00037653Y00427803D01*
X00038338Y00429457D01*
Y00431247D01*
X00037653Y00432901D01*
X00036387Y00434167D01*
X00034733Y00434852D01*
D02*
G37*
G36*
X00639157Y0041605D02*
X00637963D01*
X00636861Y00415593D01*
X00636017Y00414749D01*
X0063556Y00413647D01*
Y00412453D01*
X00636017Y00411351D01*
X00636861Y00410507D01*
X00637963Y0041005D01*
X00639157D01*
X00640259Y00410507D01*
X00641103Y00411351D01*
X0064156Y00412453D01*
Y00413647D01*
X00641103Y00414749D01*
X00640259Y00415593D01*
X00639157Y0041605D01*
D02*
G37*
G36*
X00625157D02*
X00623963D01*
X00622861Y00415593D01*
X00622017Y00414749D01*
X0062156Y00413647D01*
Y00412453D01*
X00622017Y00411351D01*
X00622861Y00410507D01*
X00623963Y0041005D01*
X00625157D01*
X00626259Y00410507D01*
X00627103Y00411351D01*
X0062756Y00412453D01*
Y00413647D01*
X00627103Y00414749D01*
X00626259Y00415593D01*
X00625157Y0041605D01*
D02*
G37*
G36*
X00646157Y0040905D02*
X00644963D01*
X00643861Y00408593D01*
X00643017Y00407749D01*
X0064256Y00406647D01*
Y00405453D01*
X00643017Y00404351D01*
X00643861Y00403507D01*
X00644963Y0040305D01*
X00646157D01*
X00647259Y00403507D01*
X00648103Y00404351D01*
X0064856Y00405453D01*
Y00406647D01*
X00648103Y00407749D01*
X00647259Y00408593D01*
X00646157Y0040905D01*
D02*
G37*
G36*
X00618157D02*
X00616963D01*
X00615861Y00408593D01*
X00615017Y00407749D01*
X0061456Y00406647D01*
Y00405453D01*
X00615017Y00404351D01*
X00615861Y00403507D01*
X00616963Y0040305D01*
X00618157D01*
X00619259Y00403507D01*
X00620103Y00404351D01*
X0062056Y00405453D01*
Y00406647D01*
X00620103Y00407749D01*
X00619259Y00408593D01*
X00618157Y0040905D01*
D02*
G37*
G36*
X00639157Y0040205D02*
X00637963D01*
X00636861Y00401593D01*
X00636017Y00400749D01*
X0063556Y00399647D01*
Y00398453D01*
X00636017Y00397351D01*
X00636861Y00396507D01*
X00637963Y0039605D01*
X00639157D01*
X00640259Y00396507D01*
X00641103Y00397351D01*
X0064156Y00398453D01*
Y00399647D01*
X00641103Y00400749D01*
X00640259Y00401593D01*
X00639157Y0040205D01*
D02*
G37*
G36*
X00625157D02*
X00623963D01*
X00622861Y00401593D01*
X00622017Y00400749D01*
X0062156Y00399647D01*
Y00398453D01*
X00622017Y00397351D01*
X00622861Y00396507D01*
X00623963Y0039605D01*
X00625157D01*
X00626259Y00396507D01*
X00627103Y00397351D01*
X0062756Y00398453D01*
Y00399647D01*
X00627103Y00400749D01*
X00626259Y00401593D01*
X00625157Y0040205D01*
D02*
G37*
G36*
X00646157Y0039505D02*
X00644963D01*
X00643861Y00394593D01*
X00643017Y00393749D01*
X0064256Y00392647D01*
Y00391453D01*
X00643017Y00390351D01*
X00643861Y00389507D01*
X00644963Y0038905D01*
X00646157D01*
X00647259Y00389507D01*
X00648103Y00390351D01*
X0064856Y00391453D01*
Y00392647D01*
X00648103Y00393749D01*
X00647259Y00394593D01*
X00646157Y0039505D01*
D02*
G37*
G36*
X00632157D02*
X00630963D01*
X00629861Y00394593D01*
X00629017Y00393749D01*
X0062856Y00392647D01*
Y00391453D01*
X00629017Y00390351D01*
X00629861Y00389507D01*
X00630963Y0038905D01*
X00632157D01*
X00633259Y00389507D01*
X00634103Y00390351D01*
X0063456Y00391453D01*
Y00392647D01*
X00634103Y00393749D01*
X00633259Y00394593D01*
X00632157Y0039505D01*
D02*
G37*
G36*
X00618157D02*
X00616963D01*
X00615861Y00394593D01*
X00615017Y00393749D01*
X0061456Y00392647D01*
Y00391453D01*
X00615017Y00390351D01*
X00615861Y00389507D01*
X00616963Y0038905D01*
X00618157D01*
X00619259Y00389507D01*
X00620103Y00390351D01*
X0062056Y00391453D01*
Y00392647D01*
X00620103Y00393749D01*
X00619259Y00394593D01*
X00618157Y0039505D01*
D02*
G37*
G36*
X00639157Y0038805D02*
X00637963D01*
X00636861Y00387593D01*
X00636017Y00386749D01*
X0063556Y00385647D01*
Y00384453D01*
X00636017Y00383351D01*
X00636861Y00382507D01*
X00637963Y0038205D01*
X00639157D01*
X00640259Y00382507D01*
X00641103Y00383351D01*
X0064156Y00384453D01*
Y00385647D01*
X00641103Y00386749D01*
X00640259Y00387593D01*
X00639157Y0038805D01*
D02*
G37*
G36*
X00625157D02*
X00623963D01*
X00622861Y00387593D01*
X00622017Y00386749D01*
X0062156Y00385647D01*
Y00384453D01*
X00622017Y00383351D01*
X00622861Y00382507D01*
X00623963Y0038205D01*
X00625157D01*
X00626259Y00382507D01*
X00627103Y00383351D01*
X0062756Y00384453D01*
Y00385647D01*
X00627103Y00386749D01*
X00626259Y00387593D01*
X00625157Y0038805D01*
D02*
G37*
G36*
X0065532Y00429269D02*
X0055372D01*
X00552744Y00429075D01*
X00551918Y00428522D01*
X00536678Y00413282D01*
X00536125Y00412455D01*
X00535931Y0041148D01*
Y00338944D01*
X00531721Y00334734D01*
X00531721Y00334734D01*
X00529931D01*
X00528277Y00334049D01*
X00527011Y00332783D01*
X00527011Y00332783D01*
X00518166D01*
X00468993Y00381956D01*
Y00407057D01*
X00468993Y00407057D01*
X00470259Y00408323D01*
X00470944Y00409977D01*
Y00411767D01*
X00470259Y00413421D01*
X00468993Y00414687D01*
X00467339Y00415372D01*
X00465549D01*
X00463895Y00414687D01*
X00462629Y00413421D01*
X00461944Y00411767D01*
Y00409977D01*
X00462629Y00408323D01*
X00463895Y00407057D01*
X00463895Y00407057D01*
Y003809D01*
X00464089Y00379925D01*
X00464642Y00379098D01*
X00515308Y00328432D01*
X00516135Y00327879D01*
X0051711Y00327685D01*
X00527011D01*
X00527011Y00327685D01*
X00528277Y00326419D01*
X00529931Y00325734D01*
X00531721D01*
X00533375Y00326419D01*
X00534641Y00327685D01*
X00535326Y00329339D01*
Y00331129D01*
X00535326Y00331129D01*
X00540282Y00336086D01*
X00540835Y00336913D01*
X00541029Y00337888D01*
Y00410424D01*
X00554776Y00424171D01*
X00654264D01*
X00691125Y0038731D01*
Y00355605D01*
X00691125Y00355605D01*
X00689859Y00354339D01*
X00689174Y00352685D01*
Y00350895D01*
X00689859Y00349241D01*
X00691125Y00347975D01*
X00692779Y0034729D01*
X00694569D01*
X00696223Y00347975D01*
X00697489Y00349241D01*
X00698174Y00350895D01*
Y00352685D01*
X00697489Y00354339D01*
X00696223Y00355605D01*
X00696223Y00355605D01*
Y00388366D01*
X00696029Y00389341D01*
X00695476Y00390168D01*
X00657122Y00428522D01*
X00656295Y00429075D01*
X0065532Y00429269D01*
D02*
G37*
G36*
X00592207Y00340542D02*
X00590417D01*
X00588763Y00339857D01*
X00587497Y00338591D01*
X00587497Y00338591D01*
X0055372D01*
X00552745Y00338397D01*
X00551918Y00337844D01*
X00422535Y00208462D01*
X00422535Y00208462D01*
X00420745D01*
X00419091Y00207777D01*
X00417825Y00206511D01*
X0041714Y00204857D01*
Y00203067D01*
X00417825Y00201413D01*
X00419091Y00200147D01*
X00420745Y00199462D01*
X00422535D01*
X00424189Y00200147D01*
X00425455Y00201413D01*
X0042614Y00203067D01*
Y00204857D01*
X0042614Y00204857D01*
X00554776Y00333493D01*
X00587497D01*
X00587497Y00333493D01*
X00588763Y00332227D01*
X00590417Y00331542D01*
X00592207D01*
X00593861Y00332227D01*
X00595127Y00333493D01*
X00595812Y00335147D01*
Y00336937D01*
X00595127Y00338591D01*
X00593861Y00339857D01*
X00592207Y00340542D01*
D02*
G37*
G36*
X00257535Y0031488D02*
X00255545D01*
X00253708Y00314119D01*
X00253547Y00313958D01*
X00059436D01*
X00059436Y00313958D01*
X00057875Y00313648D01*
X00056552Y00312764D01*
X00056552Y00312764D01*
X00016696Y00272908D01*
X00015812Y00271585D01*
X00015502Y00270024D01*
X00015502Y00270024D01*
Y00261843D01*
X00014269Y00261132D01*
X00012658Y00259521D01*
X0001152Y00257549D01*
X0001093Y00255349D01*
Y00253071D01*
X0001152Y00250871D01*
X00012658Y00248899D01*
X00014269Y00247288D01*
X00016241Y0024615D01*
X00018441Y0024556D01*
X00020719D01*
X00022919Y0024615D01*
X00024891Y00247288D01*
X00026502Y00248899D01*
X00027641Y00250871D01*
X0002823Y00253071D01*
Y00255349D01*
X00027641Y00257549D01*
X00026502Y00259521D01*
X00024891Y00261132D01*
X00023658Y00261843D01*
Y00268335D01*
X00061125Y00305802D01*
X00253547D01*
X00253708Y00305641D01*
X00255545Y0030488D01*
X00255772D01*
X00258175Y00302477D01*
Y00273568D01*
X00257636Y00272267D01*
Y00270277D01*
X00258397Y0026844D01*
X00259804Y00267033D01*
X00261641Y00266272D01*
X00263631D01*
X00265468Y00267033D01*
X00266875Y0026844D01*
X00267636Y00270277D01*
Y00272267D01*
X00266875Y00274104D01*
X00266332Y00274647D01*
Y00304167D01*
X00266021Y00305727D01*
X00265137Y0030705D01*
X00265137Y0030705D01*
X0026154Y00310648D01*
Y00310875D01*
X00260779Y00312712D01*
X00259372Y00314119D01*
X00257535Y0031488D01*
D02*
G37*
G36*
X00580015Y0040455D02*
X00578225D01*
X00576571Y00403865D01*
X00575305Y00402599D01*
X0057462Y00400945D01*
Y00399155D01*
X00575305Y00397501D01*
X00576571Y00396235D01*
X00578225Y0039555D01*
X00580015D01*
X00581669Y00396235D01*
X00582935Y00397501D01*
X00582935Y00397501D01*
X00587716D01*
X00689314Y00295903D01*
X00689207Y00295385D01*
X00687582Y00294939D01*
X00593368Y00389152D01*
X00592542Y00389705D01*
X00591566Y00389899D01*
X00582681D01*
X00582681Y00389899D01*
X00581415Y00391165D01*
X00579761Y0039185D01*
X00577971D01*
X00576317Y00391165D01*
X00575051Y00389899D01*
X00574366Y00388245D01*
Y00386455D01*
X00575051Y00384801D01*
X00576317Y00383535D01*
X00577971Y0038285D01*
X00579761D01*
X00581415Y00383535D01*
X00582681Y00384801D01*
X00582681Y00384801D01*
X0059051D01*
X00683759Y00291552D01*
Y00068665D01*
X00681564Y00068077D01*
X00679512Y00066892D01*
X00677836Y00065216D01*
X00676651Y00063164D01*
X00676038Y00060875D01*
Y00058505D01*
X00676651Y00056216D01*
X00677836Y00054164D01*
X00679512Y00052488D01*
X00681564Y00051303D01*
X00683853Y0005069D01*
X00686223D01*
X00688512Y00051303D01*
X00690564Y00052488D01*
X0069224Y00054164D01*
X00693425Y00056216D01*
X00694038Y00058505D01*
Y00060875D01*
X00693425Y00063164D01*
X0069224Y00065216D01*
X00690564Y00066892D01*
X00688857Y00067877D01*
Y00075833D01*
X00690357Y00076288D01*
X00690602Y00075922D01*
X0070253Y00063993D01*
X00702051Y00063164D01*
X00701438Y00060875D01*
Y00058505D01*
X00702051Y00056216D01*
X00703236Y00054164D01*
X00704912Y00052488D01*
X00706964Y00051303D01*
X00709253Y0005069D01*
X00711623D01*
X00713912Y00051303D01*
X00715964Y00052488D01*
X0071764Y00054164D01*
X00718825Y00056216D01*
X00719438Y00058505D01*
Y00060875D01*
X00718825Y00063164D01*
X0071764Y00065216D01*
X00715964Y00066892D01*
X00713912Y00068077D01*
X00711623Y0006869D01*
X00709253D01*
X00706964Y00068077D01*
X00706135Y00067598D01*
X00694953Y0007878D01*
Y00296418D01*
X00694759Y00297393D01*
X00694206Y0029822D01*
X00590574Y00401852D01*
X00589748Y00402405D01*
X00588772Y00402599D01*
X00582935D01*
X00582935Y00402599D01*
X00581669Y00403865D01*
X00580015Y0040455D01*
D02*
G37*
G36*
X00592461Y00328858D02*
X00590671D01*
X00589017Y00328173D01*
X00587751Y00326907D01*
X00587751Y00326907D01*
X00559713D01*
X00558737Y00326713D01*
X0055791Y0032616D01*
X00398598Y00166848D01*
X00398045Y00166021D01*
X00397851Y00165045D01*
Y001584D01*
X00398045Y00157425D01*
X00398598Y00156598D01*
X004019Y00153295D01*
X004019Y00153295D01*
Y00151505D01*
X00402585Y00149851D01*
X00403851Y00148585D01*
X00405505Y001479D01*
X00406278D01*
X0040728Y001464D01*
X0040698Y00145675D01*
Y00143885D01*
X00407665Y00142231D01*
X00408931Y00140965D01*
X00410585Y0014028D01*
X00412375D01*
X00414029Y00140965D01*
X00415295Y00142231D01*
X0041598Y00143885D01*
Y00145675D01*
X0041598Y00145675D01*
X00570016Y00299711D01*
X0061931D01*
X00645745Y00273276D01*
X00646572Y00272724D01*
X00647547Y0027253D01*
X0065481D01*
X00655311Y00272029D01*
X00656965Y00271344D01*
X00658755D01*
X00660409Y00272029D01*
X00661675Y00273295D01*
X0066236Y00274949D01*
Y00276739D01*
X00661675Y00278393D01*
X00660409Y00279659D01*
X00658755Y00280344D01*
X00656965D01*
X00655941Y0027992D01*
X00654793Y00281068D01*
X00654994Y00281553D01*
Y00283343D01*
X00654309Y00284997D01*
X00653195Y00286111D01*
Y00291948D01*
X00653001Y00292924D01*
X00652448Y0029375D01*
X00634516Y00311682D01*
X00633689Y00312235D01*
X00632714Y00312429D01*
X00610982D01*
X00610361Y00313929D01*
X00611129Y00314697D01*
X00611814Y00316351D01*
Y00318141D01*
X00611129Y00319795D01*
X00609863Y00321061D01*
X00608209Y00321746D01*
X00606419D01*
X00604765Y00321061D01*
X00603623Y00319919D01*
X00595612D01*
X00594991Y00321419D01*
X00595381Y00321809D01*
X00596066Y00323463D01*
Y00325253D01*
X00595381Y00326907D01*
X00594115Y00328173D01*
X00592461Y00328858D01*
D02*
G37*
G36*
X00100821Y00278635D02*
X00097339D01*
X00093975Y00277734D01*
X0009096Y00275993D01*
X00088497Y0027353D01*
X00086756Y00270515D01*
X00085855Y00267151D01*
Y00263669D01*
X00086756Y00260305D01*
X00088497Y0025729D01*
X0009096Y00254827D01*
X00093975Y00253086D01*
X00097339Y00252185D01*
X00100821D01*
X00104185Y00253086D01*
X001072Y00254827D01*
X00109663Y0025729D01*
X00111404Y00260305D01*
X00112305Y00263669D01*
Y00267151D01*
X00111404Y00270515D01*
X00109663Y0027353D01*
X001072Y00275993D01*
X00104185Y00277734D01*
X00100821Y00278635D01*
D02*
G37*
G36*
X00719461Y00416488D02*
X00717671D01*
X00716017Y00415803D01*
X00714751Y00414537D01*
X00714066Y00412883D01*
Y00411093D01*
X00714751Y00409439D01*
X00716017Y00408173D01*
X00717671Y00407488D01*
X00719461D01*
X00719461Y00407488D01*
X00736591Y00390358D01*
Y00260095D01*
X00735666Y00259847D01*
X00733614Y00258662D01*
X00731938Y00256986D01*
X00730753Y00254934D01*
X0073014Y00252645D01*
Y00250275D01*
X00730753Y00247986D01*
X00731938Y00245934D01*
X00733614Y00244258D01*
X00735666Y00243073D01*
X00737955Y0024246D01*
X00740325D01*
X00742614Y00243073D01*
X00744666Y00244258D01*
X00746342Y00245934D01*
X00747527Y00247986D01*
X0074814Y00250275D01*
Y00252645D01*
X00747527Y00254934D01*
X00746342Y00256986D01*
X00744666Y00258662D01*
X00742614Y00259847D01*
X00741689Y00260095D01*
Y00391414D01*
X00741495Y00392389D01*
X00740942Y00393216D01*
X00723066Y00411093D01*
X00723066Y00411093D01*
Y00412883D01*
X00722381Y00414537D01*
X00721115Y00415803D01*
X00719461Y00416488D01*
D02*
G37*
G36*
X00070279Y0026236D02*
X00066881D01*
X00063548Y00261697D01*
X00060409Y00260397D01*
X00057584Y00258509D01*
X00055181Y00256106D01*
X00053293Y00253281D01*
X00051993Y00250142D01*
X0005133Y00246809D01*
Y00243411D01*
X00051993Y00240078D01*
X00053293Y00236939D01*
X00055181Y00234114D01*
X00057584Y00231711D01*
X00060409Y00229823D01*
X00063548Y00228523D01*
X00066881Y0022786D01*
X00070279D01*
X00073612Y00228523D01*
X00076751Y00229823D01*
X00079576Y00231711D01*
X00081979Y00234114D01*
X00083867Y00236939D01*
X00085167Y00240078D01*
X0008583Y00243411D01*
Y00246809D01*
X00085167Y00250142D01*
X00083867Y00253281D01*
X00081979Y00256106D01*
X00079576Y00258509D01*
X00076751Y00260397D01*
X00073612Y00261697D01*
X00070279Y0026236D01*
D02*
G37*
G36*
X0014007Y0024045D02*
X0012409D01*
Y0022447D01*
X0014007D01*
Y0024045D01*
D02*
G37*
G36*
X00196475Y0023056D02*
X00194685D01*
X00193031Y00229875D01*
X00191765Y00228609D01*
X00191448Y00227844D01*
X00188415D01*
X00187439Y0022765D01*
X00186612Y00227097D01*
X00161044Y00201528D01*
X00160564Y00201805D01*
X00158532Y0020235D01*
X00156428D01*
X00154396Y00201805D01*
X00152574Y00200754D01*
X00151086Y00199266D01*
X00150035Y00197444D01*
X0014949Y00195412D01*
Y00193308D01*
X00150035Y00191276D01*
X00151086Y00189454D01*
X00152574Y00187966D01*
X00154396Y00186915D01*
X00156428Y0018637D01*
X00158532D01*
X00160564Y00186915D01*
X00162386Y00187966D01*
X00163874Y00189454D01*
X00164925Y00191276D01*
X0016547Y00193308D01*
Y00195412D01*
X00164925Y00197444D01*
X00164648Y00197924D01*
X0018947Y00222746D01*
X0019253D01*
X00193031Y00222245D01*
X00194685Y0022156D01*
X00196475D01*
X00198129Y00222245D01*
X00199395Y00223511D01*
X0020008Y00225165D01*
Y00226955D01*
X00199395Y00228609D01*
X00198129Y00229875D01*
X00196475Y0023056D01*
D02*
G37*
G36*
X00501175Y00223548D02*
X00499385D01*
X00497731Y00222863D01*
X00496465Y00221597D01*
X0049578Y00219943D01*
Y00218942D01*
X00450847Y00174009D01*
X00450289Y0017424D01*
X00448499D01*
X00446845Y00173555D01*
X00445579Y00172289D01*
X00444894Y00170635D01*
Y00168845D01*
X00445579Y00167191D01*
X00446845Y00165925D01*
X00448499Y0016524D01*
X00450289D01*
X00451943Y00165925D01*
X00453209Y00167191D01*
X00453894Y00168845D01*
Y00169846D01*
X00498827Y00214779D01*
X00499385Y00214548D01*
X00501175D01*
X00502829Y00215233D01*
X00504095Y00216499D01*
X0050478Y00218153D01*
Y00219943D01*
X00504095Y00221597D01*
X00502829Y00222863D01*
X00501175Y00223548D01*
D02*
G37*
G36*
X00158532Y0022775D02*
X00156428D01*
X00154396Y00227206D01*
X00152574Y00226154D01*
X00151086Y00224666D01*
X00150035Y00222844D01*
X0014949Y00220812D01*
Y00218708D01*
X00150035Y00216676D01*
X00151086Y00214854D01*
X00152574Y00213366D01*
X00154396Y00212314D01*
X00156428Y0021177D01*
X00158532D01*
X00160564Y00212314D01*
X00162386Y00213366D01*
X00163874Y00214854D01*
X00164925Y00216676D01*
X0016547Y00218708D01*
Y00220812D01*
X00164925Y00222844D01*
X00163874Y00224666D01*
X00162386Y00226154D01*
X00160564Y00227206D01*
X00158532Y0022775D01*
D02*
G37*
G36*
X00133132Y0021505D02*
X00131028D01*
X00128996Y00214506D01*
X00127174Y00213454D01*
X00125686Y00211966D01*
X00124635Y00210144D01*
X0012409Y00208112D01*
Y00206008D01*
X00124635Y00203976D01*
X00125686Y00202154D01*
X00127174Y00200666D01*
X00128996Y00199615D01*
X00131028Y0019907D01*
X00133132D01*
X00135164Y00199615D01*
X00136986Y00200666D01*
X00138474Y00202154D01*
X00139525Y00203976D01*
X0014007Y00206008D01*
Y00208112D01*
X00139525Y00210144D01*
X00138474Y00211966D01*
X00136986Y00213454D01*
X00135164Y00214506D01*
X00133132Y0021505D01*
D02*
G37*
G36*
X0060532Y00222362D02*
X0057832D01*
X00577555Y00222045D01*
X00577238Y0022128D01*
Y0019528D01*
X00577555Y00194515D01*
X0057832Y00194198D01*
X0060532D01*
X00606085Y00194515D01*
X00606402Y0019528D01*
Y0022128D01*
X00606085Y00222045D01*
X0060532Y00222362D01*
D02*
G37*
G36*
X00719969Y0039185D02*
X00718179D01*
X00716525Y00391165D01*
X00715259Y00389899D01*
X00714574Y00388245D01*
Y00386455D01*
X00715259Y00384801D01*
X00716525Y00383535D01*
X00716525Y00383535D01*
Y00220726D01*
X00716719Y0021975D01*
X00717272Y00218924D01*
X00731232Y00204963D01*
X00730753Y00204134D01*
X0073014Y00201845D01*
Y00199475D01*
X00730753Y00197186D01*
X00731938Y00195134D01*
X00733614Y00193458D01*
X00735666Y00192273D01*
X00737955Y0019166D01*
X00740325D01*
X00742614Y00192273D01*
X00744666Y00193458D01*
X00746342Y00195134D01*
X00747527Y00197186D01*
X0074814Y00199475D01*
Y00201845D01*
X00747527Y00204134D01*
X00746342Y00206186D01*
X00744666Y00207862D01*
X00742614Y00209047D01*
X00740325Y0020966D01*
X00737955D01*
X00735666Y00209047D01*
X00734837Y00208568D01*
X00721623Y00221782D01*
Y00383535D01*
X00721623Y00383535D01*
X00722889Y00384801D01*
X00723574Y00386455D01*
Y00388245D01*
X00722889Y00389899D01*
X00721623Y00391165D01*
X00719969Y0039185D01*
D02*
G37*
G36*
X00754005Y0040455D02*
X00752215D01*
X00750561Y00403865D01*
X00749295Y00402599D01*
X0074861Y00400945D01*
Y00399155D01*
X00749295Y00397501D01*
X00750561Y00396235D01*
X00750561Y00396235D01*
Y00241086D01*
X00743443Y00233968D01*
X00742614Y00234447D01*
X00740325Y0023506D01*
X00737955D01*
X00735666Y00234447D01*
X00733614Y00233262D01*
X00731938Y00231586D01*
X00730753Y00229534D01*
X0073014Y00227245D01*
Y00224875D01*
X00730753Y00222586D01*
X00731938Y00220534D01*
X00733614Y00218858D01*
X00735666Y00217673D01*
X00737955Y0021706D01*
X00740325D01*
X00742614Y00217673D01*
X00744666Y00218858D01*
X00746342Y00220534D01*
X00747527Y00222586D01*
X0074814Y00224875D01*
Y00227245D01*
X00747527Y00229534D01*
X00747048Y00230363D01*
X00754912Y00238228D01*
X00755465Y00239055D01*
X00755659Y0024003D01*
Y0034419D01*
X00757143Y00344859D01*
X00757927Y00344249D01*
Y00197652D01*
X00743443Y00183168D01*
X00742614Y00183647D01*
X00740325Y0018426D01*
X00737955D01*
X00735666Y00183647D01*
X00733614Y00182462D01*
X00731938Y00180786D01*
X00730753Y00178734D01*
X0073014Y00176445D01*
Y00174075D01*
X00730753Y00171786D01*
X00731938Y00169734D01*
X00733614Y00168058D01*
X00735666Y00166873D01*
X00737955Y0016626D01*
X00740325D01*
X00742614Y00166873D01*
X00744666Y00168058D01*
X00746342Y00169734D01*
X00747527Y00171786D01*
X0074814Y00174075D01*
Y00176445D01*
X00747527Y00178734D01*
X00747048Y00179563D01*
X00762278Y00194794D01*
X00762831Y00195621D01*
X00763025Y00196596D01*
Y00344673D01*
X00763025Y00344673D01*
X00764291Y00345939D01*
X00764976Y00347593D01*
Y00349383D01*
X00764291Y00351037D01*
X00763025Y00352303D01*
X00761371Y00352988D01*
X00759581D01*
X00757927Y00352303D01*
X00757159Y00351535D01*
X00755659Y00352156D01*
Y00396235D01*
X00755659Y00396235D01*
X00756925Y00397501D01*
X0075761Y00399155D01*
Y00400945D01*
X00756925Y00402599D01*
X00755659Y00403865D01*
X00754005Y0040455D01*
D02*
G37*
G36*
X00133132Y0018965D02*
X00131028D01*
X00128996Y00189105D01*
X00127174Y00188054D01*
X00125686Y00186566D01*
X00124635Y00184744D01*
X0012409Y00182712D01*
Y00180608D01*
X00124635Y00178576D01*
X00125686Y00176754D01*
X00127174Y00175266D01*
X00128996Y00174214D01*
X00131028Y0017367D01*
X00133132D01*
X00135164Y00174214D01*
X00136986Y00175266D01*
X00138474Y00176754D01*
X00139525Y00178576D01*
X0014007Y00180608D01*
Y00182712D01*
X00139525Y00184744D01*
X00138474Y00186566D01*
X00136986Y00188054D01*
X00135164Y00189105D01*
X00133132Y0018965D01*
D02*
G37*
G36*
X00158532Y0017695D02*
X00156428D01*
X00154396Y00176406D01*
X00152574Y00175354D01*
X00151086Y00173866D01*
X00150035Y00172044D01*
X0014949Y00170012D01*
Y00167908D01*
X00150035Y00165876D01*
X00151086Y00164054D01*
X00152574Y00162566D01*
X00154396Y00161514D01*
X00156428Y0016097D01*
X00158532D01*
X00160564Y00161514D01*
X00162386Y00162566D01*
X00163874Y00164054D01*
X00164925Y00165876D01*
X0016547Y00167908D01*
Y00170012D01*
X00164925Y00172044D01*
X00163874Y00173866D01*
X00162386Y00175354D01*
X00160564Y00176406D01*
X00158532Y0017695D01*
D02*
G37*
G36*
X00362945Y00263318D02*
X00360955D01*
X00359118Y00262557D01*
X00357711Y0026115D01*
X0035695Y00259313D01*
Y00257323D01*
X00357711Y00255486D01*
X00359118Y00254079D01*
X00359143Y00254069D01*
Y00160009D01*
X00357758Y00159435D01*
X00338098Y00179094D01*
X00337271Y00179647D01*
X00336296Y00179841D01*
X00329189D01*
X00329189Y00179841D01*
X00327923Y00181107D01*
X00326269Y00181792D01*
X00324479D01*
X00322825Y00181107D01*
X00321559Y00179841D01*
X00320874Y00178187D01*
Y00176397D01*
X00320874Y00176397D01*
X00292584Y00148106D01*
X00292031Y0014728D01*
X00291837Y00146304D01*
Y00127005D01*
X00291837Y00127005D01*
X00290571Y00125739D01*
X00289886Y00124085D01*
Y00122295D01*
X00290571Y00120641D01*
X00291837Y00119375D01*
X00293491Y0011869D01*
X00295281D01*
X00296935Y00119375D01*
X00298201Y00120641D01*
X00298886Y00122295D01*
Y00124085D01*
X00298201Y00125739D01*
X00296935Y00127005D01*
X00296935Y00127005D01*
Y00145248D01*
X00324479Y00172792D01*
X00324479Y00172792D01*
X00326269D01*
X00327923Y00173477D01*
X00329189Y00174743D01*
X00329189Y00174743D01*
X0033524D01*
X00358212Y00151771D01*
X00358212Y00151771D01*
Y00149981D01*
X00358897Y00148327D01*
X00360163Y00147061D01*
X00361817Y00146376D01*
X00363607D01*
X00365261Y00147061D01*
X00366527Y00148327D01*
X00367212Y00149981D01*
Y00151771D01*
X00366527Y00153425D01*
X00366281Y00153671D01*
Y00255707D01*
X0036695Y00257323D01*
Y00259313D01*
X00366189Y0026115D01*
X00364782Y00262557D01*
X00362945Y00263318D01*
D02*
G37*
G36*
X00133132Y0016425D02*
X00131028D01*
X00128996Y00163706D01*
X00127174Y00162654D01*
X00125686Y00161166D01*
X00124635Y00159344D01*
X0012409Y00157312D01*
Y00155208D01*
X00124635Y00153176D01*
X00125686Y00151354D01*
X00127174Y00149866D01*
X00128996Y00148814D01*
X00131028Y0014827D01*
X00133132D01*
X00135164Y00148814D01*
X00136986Y00149866D01*
X00138474Y00151354D01*
X00139525Y00153176D01*
X0014007Y00155208D01*
Y00157312D01*
X00139525Y00159344D01*
X00138474Y00161166D01*
X00136986Y00162654D01*
X00135164Y00163706D01*
X00133132Y0016425D01*
D02*
G37*
G36*
X00710063Y00340542D02*
X00708273D01*
X00706619Y00339857D01*
X00705353Y00338591D01*
X00704668Y00336937D01*
Y00335147D01*
X00705353Y00333493D01*
X00706619Y00332227D01*
X00706619Y00332227D01*
Y00166116D01*
X00706813Y0016514D01*
X00707366Y00164314D01*
X00723622Y00148058D01*
X00724449Y00147505D01*
X00725424Y00147311D01*
X0073014D01*
Y0014086D01*
X0074814D01*
Y0015886D01*
X0073014D01*
Y00152409D01*
X0072648D01*
X00711717Y00167172D01*
Y00332227D01*
X00711717Y00332227D01*
X00712983Y00333493D01*
X00713668Y00335147D01*
Y00336937D01*
X00712983Y00338591D01*
X00711717Y00339857D01*
X00710063Y00340542D01*
D02*
G37*
G36*
X00020719Y0015576D02*
X00018441D01*
X00016241Y0015517D01*
X00014269Y00154032D01*
X00012658Y00152421D01*
X0001152Y00150449D01*
X0001093Y00148249D01*
Y00145971D01*
X0001152Y00143771D01*
X00012658Y00141799D01*
X00014269Y00140188D01*
X00016241Y0013905D01*
X00018441Y0013846D01*
X00020719D01*
X00022919Y0013905D01*
X00024891Y00140188D01*
X00026502Y00141799D01*
X00027641Y00143771D01*
X0002823Y00145971D01*
Y00148249D01*
X00027641Y00150449D01*
X00026502Y00152421D01*
X00024891Y00154032D01*
X00022919Y0015517D01*
X00020719Y0015576D01*
D02*
G37*
G36*
X00070279Y0014806D02*
X00066881D01*
X00063548Y00147397D01*
X00060409Y00146097D01*
X00057584Y00144209D01*
X00055181Y00141806D01*
X00053293Y00138981D01*
X00051993Y00135842D01*
X0005133Y00132509D01*
Y00129111D01*
X00051993Y00125778D01*
X00053293Y00122639D01*
X00055181Y00119814D01*
X00057584Y00117411D01*
X00060409Y00115523D01*
X00063548Y00114223D01*
X00066881Y0011356D01*
X00070279D01*
X00073612Y00114223D01*
X00076751Y00115523D01*
X00079576Y00117411D01*
X00081979Y00119814D01*
X00083867Y00122639D01*
X00085167Y00125778D01*
X0008583Y00129111D01*
Y00132509D01*
X00085167Y00135842D01*
X00083867Y00138981D01*
X00081979Y00141806D01*
X00079576Y00144209D01*
X00076751Y00146097D01*
X00073612Y00147397D01*
X00070279Y0014806D01*
D02*
G37*
G36*
X00020719Y0013036D02*
X00018441D01*
X00016241Y0012977D01*
X00014269Y00128632D01*
X00012658Y00127021D01*
X0001152Y00125049D01*
X0001093Y00122849D01*
Y00120571D01*
X0001152Y00118371D01*
X00012658Y00116399D01*
X00014269Y00114788D01*
X00016241Y0011365D01*
X00018441Y0011306D01*
X00020719D01*
X00022919Y0011365D01*
X00024891Y00114788D01*
X00026502Y00116399D01*
X00027641Y00118371D01*
X0002823Y00120571D01*
Y00122849D01*
X00027641Y00125049D01*
X00026502Y00127021D01*
X00024891Y00128632D01*
X00022919Y0012977D01*
X00020719Y0013036D01*
D02*
G37*
G36*
X00100821Y00123735D02*
X00097339D01*
X00093975Y00122834D01*
X0009096Y00121093D01*
X00088497Y0011863D01*
X00086756Y00115615D01*
X00085855Y00112251D01*
Y00108769D01*
X00086756Y00105405D01*
X00088497Y0010239D01*
X0009096Y00099927D01*
X00093975Y00098186D01*
X00097339Y00097285D01*
X00100821D01*
X00104185Y00098186D01*
X001072Y00099927D01*
X00109663Y0010239D01*
X00111404Y00105405D01*
X00112305Y00108769D01*
Y00112251D01*
X00111404Y00115615D01*
X00109663Y0011863D01*
X001072Y00121093D01*
X00104185Y00122834D01*
X00100821Y00123735D01*
D02*
G37*
G36*
X00306965Y00124896D02*
X00305175D01*
X00303521Y00124211D01*
X00302255Y00122945D01*
X0030157Y00121291D01*
Y00119501D01*
X00302255Y00117847D01*
X00303521Y00116581D01*
X00305175Y00115896D01*
X00306965D01*
X00308619Y00116581D01*
X00309885Y00117847D01*
X00309885Y00117847D01*
X00313904D01*
X00317137Y00114614D01*
Y00083163D01*
X00317137Y00083163D01*
X00315871Y00081897D01*
X00315186Y00080243D01*
Y00078453D01*
X00315871Y00076799D01*
X00317137Y00075533D01*
X00318791Y00074848D01*
X00320581D01*
X00322235Y00075533D01*
X00323501Y00076799D01*
X00324186Y00078453D01*
Y00080243D01*
X00323501Y00081897D01*
X00322235Y00083163D01*
X00322235Y00083163D01*
Y0011567D01*
X00322041Y00116645D01*
X00321488Y00117472D01*
X00316762Y00122198D01*
X00315935Y00122751D01*
X0031496Y00122945D01*
X00309885D01*
X00309885Y00122945D01*
X00308619Y00124211D01*
X00306965Y00124896D01*
D02*
G37*
G36*
X00580523Y0037915D02*
X00578733D01*
X00577079Y00378465D01*
X00575813Y00377199D01*
X00575128Y00375545D01*
Y00373755D01*
X00575813Y00372101D01*
X00577079Y00370835D01*
X00578733Y0037015D01*
X00580523D01*
X00582177Y00370835D01*
X00583443Y00372101D01*
X00583443Y00372101D01*
X00592542D01*
X00676139Y00288504D01*
Y00079796D01*
X00663941Y00067598D01*
X00663112Y00068077D01*
X00660823Y0006869D01*
X00658453D01*
X00656164Y00068077D01*
X00654112Y00066892D01*
X00652436Y00065216D01*
X00651251Y00063164D01*
X00650638Y00060875D01*
Y00058505D01*
X00651251Y00056216D01*
X00652436Y00054164D01*
X00654112Y00052488D01*
X00656164Y00051303D01*
X00658453Y0005069D01*
X00660823D01*
X00663112Y00051303D01*
X00665164Y00052488D01*
X0066684Y00054164D01*
X00668025Y00056216D01*
X00668638Y00058505D01*
Y00060875D01*
X00668025Y00063164D01*
X00667546Y00063993D01*
X0068049Y00076938D01*
X00681043Y00077765D01*
X00681237Y0007874D01*
Y0028956D01*
X00681043Y00290535D01*
X0068049Y00291362D01*
X005954Y00376452D01*
X00594574Y00377005D01*
X00593598Y00377199D01*
X00583443D01*
X00583443Y00377199D01*
X00582177Y00378465D01*
X00580523Y0037915D01*
D02*
G37*
G36*
X00579507Y0041725D02*
X00577717D01*
X00576063Y00416565D01*
X00574797Y00415299D01*
X00574112Y00413645D01*
Y00411855D01*
X00574797Y00410201D01*
X00576063Y00408935D01*
X00577717Y0040825D01*
X00579507D01*
X00581161Y00408935D01*
X00582427Y00410201D01*
X00582427Y00410201D01*
X0058543D01*
X00696713Y00298918D01*
Y00096266D01*
X00696907Y0009529D01*
X0069746Y00094464D01*
X0072793Y00063993D01*
X00727451Y00063164D01*
X00726838Y00060875D01*
Y00058505D01*
X00727451Y00056216D01*
X00728636Y00054164D01*
X00730312Y00052488D01*
X00732364Y00051303D01*
X00734653Y0005069D01*
X00737023D01*
X00739312Y00051303D01*
X00741364Y00052488D01*
X0074304Y00054164D01*
X00744225Y00056216D01*
X00744838Y00058505D01*
Y00060875D01*
X00744225Y00063164D01*
X0074304Y00065216D01*
X00741364Y00066892D01*
X00739312Y00068077D01*
X00737023Y0006869D01*
X00734653D01*
X00732364Y00068077D01*
X00731535Y00067598D01*
X00701811Y00097322D01*
Y00299974D01*
X00701617Y00300949D01*
X00701064Y00301776D01*
X00588288Y00414552D01*
X00587462Y00415105D01*
X00586486Y00415299D01*
X00582427D01*
X00582427Y00415299D01*
X00581161Y00416565D01*
X00579507Y0041725D01*
D02*
G37*
G36*
X00579761Y0036645D02*
X00577971D01*
X00576317Y00365765D01*
X00575051Y00364499D01*
X00574366Y00362845D01*
Y00361055D01*
X00575051Y00359401D01*
X00576317Y00358135D01*
X00577971Y0035745D01*
X00579761D01*
X00581415Y00358135D01*
X00582681Y00359401D01*
X00582681Y00359401D01*
X0059051D01*
X00668265Y00281646D01*
Y00097322D01*
X00639633Y0006869D01*
X00625238D01*
Y0005069D01*
X00643238D01*
Y00065085D01*
X00672616Y00094464D01*
X00673169Y00095291D01*
X00673363Y00096266D01*
Y00282702D01*
X00673169Y00283677D01*
X00672616Y00284504D01*
X00593368Y00363752D01*
X00592542Y00364305D01*
X00591566Y00364499D01*
X00582681D01*
X00582681Y00364499D01*
X00581415Y00365765D01*
X00579761Y0036645D01*
D02*
G37*
G36*
X00020719Y0023746D02*
X00018441D01*
X00016241Y0023687D01*
X00014269Y00235732D01*
X00012658Y00234121D01*
X0001152Y00232149D01*
X0001093Y00229949D01*
Y00227671D01*
X0001152Y00225471D01*
X00012658Y00223499D01*
X00014269Y00221888D01*
X00016241Y00220749D01*
X00017031Y00220538D01*
Y00215116D01*
X00017225Y0021414D01*
X00017778Y00213314D01*
X00182298Y00048794D01*
X00183125Y00048241D01*
X001841Y00048047D01*
X00341421D01*
X00341421Y00048047D01*
X00342687Y00046781D01*
X00344341Y00046096D01*
X00346131D01*
X00347785Y00046781D01*
X00349051Y00048047D01*
X00349736Y00049701D01*
Y00051491D01*
X00349051Y00053145D01*
X00347785Y00054411D01*
X00346131Y00055096D01*
X00344341D01*
X00342687Y00054411D01*
X00341421Y00053145D01*
X00341421Y00053145D01*
X00185156D01*
X00022129Y00216172D01*
Y00220538D01*
X00022919Y00220749D01*
X00024891Y00221888D01*
X00026502Y00223499D01*
X00027641Y00225471D01*
X0002823Y00227671D01*
Y00229949D01*
X00027641Y00232149D01*
X00026502Y00234121D01*
X00024891Y00235732D01*
X00022919Y0023687D01*
X00020719Y0023746D01*
D02*
G37*
%LPD*%
D11*
X00294386Y00146304D02*
X00325374Y00177292D01*
X00294386Y0012319D02*
Y00146304D01*
X00325374Y00177292D02*
X00336296D01*
X00362712Y00150876D01*
X00499491Y00219048D02*
X0050028D01*
X00449394Y0016974D02*
X00450183D01*
X00499491Y00219048D01*
X0051711Y00330234D02*
X00530826D01*
X00466444Y003809D02*
X0051711Y00330234D01*
X00466444Y003809D02*
Y00410872D01*
X0042164Y00203962D02*
X0055372Y00336042D01*
X00591312D01*
X00188415Y00225295D02*
X00194815D01*
X0019558Y0022606D01*
X0015748Y0019436D02*
X00188415Y00225295D01*
X00647547Y00275079D02*
X00657095D01*
X00620366Y0030226D02*
X00647547Y00275079D01*
X00670814Y00096266D02*
Y00282702D01*
X00634238Y0005969D02*
X00670814Y00096266D01*
X00678688Y0007874D02*
Y0028956D01*
X00659638Y0005969D02*
X00678688Y0007874D01*
X00686308Y0006096D02*
Y00292608D01*
X00685038Y0005969D02*
X00686308Y0006096D01*
X00692404Y00077724D02*
X00710438Y0005969D01*
X00692404Y00077724D02*
Y00296418D01*
X00699262Y00096266D02*
X00735838Y0005969D01*
X00699262Y00096266D02*
Y00299974D01*
X00591566Y0036195D02*
X00670814Y00282702D01*
X00578866Y0036195D02*
X00591566D01*
X00632714Y0030988D02*
X00650646Y00291948D01*
Y002826D02*
Y00291948D01*
X00650494Y00282448D02*
X00650646Y002826D01*
X00657095Y00275079D02*
X0065786Y00275844D01*
X00593598Y0037465D02*
X00678688Y0028956D01*
X00579628Y0037465D02*
X00593598D01*
X00559713Y00324358D02*
X00591566D01*
X004004Y00165045D02*
X00559713Y00324358D01*
X0056375Y0031737D02*
X0060719D01*
X00607314Y00317246D01*
X00591566Y0038735D02*
X00686308Y00292608D01*
X00578866Y0038735D02*
X00591566D01*
X0056642Y0030988D02*
X00632714D01*
X00416715Y00160175D02*
X0056642Y0030988D01*
X00588772Y0040005D02*
X00692404Y00296418D01*
X00586486Y0041275D02*
X00699262Y00299974D01*
X0057912Y0040005D02*
X00588772D01*
X00578612Y0041275D02*
X00586486D01*
X0056896Y0030226D02*
X00620366D01*
X0041148Y0014478D02*
X0056896Y0030226D01*
X00719074Y00220726D02*
Y0038735D01*
Y00220726D02*
X0073914Y0020066D01*
X00725424Y0014986D02*
X0073914D01*
X00709168Y00166116D02*
X00725424Y0014986D01*
X00709168Y00166116D02*
Y00336042D01*
X00718566Y00411988D02*
X0073914Y00391414D01*
Y0025146D02*
Y00391414D01*
X00760476Y00196596D02*
Y00348488D01*
X0073914Y0017526D02*
X00760476Y00196596D01*
X0073914Y0022606D02*
X0075311Y0024003D01*
Y0040005D01*
X0065532Y0042672D02*
X00693674Y00388366D01*
Y0035179D02*
Y00388366D01*
X0001958Y00215116D02*
Y0022881D01*
X001841Y00050596D02*
X00345236D01*
X0001958Y00215116D02*
X001841Y00050596D01*
X00319686Y00079348D02*
Y0011567D01*
X0030607Y00120396D02*
X0031496D01*
X00319686Y0011567D01*
X0055372Y0042672D02*
X0065532D01*
X0053848Y0041148D02*
X0055372Y0042672D01*
X00409868Y00160175D02*
X00416715D01*
X00407482Y0016256D02*
X00409868Y00160175D01*
X004064Y0016256D02*
X00407482D01*
X0041402Y0016764D02*
X0056375Y0031737D01*
X004004Y001584D02*
Y00165045D01*
Y001584D02*
X004064Y001524D01*
X0053848Y00337888D02*
Y0041148D01*
X00530826Y00330234D02*
X0053848Y00337888D01*
X0051308Y0046482D02*
X0054102Y0043688D01*
X0032258Y0045212D02*
X0033528Y0046482D01*
X0051308D01*
D58*
X00256557Y00309863D02*
X00262253Y00304167D01*
Y00271655D02*
Y00304167D01*
Y00271655D02*
X00262636Y00271272D01*
X0001958Y00270024D02*
X00059436Y0030988D01*
X0001958Y0025421D02*
Y00270024D01*
X00059436Y0030988D02*
X0025654D01*
X0034798Y0042418D02*
Y0045212D01*
X0036068Y0041148D02*
X0038608D01*
X0034798Y0042418D02*
X0036068Y0041148D01*
D61*
X0036195Y00257506D02*
Y00258318D01*
X00362712Y00150876D02*
Y00256744D01*
X0036195Y00257506D02*
X00362712Y00256744D01*
D63*
X0061756Y0040605D02*
D03*
X0064556D02*
D03*
X0061756Y0039205D02*
D03*
X0063156D02*
D03*
X0064556D02*
D03*
X0062456Y0041305D02*
D03*
X0063856D02*
D03*
X0062456Y0039905D02*
D03*
X0063856D02*
D03*
X0062456Y0038505D02*
D03*
X0063856D02*
D03*
D64*
X0013208Y0023246D02*
D03*
D65*
X0015748Y0021976D02*
D03*
X0013208Y0020706D02*
D03*
X0015748Y0019436D02*
D03*
X0013208Y0018166D02*
D03*
X0015748Y0016896D02*
D03*
X0013208Y0015626D02*
D03*
X0015748Y0014356D02*
D03*
D66*
X0001958Y0025421D02*
D03*
Y0022881D02*
D03*
Y0012171D02*
D03*
Y0014711D02*
D03*
D67*
X0009908Y0026541D02*
D03*
Y0011051D02*
D03*
D68*
X0006858Y0013081D02*
D03*
Y0024511D02*
D03*
D69*
X00685038Y0005969D02*
D03*
X00659638D02*
D03*
X00710438D02*
D03*
X00735838D02*
D03*
X0073914Y0020066D02*
D03*
Y0017526D02*
D03*
Y0022606D02*
D03*
Y0025146D02*
D03*
X0032258Y0045212D02*
D03*
X0029718D02*
D03*
X00210058Y00452374D02*
D03*
X00184658D02*
D03*
D70*
X00634238Y0005969D02*
D03*
X0034798Y0045212D02*
D03*
X00235458Y00452374D02*
D03*
D71*
X0073914Y0014986D02*
D03*
D72*
X00019538Y00425352D02*
D03*
X00105938D02*
D03*
D73*
X00019538Y00466852D02*
D03*
X00105938D02*
D03*
D74*
X00033838Y00430352D02*
D03*
X00091638D02*
D03*
X0048514Y0002794D02*
D03*
X0050292D02*
D03*
X005207D02*
D03*
X0053848D02*
D03*
X0055626D02*
D03*
X0057404D02*
D03*
X0048514Y0001016D02*
D03*
X0050292D02*
D03*
X005207D02*
D03*
X0053848D02*
D03*
X0055626D02*
D03*
X0057404D02*
D03*
X0012446Y0001524D02*
D03*
X0014224D02*
D03*
X0016002D02*
D03*
X001778D02*
D03*
X0019558D02*
D03*
X0021336D02*
D03*
X0012446Y0003048D02*
D03*
X0014224D02*
D03*
X0016002D02*
D03*
X001778D02*
D03*
X0019558D02*
D03*
X0021336D02*
D03*
X0000762Y0001524D02*
D03*
X000254D02*
D03*
X0004318D02*
D03*
X0006096D02*
D03*
X0007874D02*
D03*
X0009652D02*
D03*
X0000762Y0003048D02*
D03*
X000254D02*
D03*
X0004318D02*
D03*
X0006096D02*
D03*
X0007874D02*
D03*
X0009652D02*
D03*
X0000762Y0004572D02*
D03*
X000254D02*
D03*
X0004318D02*
D03*
X0006096D02*
D03*
X0007874D02*
D03*
X0009652D02*
D03*
X0000762Y0032766D02*
D03*
X000254D02*
D03*
X0004318D02*
D03*
X0006096D02*
D03*
X0007874D02*
D03*
X0009652D02*
D03*
Y003429D02*
D03*
X0007874D02*
D03*
X0006096D02*
D03*
X0004318D02*
D03*
X000254D02*
D03*
X0000762D02*
D03*
X0050028Y00219048D02*
D03*
X00362712Y00150876D02*
D03*
X0054102Y0043688D02*
D03*
X0038608Y0041148D02*
D03*
X00530826Y00330234D02*
D03*
X004064Y001524D02*
D03*
X0041148Y0014478D02*
D03*
X0041402Y0016764D02*
D03*
X004064Y0016256D02*
D03*
X00319686Y00079348D02*
D03*
X0030607Y00120396D02*
D03*
X00345236Y00050596D02*
D03*
X00578612Y0041275D02*
D03*
X0057912Y0040005D02*
D03*
X00578866Y0038735D02*
D03*
X00579628Y0037465D02*
D03*
X00578866Y0036195D02*
D03*
X0075311Y0040005D02*
D03*
X00718566Y00411988D02*
D03*
X00693674Y0035179D02*
D03*
X00760476Y00348488D02*
D03*
X00709168Y00336042D02*
D03*
X00719074Y0038735D02*
D03*
X00607314Y00317246D02*
D03*
X00591566Y00324358D02*
D03*
X0065786Y00275844D02*
D03*
X00650494Y00282448D02*
D03*
X0019558Y0022606D02*
D03*
X0042164Y00203962D02*
D03*
X00591312Y00336042D02*
D03*
X00449394Y0016974D02*
D03*
X00294386Y0012319D02*
D03*
X00466444Y00410872D02*
D03*
X00325374Y00177292D02*
D03*
D75*
X0025654Y0030988D02*
D03*
X0036195Y00258318D02*
D03*
X00262636Y00271272D02*
D03*
X0058928Y00127D02*
D03*
M02*
