G04*
G04 #@! TF.GenerationSoftware,Altium Limited,Altium Designer,24.9.1 (31)*
G04*
G04 Layer_Physical_Order=1*
G04 Layer_Color=255*
%FSTAX44Y44*%
%MOMM*%
G71*
G04*
G04 #@! TF.SameCoordinates,77538C0C-0C9F-436E-B66A-60309351D6FF*
G04*
G04*
G04 #@! TF.FilePolarity,Positive*
G04*
G01*
G75*
%ADD11C,0.3000*%
%ADD15R,1.2000X1.4000*%
%ADD16R,1.5600X0.2800*%
%ADD17R,0.2800X1.5600*%
%ADD18R,0.9000X0.9000*%
%ADD19R,1.5000X0.9000*%
%ADD20R,0.9000X1.5000*%
%ADD21R,1.7000X1.1500*%
%ADD22R,1.4000X1.2000*%
G04:AMPARAMS|DCode=23|XSize=3.24mm|YSize=1.31mm|CornerRadius=0.0983mm|HoleSize=0mm|Usage=FLASHONLY|Rotation=90.000|XOffset=0mm|YOffset=0mm|HoleType=Round|Shape=RoundedRectangle|*
%AMROUNDEDRECTD23*
21,1,3.2400,1.1135,0,0,90.0*
21,1,3.0435,1.3100,0,0,90.0*
1,1,0.1965,0.5568,1.5218*
1,1,0.1965,0.5568,-1.5218*
1,1,0.1965,-0.5568,-1.5218*
1,1,0.1965,-0.5568,1.5218*
%
%ADD23ROUNDEDRECTD23*%
G04:AMPARAMS|DCode=24|XSize=0.93mm|YSize=1.31mm|CornerRadius=0.0698mm|HoleSize=0mm|Usage=FLASHONLY|Rotation=90.000|XOffset=0mm|YOffset=0mm|HoleType=Round|Shape=RoundedRectangle|*
%AMROUNDEDRECTD24*
21,1,0.9300,1.1705,0,0,90.0*
21,1,0.7905,1.3100,0,0,90.0*
1,1,0.1395,0.5853,0.3953*
1,1,0.1395,0.5853,-0.3953*
1,1,0.1395,-0.5853,-0.3953*
1,1,0.1395,-0.5853,0.3953*
%
%ADD24ROUNDEDRECTD24*%
%ADD25R,2.4000X2.2000*%
%ADD26R,0.7900X0.2800*%
%ADD27R,0.2800X0.7900*%
%ADD28R,0.6000X1.1500*%
%ADD29R,0.3000X1.1500*%
%ADD30R,1.2000X1.2000*%
%ADD58C,0.6000*%
%ADD59C,0.8000*%
%ADD60C,0.2489*%
%ADD61C,0.5000*%
%ADD62C,1.0000*%
%ADD63C,0.4000*%
%ADD64R,1.3980X1.3980*%
%ADD65C,1.3980*%
%ADD66C,1.5300*%
%ADD67C,2.4450*%
%ADD68C,3.2500*%
%ADD69C,1.6000*%
%ADD70R,1.6000X1.6000*%
%ADD71R,1.6000X1.6000*%
%ADD72O,1.0500X2.1500*%
%ADD73O,1.0500X1.8500*%
%ADD74C,0.7000*%
%ADD75C,0.8000*%
G36*
X008001Y0D02*
X0D01*
Y0048768D01*
X0023762D01*
X00237767Y0048618D01*
X00237063Y0048604D01*
X00235409Y00484935D01*
X0021172Y00461246D01*
X00211243Y00461374D01*
X00208873D01*
X00206584Y00460761D01*
X00204532Y00459576D01*
X00202856Y004579D01*
X00201671Y00455848D01*
X00201058Y00453559D01*
Y00451189D01*
X00201671Y004489D01*
X00202856Y00446848D01*
X00204532Y00445172D01*
X00206584Y00443987D01*
X00208873Y00443374D01*
X00211243D01*
X00213532Y00443987D01*
X00215584Y00445172D01*
X0021726Y00446848D01*
X00218445Y004489D01*
X00219058Y00451189D01*
Y00453559D01*
X0021893Y00454036D01*
X00224958Y00460064D01*
X00226458Y00459443D01*
Y00443374D01*
X00244458D01*
Y00447276D01*
X00249094D01*
X00273082Y00423288D01*
Y00406272D01*
X0027118D01*
Y00403517D01*
X00226859D01*
X00226708Y00403742D01*
X00226147Y00404118D01*
X00225485Y00404249D01*
X0021378D01*
X00213117Y00404118D01*
X00212556Y00403742D01*
X00212181Y00403181D01*
X00212049Y00402519D01*
Y00401988D01*
X00203515D01*
X00121903Y00483599D01*
X00120746Y00484373D01*
X0011938Y00484645D01*
X00094512D01*
X00093147Y00484373D01*
X00091989Y00483599D01*
X00039724Y00431334D01*
X00038097Y00431829D01*
X00037653Y00432901D01*
X00036387Y00434167D01*
X00034733Y00434852D01*
X00032943D01*
X00031289Y00434167D01*
X00030023Y00432901D01*
X00029338Y00431247D01*
Y00429457D01*
X00030023Y00427803D01*
X00031289Y00426537D01*
X00032943Y00425852D01*
X00034733D01*
X00034738Y00425849D01*
Y00412852D01*
X00035169D01*
Y00391106D01*
X00035441Y00389741D01*
X00036215Y00388583D01*
X00040689Y00384109D01*
X00041847Y00383335D01*
X00043212Y00383063D01*
X00060112D01*
X00060112Y00383063D01*
X00081194D01*
X00082559Y00383335D01*
X00083717Y00384109D01*
X00089261Y00389653D01*
X00090035Y00390811D01*
X00090307Y00392176D01*
Y00412852D01*
X00090738D01*
X00090738Y00425849D01*
X00090743Y00425852D01*
X00090829Y00425852D01*
X00092533D01*
X00094187Y00426537D01*
X00095453Y00427803D01*
X00096138Y00429457D01*
Y00431247D01*
X00095453Y00432901D01*
X00094187Y00434167D01*
X00093255Y00434553D01*
X00093553Y00436053D01*
X00115462D01*
X00118829Y00432686D01*
X00118829Y00432685D01*
X00125133Y00426382D01*
Y00335998D01*
X00125326Y00335023D01*
X00125879Y00334196D01*
X00171636Y00288439D01*
X00172463Y00287887D01*
X00173438Y00287693D01*
X00480742D01*
X00481717Y00287887D01*
X00482544Y00288439D01*
X00506857Y00312752D01*
X0055056D01*
Y0030565D01*
X0056756D01*
Y0031665D01*
X00555806D01*
X00555315Y003175D01*
X00555806Y0031835D01*
X0056756D01*
Y0032935D01*
X0055056D01*
Y00322248D01*
X00503979D01*
X00503003Y00322054D01*
X00502176Y00321502D01*
X004996Y00318925D01*
X004996Y00318925D01*
X00477864Y00297189D01*
X00176316D01*
X00134629Y00338876D01*
Y0042926D01*
X00134435Y00430235D01*
X00133882Y00431062D01*
X00132594Y00432351D01*
X00132594Y00432351D01*
X00125544Y004394D01*
X00125544Y004394D01*
X00122718Y00442226D01*
X00122718Y00442226D01*
X00120142Y00444803D01*
X00119315Y00445355D01*
X0011834Y0044555D01*
X00073865D01*
X0007289Y00445355D01*
X00072063Y00444803D01*
X00058736Y00431476D01*
X00058184Y00430649D01*
X0005799Y00429674D01*
Y00427748D01*
X00057738Y00426352D01*
X00046795D01*
X00046221Y00427738D01*
X0009599Y00477507D01*
X00117902D01*
X00199514Y00395896D01*
X00200671Y00395122D01*
X00202037Y0039485D01*
X00212049D01*
Y00394613D01*
X00212181Y00393951D01*
X00212556Y0039339D01*
X00213117Y00393014D01*
X0021378Y00392883D01*
X00225485D01*
X00226147Y00393014D01*
X00226606Y00393321D01*
X0027118D01*
Y00390272D01*
X0028518D01*
Y00406272D01*
X00283278D01*
Y004254D01*
X0028289Y00427351D01*
X00281785Y00429005D01*
X00254811Y00455979D01*
X00253157Y00457084D01*
X00251206Y00457472D01*
X00244458D01*
Y00461374D01*
X00228389D01*
X00227768Y00462874D01*
X00241126Y00476232D01*
X00480042D01*
Y0047028D01*
X0047814D01*
Y00467378D01*
X004578D01*
Y0047028D01*
X004438D01*
Y0045428D01*
X004578D01*
Y00457182D01*
X0047814D01*
Y0045428D01*
X0049214D01*
Y0047028D01*
X00490238D01*
Y00476232D01*
X00512492D01*
X00528779Y00459945D01*
X00530433Y0045884D01*
X00532384Y00458452D01*
X0055056D01*
Y0045805D01*
X0056756D01*
Y0046905D01*
X0055056D01*
Y00468648D01*
X00534496D01*
X00518209Y00484935D01*
X00516555Y0048604D01*
X00515851Y0048618D01*
X00515998Y0048768D01*
X008001D01*
Y0D01*
D02*
G37*
%LPC*%
G36*
X0074256Y0046905D02*
X0072556D01*
Y0045805D01*
X0074256D01*
Y0046905D01*
D02*
G37*
G36*
Y0045635D02*
X0072556D01*
Y0044535D01*
X0074256D01*
Y0045635D01*
D02*
G37*
G36*
X0051114Y0047028D02*
X0049714D01*
Y0045428D01*
X00501591D01*
Y00444846D01*
X00497844D01*
Y00428846D01*
X00502295D01*
Y00419446D01*
X00497844D01*
Y00403446D01*
X00502295D01*
Y00393472D01*
X00497844D01*
Y00377472D01*
X00502295D01*
Y0037128D01*
X004724Y00341385D01*
X00413044D01*
X00409713Y00344716D01*
X00410334Y00346216D01*
X00415646D01*
Y00359716D01*
X00396646D01*
Y00346216D01*
X00403802D01*
Y00344473D01*
X00403996Y00343498D01*
X00404548Y00342671D01*
X00410186Y00337034D01*
X00411013Y00336481D01*
X00411988Y00336287D01*
X00473456D01*
X00474431Y00336481D01*
X00475258Y00337034D01*
X00506646Y00368422D01*
X00507199Y00369249D01*
X00507393Y00370224D01*
Y00377472D01*
X00511844D01*
Y00393472D01*
X00507393D01*
Y00403446D01*
X00511844D01*
Y00419446D01*
X00507393D01*
Y00428846D01*
X00511844D01*
Y00444846D01*
X00506689D01*
Y0045428D01*
X0051114D01*
Y00459731D01*
X00514056D01*
X0052474Y00449048D01*
X00525567Y00448495D01*
X00526542Y00448301D01*
X0055056D01*
Y0044535D01*
X0056756D01*
Y0045635D01*
X0055056D01*
Y00453399D01*
X00527598D01*
X00516914Y00464082D01*
X00516087Y00464635D01*
X00515112Y00464829D01*
X0051114D01*
Y0047028D01*
D02*
G37*
G36*
X0056756Y0044365D02*
X0055056D01*
Y00439429D01*
X00544835D01*
X00544835Y00439429D01*
X00543569Y00440695D01*
X00541915Y0044138D01*
X00540125D01*
X00538471Y00440695D01*
X00537205Y00439429D01*
X0053652Y00437775D01*
Y00435985D01*
X00537205Y00434331D01*
X00538471Y00433065D01*
X00540125Y0043238D01*
X00541915D01*
X00543569Y00433065D01*
X00544835Y00434331D01*
X00544835Y00434331D01*
X0055056D01*
Y0043265D01*
X0056756D01*
Y0044365D01*
D02*
G37*
G36*
X0074256D02*
X0072556D01*
Y0043265D01*
X0074256D01*
Y0044365D01*
D02*
G37*
G36*
X004388Y0047028D02*
X004248D01*
Y00467378D01*
X0035814D01*
X00356189Y0046699D01*
X00354535Y00465885D01*
X0034977Y0046112D01*
X0033898D01*
Y0044312D01*
X0035698D01*
Y0045391D01*
X00360252Y00457182D01*
X004248D01*
Y0045428D01*
X0042701D01*
Y00444914D01*
X00425416D01*
Y00428914D01*
X00439416D01*
Y00444914D01*
X00437206D01*
Y0045428D01*
X004388D01*
Y0047028D01*
D02*
G37*
G36*
X0074256Y0043095D02*
X0072556D01*
Y0041995D01*
X0074256D01*
Y0043095D01*
D02*
G37*
G36*
X0056756D02*
X0055056D01*
Y0041995D01*
X0056756D01*
Y0043095D01*
D02*
G37*
G36*
X00439504Y00418872D02*
X00425504D01*
Y0041495D01*
X00388974D01*
X00388629Y00415295D01*
X00386975Y0041598D01*
X00385185D01*
X00383531Y00415295D01*
X00382265Y00414029D01*
X00381843Y00413011D01*
X00370521Y00401688D01*
X00354784D01*
Y0040561D01*
X00340784D01*
Y0038961D01*
X00347574D01*
X0037387Y00363314D01*
Y00321644D01*
X00363648Y00311422D01*
X00335162D01*
X00333462Y00313122D01*
Y00319626D01*
X00335364D01*
Y00335626D01*
X00332619D01*
Y00340754D01*
X00332231Y00342705D01*
X00331126Y00344358D01*
X0032644Y00349045D01*
X00324786Y0035015D01*
X00322835Y00350538D01*
X00284362D01*
X00282662Y00352238D01*
Y00359184D01*
X00284564D01*
Y00375184D01*
X00270564D01*
Y00372282D01*
X00248592D01*
X00241603Y00379271D01*
X00239949Y00380376D01*
X00237998Y00380764D01*
X00226761D01*
X00226708Y00380842D01*
X00226147Y00381217D01*
X00225485Y00381349D01*
X0021378D01*
X00213117Y00381217D01*
X00212556Y00380842D01*
X00212181Y00380281D01*
X00212147Y00380114D01*
X00207886D01*
X00205935Y00379726D01*
X00204282Y00378621D01*
X00199595Y00373935D01*
X0019849Y00372281D01*
X00198102Y0037033D01*
Y0034036D01*
X0019849Y00338409D01*
X00199595Y00336755D01*
X00212769Y00323581D01*
X00214423Y00322476D01*
X00216374Y00322088D01*
X00270476D01*
Y00319186D01*
X00273398D01*
Y00315084D01*
X00272272Y00313958D01*
X00259533D01*
X00259372Y00314119D01*
X00257535Y0031488D01*
X00255545D01*
X00253708Y00314119D01*
X00252301Y00312712D01*
X0025154Y00310875D01*
Y00308885D01*
X00252301Y00307048D01*
X00253708Y00305641D01*
X00255545Y0030488D01*
X00257535D01*
X00259372Y00305641D01*
X00259533Y00305802D01*
X00273961D01*
X00273961Y00305802D01*
X00275522Y00306112D01*
X00276845Y00306996D01*
X0028036Y00310511D01*
X0028036Y00310511D01*
X00281244Y00311834D01*
X00281554Y00313395D01*
X00281554Y00313395D01*
Y00319186D01*
X00284476D01*
Y00335186D01*
X00270476D01*
Y00332284D01*
X00218486D01*
X00208298Y00342472D01*
Y00368218D01*
X00209998Y00369918D01*
X00220882D01*
X00221207Y00369983D01*
X00225485D01*
X00226147Y00370115D01*
X00226708Y0037049D01*
X00226761Y00370568D01*
X00235886D01*
X00242875Y00363579D01*
X00244529Y00362474D01*
X0024648Y00362086D01*
X00270564D01*
Y00359184D01*
X00272466D01*
Y00350126D01*
X00272854Y00348175D01*
X00273959Y00346521D01*
X00278645Y00341835D01*
X00280299Y0034073D01*
X0028225Y00340342D01*
X00320723D01*
X00322423Y00338642D01*
Y00335626D01*
X00321364D01*
Y00319626D01*
X00323266D01*
Y0031101D01*
X00323654Y00309059D01*
X00324759Y00307405D01*
X00329445Y00302719D01*
X00331099Y00301614D01*
X0033305Y00301226D01*
X0036576D01*
X00367711Y00301614D01*
X00369365Y00302719D01*
X00382573Y00315927D01*
X00383678Y00317581D01*
X00384066Y00319532D01*
Y00365426D01*
X00383678Y00367377D01*
X00382573Y00369031D01*
X00359458Y00392146D01*
X00360032Y00393532D01*
X0037221D01*
X0037221Y00393532D01*
X00373771Y00393842D01*
X00375094Y00394726D01*
X00387161Y00406794D01*
X00425504D01*
Y00402872D01*
X00427318D01*
Y00394114D01*
X00425416D01*
Y00378114D01*
X00428898D01*
Y00373724D01*
X00429286Y00371773D01*
X00430392Y00370119D01*
X00436323Y00364187D01*
X00437977Y00363082D01*
X00439928Y00362694D01*
X00480181D01*
X00482132Y00363082D01*
X00483786Y00364187D01*
X00488472Y00368873D01*
X00489577Y00370527D01*
X00489965Y00372478D01*
Y00377472D01*
X00492844D01*
Y00393472D01*
X00478844D01*
Y00377472D01*
X00479769D01*
Y0037459D01*
X00478069Y0037289D01*
X0044204D01*
X00439094Y00375835D01*
Y00378114D01*
X00439416D01*
Y00394114D01*
X00437514D01*
Y00402872D01*
X00439504D01*
Y00418872D01*
D02*
G37*
G36*
X0074256Y0041825D02*
X0072556D01*
Y00414537D01*
X00722381D01*
X00722381Y00414537D01*
X00721115Y00415803D01*
X00719461Y00416488D01*
X00717671D01*
X00716017Y00415803D01*
X00714751Y00414537D01*
X00714066Y00412883D01*
Y00411093D01*
X00714751Y00409439D01*
X00716017Y00408173D01*
X00717671Y00407488D01*
X00719461D01*
X00721115Y00408173D01*
X00722381Y00409439D01*
X00722381Y00409439D01*
X0072556D01*
Y0040725D01*
X0074256D01*
Y0041825D01*
D02*
G37*
G36*
X00639157Y0041605D02*
X00637963D01*
X00636861Y00415593D01*
X00636017Y00414749D01*
X0063556Y00413647D01*
Y00412453D01*
X00636017Y00411351D01*
X00636861Y00410507D01*
X00637963Y0041005D01*
X00639157D01*
X00640259Y00410507D01*
X00641103Y00411351D01*
X0064156Y00412453D01*
Y00413647D01*
X00641103Y00414749D01*
X00640259Y00415593D01*
X00639157Y0041605D01*
D02*
G37*
G36*
X00625157D02*
X00623963D01*
X00622861Y00415593D01*
X00622017Y00414749D01*
X0062156Y00413647D01*
Y00412453D01*
X00622017Y00411351D01*
X00622861Y00410507D01*
X00623963Y0041005D01*
X00625157D01*
X00626259Y00410507D01*
X00627103Y00411351D01*
X0062756Y00412453D01*
Y00413647D01*
X00627103Y00414749D01*
X00626259Y00415593D01*
X00625157Y0041605D01*
D02*
G37*
G36*
X0056756Y0041825D02*
X0055056D01*
Y0040725D01*
X0056756D01*
Y00410201D01*
X00574797D01*
X00574797Y00410201D01*
X00576063Y00408935D01*
X00577717Y0040825D01*
X00579507D01*
X00581161Y00408935D01*
X00582427Y00410201D01*
X00583112Y00411855D01*
Y00413645D01*
X00582427Y00415299D01*
X00581161Y00416565D01*
X00579507Y0041725D01*
X00577717D01*
X00576063Y00416565D01*
X00574797Y00415299D01*
X00574797Y00415299D01*
X0056756D01*
Y0041825D01*
D02*
G37*
G36*
X00458504Y00418872D02*
X00444504D01*
Y00402872D01*
X00458504D01*
Y00408323D01*
X00462629D01*
X00462629Y00408323D01*
X00463895Y00407057D01*
X00465549Y00406372D01*
X00467339D01*
X00468993Y00407057D01*
X00470259Y00408323D01*
X00470944Y00409977D01*
Y00411767D01*
X00470259Y00413421D01*
X00468993Y00414687D01*
X00467339Y00415372D01*
X00465549D01*
X00463895Y00414687D01*
X00462629Y00413421D01*
X00462629Y00413421D01*
X00458504D01*
Y00418872D01*
D02*
G37*
G36*
X00646157Y0040905D02*
X00644963D01*
X00643861Y00408593D01*
X00643017Y00407749D01*
X0064256Y00406647D01*
Y00405453D01*
X00643017Y00404351D01*
X00643861Y00403507D01*
X00644963Y0040305D01*
X00646157D01*
X00647259Y00403507D01*
X00648103Y00404351D01*
X0064856Y00405453D01*
Y00406647D01*
X00648103Y00407749D01*
X00647259Y00408593D01*
X00646157Y0040905D01*
D02*
G37*
G36*
X00618157D02*
X00616963D01*
X00615861Y00408593D01*
X00615017Y00407749D01*
X0061456Y00406647D01*
Y00405453D01*
X00615017Y00404351D01*
X00615861Y00403507D01*
X00616963Y0040305D01*
X00618157D01*
X00619259Y00403507D01*
X00620103Y00404351D01*
X0062056Y00405453D01*
Y00406647D01*
X00620103Y00407749D01*
X00619259Y00408593D01*
X00618157Y0040905D01*
D02*
G37*
G36*
X00639157Y0040205D02*
X00637963D01*
X00636861Y00401593D01*
X00636017Y00400749D01*
X0063556Y00399647D01*
Y00398453D01*
X00636017Y00397351D01*
X00636861Y00396507D01*
X00637963Y0039605D01*
X00639157D01*
X00640259Y00396507D01*
X00641103Y00397351D01*
X0064156Y00398453D01*
Y00399647D01*
X00641103Y00400749D01*
X00640259Y00401593D01*
X00639157Y0040205D01*
D02*
G37*
G36*
X00625157D02*
X00623963D01*
X00622861Y00401593D01*
X00622017Y00400749D01*
X0062156Y00399647D01*
Y00398453D01*
X00622017Y00397351D01*
X00622861Y00396507D01*
X00623963Y0039605D01*
X00625157D01*
X00626259Y00396507D01*
X00627103Y00397351D01*
X0062756Y00398453D01*
Y00399647D01*
X00627103Y00400749D01*
X00626259Y00401593D01*
X00625157Y0040205D01*
D02*
G37*
G36*
X0074256Y0040555D02*
X0072556D01*
Y0039455D01*
X0074256D01*
Y00397501D01*
X00749295D01*
X00749295Y00397501D01*
X00750561Y00396235D01*
X00752215Y0039555D01*
X00754005D01*
X00755659Y00396235D01*
X00756925Y00397501D01*
X0075761Y00399155D01*
Y00400945D01*
X00756925Y00402599D01*
X00755659Y00403865D01*
X00754005Y0040455D01*
X00752215D01*
X00750561Y00403865D01*
X00749295Y00402599D01*
X00749295Y00402599D01*
X0074256D01*
Y0040555D01*
D02*
G37*
G36*
X0056756D02*
X0055056D01*
Y0039455D01*
X0056756D01*
Y00397501D01*
X00575305D01*
X00575305Y00397501D01*
X00576571Y00396235D01*
X00578225Y0039555D01*
X00580015D01*
X00581669Y00396235D01*
X00582935Y00397501D01*
X0058362Y00399155D01*
Y00400945D01*
X00582935Y00402599D01*
X00581669Y00403865D01*
X00580015Y0040455D01*
X00578225D01*
X00576571Y00403865D01*
X00575305Y00402599D01*
X00575305Y00402599D01*
X0056756D01*
Y0040555D01*
D02*
G37*
G36*
X0074256Y0039285D02*
X0072556D01*
Y00389899D01*
X00722889D01*
X00722889Y00389899D01*
X00721623Y00391165D01*
X00719969Y0039185D01*
X00718179D01*
X00716525Y00391165D01*
X00715259Y00389899D01*
X00714574Y00388245D01*
Y00386455D01*
X00715259Y00384801D01*
X00716525Y00383535D01*
X00718179Y0038285D01*
X00719969D01*
X00721623Y00383535D01*
X00722889Y00384801D01*
X00722889Y00384801D01*
X0072556D01*
Y0038185D01*
X0074256D01*
Y0039285D01*
D02*
G37*
G36*
X00323765Y0046112D02*
X00321395D01*
X00319106Y00460507D01*
X00317054Y00459322D01*
X00315378Y00457646D01*
X00314193Y00455594D01*
X0031358Y00453305D01*
Y00450935D01*
X00314193Y00448646D01*
X00315378Y00446594D01*
X00317054Y00444918D01*
X00319106Y00443733D01*
X00321395Y0044312D01*
X00323765D01*
X00324311Y00443266D01*
X00326235Y00441342D01*
Y0040561D01*
X00321784D01*
Y0038961D01*
X00335784D01*
Y0040561D01*
X00331333D01*
Y00442398D01*
X00331139Y00443374D01*
X00330586Y00444201D01*
X00328987Y004458D01*
X00329782Y00446594D01*
X00330967Y00448646D01*
X0033158Y00450935D01*
Y00453305D01*
X00330967Y00455594D01*
X00329782Y00457646D01*
X00328106Y00459322D01*
X00326054Y00460507D01*
X00323765Y0046112D01*
D02*
G37*
G36*
X00646157Y0039505D02*
X00644963D01*
X00643861Y00394593D01*
X00643017Y00393749D01*
X0064256Y00392647D01*
Y00391453D01*
X00643017Y00390351D01*
X00643861Y00389507D01*
X00644963Y0038905D01*
X00646157D01*
X00647259Y00389507D01*
X00648103Y00390351D01*
X0064856Y00391453D01*
Y00392647D01*
X00648103Y00393749D01*
X00647259Y00394593D01*
X00646157Y0039505D01*
D02*
G37*
G36*
X00632157D02*
X00630963D01*
X00629861Y00394593D01*
X00629017Y00393749D01*
X0062856Y00392647D01*
Y00391453D01*
X00629017Y00390351D01*
X00629861Y00389507D01*
X00630963Y0038905D01*
X00632157D01*
X00633259Y00389507D01*
X00634103Y00390351D01*
X0063456Y00391453D01*
Y00392647D01*
X00634103Y00393749D01*
X00633259Y00394593D01*
X00632157Y0039505D01*
D02*
G37*
G36*
X00618157D02*
X00616963D01*
X00615861Y00394593D01*
X00615017Y00393749D01*
X0061456Y00392647D01*
Y00391453D01*
X00615017Y00390351D01*
X00615861Y00389507D01*
X00616963Y0038905D01*
X00618157D01*
X00619259Y00389507D01*
X00620103Y00390351D01*
X0062056Y00391453D01*
Y00392647D01*
X00620103Y00393749D01*
X00619259Y00394593D01*
X00618157Y0039505D01*
D02*
G37*
G36*
X0056756Y0039285D02*
X0055056D01*
Y0038185D01*
X0056756D01*
Y00384801D01*
X00575051D01*
X00575051Y00384801D01*
X00576317Y00383535D01*
X00577971Y0038285D01*
X00579761D01*
X00581415Y00383535D01*
X00582681Y00384801D01*
X00583366Y00386455D01*
Y00388245D01*
X00582681Y00389899D01*
X00581415Y00391165D01*
X00579761Y0039185D01*
X00577971D01*
X00576317Y00391165D01*
X00575051Y00389899D01*
X00575051Y00389899D01*
X0056756D01*
Y0039285D01*
D02*
G37*
G36*
X00639157Y0038805D02*
X00637963D01*
X00636861Y00387593D01*
X00636017Y00386749D01*
X0063556Y00385647D01*
Y00384453D01*
X00636017Y00383351D01*
X00636861Y00382507D01*
X00637963Y0038205D01*
X00639157D01*
X00640259Y00382507D01*
X00641103Y00383351D01*
X0064156Y00384453D01*
Y00385647D01*
X00641103Y00386749D01*
X00640259Y00387593D01*
X00639157Y0038805D01*
D02*
G37*
G36*
X00625157D02*
X00623963D01*
X00622861Y00387593D01*
X00622017Y00386749D01*
X0062156Y00385647D01*
Y00384453D01*
X00622017Y00383351D01*
X00622861Y00382507D01*
X00623963Y0038205D01*
X00625157D01*
X00626259Y00382507D01*
X00627103Y00383351D01*
X0062756Y00384453D01*
Y00385647D01*
X00627103Y00386749D01*
X00626259Y00387593D01*
X00625157Y0038805D01*
D02*
G37*
G36*
X003372Y003753D02*
X003232D01*
Y0037284D01*
X00303564D01*
Y00375184D01*
X00289564D01*
Y00359184D01*
X00303564D01*
Y00362644D01*
X003232D01*
Y003613D01*
X003372D01*
Y003753D01*
D02*
G37*
G36*
X0056756Y0038015D02*
X0055056D01*
Y0036915D01*
X0056756D01*
Y00372101D01*
X00575813D01*
X00575813Y00372101D01*
X00577079Y00370835D01*
X00578733Y0037015D01*
X00580523D01*
X00582177Y00370835D01*
X00583443Y00372101D01*
X00584128Y00373755D01*
Y00375545D01*
X00583443Y00377199D01*
X00582177Y00378465D01*
X00580523Y0037915D01*
X00578733D01*
X00577079Y00378465D01*
X00575813Y00377199D01*
X00575813Y00377199D01*
X0056756D01*
Y0038015D01*
D02*
G37*
G36*
X0074256D02*
X0072556D01*
Y0036915D01*
X0074256D01*
Y0038015D01*
D02*
G37*
G36*
X001583Y00392905D02*
X00147164D01*
X00146391Y00392751D01*
X00145735Y00392313D01*
X00145297Y00391657D01*
X00145143Y00390883D01*
Y00360448D01*
X00145297Y00359675D01*
X00145735Y00359019D01*
X00146391Y00358581D01*
X00147164Y00358427D01*
X001583D01*
X00159073Y00358581D01*
X00159729Y00359019D01*
X00160167Y00359675D01*
X00160321Y00360448D01*
Y00390883D01*
X00160167Y00391657D01*
X00159729Y00392313D01*
X00159073Y00392751D01*
X001583Y00392905D01*
D02*
G37*
G36*
X0056756Y0036745D02*
X0055056D01*
Y0035645D01*
X0056756D01*
Y00359401D01*
X00575051D01*
X00575051Y00359401D01*
X00576317Y00358135D01*
X00577971Y0035745D01*
X00579761D01*
X00581415Y00358135D01*
X00582681Y00359401D01*
X00583366Y00361055D01*
Y00362845D01*
X00582681Y00364499D01*
X00581415Y00365765D01*
X00579761Y0036645D01*
X00577971D01*
X00576317Y00365765D01*
X00575051Y00364499D01*
X00575051Y00364499D01*
X0056756D01*
Y0036745D01*
D02*
G37*
G36*
X0074256D02*
X0072556D01*
Y0035645D01*
X0074256D01*
Y0036745D01*
D02*
G37*
G36*
Y0035475D02*
X0072556D01*
Y0034375D01*
X0074256D01*
Y00345939D01*
X00756661D01*
X00756661Y00345939D01*
X00757927Y00344673D01*
X00759581Y00343988D01*
X00761371D01*
X00763025Y00344673D01*
X00764291Y00345939D01*
X00764976Y00347593D01*
Y00349383D01*
X00764291Y00351037D01*
X00763025Y00352303D01*
X00761371Y00352988D01*
X00759581D01*
X00757927Y00352303D01*
X00756661Y00351037D01*
X00756661Y00351037D01*
X0074256D01*
Y0035475D01*
D02*
G37*
G36*
X0056756D02*
X0055056D01*
Y0034375D01*
X0056756D01*
Y0035475D01*
D02*
G37*
G36*
X0074256Y0034205D02*
X0072556D01*
Y00338591D01*
X00712983D01*
X00712983Y00338591D01*
X00711717Y00339857D01*
X00710063Y00340542D01*
X00708273D01*
X00706619Y00339857D01*
X00705353Y00338591D01*
X00704668Y00336937D01*
Y00335147D01*
X00705353Y00333493D01*
X00706619Y00332227D01*
X00708273Y00331542D01*
X00710063D01*
X00711717Y00332227D01*
X00712983Y00333493D01*
X00712983Y00333493D01*
X0072556D01*
Y0033105D01*
X0074256D01*
Y0034205D01*
D02*
G37*
G36*
X0056756D02*
X0055056D01*
Y0033105D01*
X0056756D01*
Y0034205D01*
D02*
G37*
G36*
X00538826Y00353056D02*
X00522826D01*
Y00348605D01*
X00514165D01*
X0051319Y00348411D01*
X00512363Y00347858D01*
X00477027Y00312523D01*
X00464922D01*
Y00316724D01*
X00445922D01*
Y00303224D01*
X00464922D01*
Y00307425D01*
X00478083D01*
X00479058Y00307619D01*
X00479885Y00308172D01*
X00515221Y00343507D01*
X00522826D01*
Y00339056D01*
X00528277D01*
Y00334049D01*
X00528277Y00334049D01*
X00527011Y00332783D01*
X00526326Y00331129D01*
Y00329339D01*
X00527011Y00327685D01*
X00528277Y00326419D01*
X00529931Y00325734D01*
X00531721D01*
X00533375Y00326419D01*
X00534641Y00327685D01*
X00535326Y00329339D01*
Y00331129D01*
X00534641Y00332783D01*
X00533375Y00334049D01*
X00533375Y00334049D01*
Y00339056D01*
X00538826D01*
Y00353056D01*
D02*
G37*
G36*
X0074256Y0032935D02*
X0072556D01*
Y0031835D01*
X0074256D01*
Y0032935D01*
D02*
G37*
G36*
X00694569Y0035629D02*
X00692779D01*
X00691125Y00355605D01*
X00689859Y00354339D01*
X00689174Y00352685D01*
Y00350895D01*
X00689859Y00349241D01*
X00691125Y00347975D01*
X00691125Y00347975D01*
Y00337058D01*
X00691319Y00336082D01*
X00691872Y00335256D01*
X0071778Y00309348D01*
X00718606Y00308795D01*
X00719336Y0030865D01*
X00719188Y0030715D01*
X0071091D01*
Y0029015D01*
X0072191D01*
Y00307101D01*
X0072191Y0030715D01*
X00722028Y00308601D01*
X0072556D01*
Y0030565D01*
X0074256D01*
Y0031665D01*
X0072556D01*
Y00313699D01*
X00720638D01*
X00696223Y00338114D01*
Y00347975D01*
X00696223Y00347975D01*
X00697489Y00349241D01*
X00698174Y00350895D01*
Y00352685D01*
X00697489Y00354339D01*
X00696223Y00355605D01*
X00694569Y0035629D01*
D02*
G37*
G36*
X0070921Y0030715D02*
X0069821D01*
Y0029015D01*
X0070921D01*
Y0030715D01*
D02*
G37*
G36*
X0069651D02*
X0068551D01*
Y0029015D01*
X0069651D01*
Y0030715D01*
D02*
G37*
G36*
X00592461Y00328858D02*
X00590671D01*
X00589017Y00328173D01*
X00587751Y00326907D01*
X00587066Y00325253D01*
Y00323463D01*
X00587751Y00321809D01*
X00589017Y00320543D01*
X00590671Y00319858D01*
X00592461D01*
X00594115Y00320543D01*
X00595381Y00321809D01*
X00595381Y00321809D01*
X00603392D01*
X00604013Y00320309D01*
X00603499Y00319795D01*
X00602814Y00318141D01*
Y00316351D01*
X00603499Y00314697D01*
X00604765Y00313431D01*
X00606419Y00312746D01*
X00608209D01*
X00609863Y00313431D01*
X00610364Y00313932D01*
X00619724D01*
X00624961Y00308694D01*
Y0030715D01*
X0062201D01*
Y0029015D01*
X0063301D01*
Y0030715D01*
X00630059D01*
Y0030975D01*
X00629865Y00310725D01*
X00629312Y00311552D01*
X00622582Y00318283D01*
X00621755Y00318836D01*
X00620779Y0031903D01*
X00611446D01*
X00611129Y00319795D01*
X00610615Y00320309D01*
X00611236Y00321809D01*
X0062607D01*
X00637661Y00310218D01*
Y0030715D01*
X0063471D01*
Y0029015D01*
X0064571D01*
Y0030715D01*
X00642759D01*
Y00311274D01*
X00642565Y0031225D01*
X00642012Y00313076D01*
X00628928Y0032616D01*
X00628102Y00326713D01*
X00627126Y00326907D01*
X00595381D01*
X00595381Y00326907D01*
X00594115Y00328173D01*
X00592461Y00328858D01*
D02*
G37*
G36*
X0059491Y0030715D02*
X0058391D01*
Y0029015D01*
X0059491D01*
Y0030715D01*
D02*
G37*
G36*
X0058221D02*
X0057121D01*
Y0029015D01*
X0058221D01*
Y0030715D01*
D02*
G37*
G36*
X00592207Y00340542D02*
X00590417D01*
X00588763Y00339857D01*
X00587497Y00338591D01*
X00586812Y00336937D01*
Y00335147D01*
X00587497Y00333493D01*
X00588763Y00332227D01*
X00590417Y00331542D01*
X00592207D01*
X00593861Y00332227D01*
X00595127Y00333493D01*
X00595127Y00333493D01*
X00642862D01*
X00667819Y00308536D01*
X00667245Y0030715D01*
X0066011D01*
Y0029015D01*
X00663439D01*
Y00285028D01*
X00658755Y00280344D01*
X00658755Y00280344D01*
X00656965D01*
X00655941Y0027992D01*
X00654793Y00281068D01*
X00654994Y00281553D01*
Y00283343D01*
X00654677Y00284109D01*
X0065509Y00284522D01*
X00655643Y00285349D01*
X00655837Y00286324D01*
Y0029015D01*
X0065841D01*
Y0030715D01*
X0064741D01*
Y0029015D01*
X00650739D01*
Y0028738D01*
X00650307Y00286948D01*
X00649599D01*
X00647945Y00286263D01*
X00646679Y00284997D01*
X00645994Y00283343D01*
Y00281553D01*
X00646679Y00279899D01*
X00647945Y00278633D01*
X00649155Y00278132D01*
X00648856Y00276632D01*
X00637544D01*
Y00260632D01*
X00651544D01*
Y00266083D01*
X00654872D01*
X00660391Y00260564D01*
Y00198329D01*
X00617949D01*
X0061647Y0019838D01*
X0061647Y00199829D01*
X0061647Y0020318D01*
X0061647Y0020468D01*
X0061647Y0020818D01*
X0061647Y0020968D01*
X0061647Y0021318D01*
X0061647Y0021468D01*
Y0021818D01*
X0060657Y0021818D01*
X00606402Y00219611D01*
Y0022128D01*
X00606299Y0022153D01*
X0060672Y0022303D01*
X0060672Y00223371D01*
Y0023293D01*
X0060192Y0023293D01*
X00601869Y00234409D01*
Y00235044D01*
X00603036Y00236211D01*
X00619506D01*
X00626966Y00228751D01*
Y00218356D01*
X00642966D01*
Y00232356D01*
X00630571D01*
X00622364Y00240562D01*
X00621537Y00241115D01*
X00620562Y00241309D01*
X0060198D01*
X00601004Y00241115D01*
X00600178Y00240562D01*
X00597518Y00237902D01*
X00596965Y00237076D01*
X00596771Y002361D01*
Y00234409D01*
X0059672Y0023293D01*
X00595271Y0023293D01*
X0059192Y0023293D01*
X0059042Y0023293D01*
X0058692Y0023293D01*
X00586869Y00234409D01*
Y00237824D01*
X00592876Y00243831D01*
X0061468D01*
X00615656Y00244025D01*
X00616482Y00244578D01*
X00627346Y00255442D01*
X00627899Y00256269D01*
X00628093Y00257244D01*
Y00260632D01*
X00632544D01*
Y00276632D01*
X00628093D01*
Y00278696D01*
X00627899Y00279671D01*
X00627346Y00280498D01*
X00619195Y0028865D01*
X00619816Y0029015D01*
X0062031D01*
Y0030715D01*
X0060931D01*
Y0029015D01*
X00613284D01*
Y00288407D01*
X00613478Y00287432D01*
X0061403Y00286605D01*
X00622503Y00278132D01*
X00621882Y00276632D01*
X00618544D01*
Y00260632D01*
X00622995D01*
Y002583D01*
X00613624Y00248929D01*
X0059182D01*
X00590845Y00248735D01*
X00590018Y00248182D01*
X00583369Y00241534D01*
X00581869Y00242155D01*
Y00244324D01*
X0059524Y00257695D01*
X00595792Y00258522D01*
X00595986Y00259497D01*
Y0026124D01*
X0060136D01*
Y0027724D01*
X00597864D01*
X00597305Y0027874D01*
X00603912Y00285348D01*
X00604465Y00286175D01*
X00604659Y0028715D01*
Y0029015D01*
X0060761D01*
Y0030715D01*
X0059661D01*
Y0029015D01*
X00599561D01*
Y00288206D01*
X00592558Y00281202D01*
X00592005Y00280375D01*
X00591811Y002794D01*
Y0027724D01*
X0058736D01*
Y0026124D01*
X00589454D01*
X00590075Y0025974D01*
X00577518Y00247182D01*
X00576965Y00246355D01*
X00576771Y0024538D01*
Y0022798D01*
X0057692Y00227231D01*
Y00223371D01*
X0057692Y0022303D01*
X00577341Y0022153D01*
X00577238Y0022128D01*
Y00219611D01*
X0057707Y0021818D01*
X00575738Y0021818D01*
X0056717D01*
X0056717Y0021338D01*
X0056717Y0021188D01*
X0056717Y0020838D01*
X0056717Y0020688D01*
X0056717Y0020338D01*
X0056717Y0020188D01*
X0056717Y0019838D01*
X0056717Y0019688D01*
Y0019338D01*
X00575632D01*
X0057692Y0019338D01*
X0057692Y00192092D01*
Y0018363D01*
X0058172Y0018363D01*
X00581771Y00182151D01*
Y001805D01*
X00572238Y00170966D01*
X00571685Y0017014D01*
X00571491Y00169164D01*
Y00145836D01*
X0057106Y00145405D01*
X00569306D01*
Y00149856D01*
X00553306D01*
Y00146934D01*
X00545332D01*
Y00177567D01*
X00545332Y00177567D01*
X00545021Y00179127D01*
X00544137Y0018045D01*
X00544137Y00180451D01*
X00518504Y00206084D01*
X00517181Y00206968D01*
X0051562Y00207278D01*
X0051562Y00207278D01*
X00474353D01*
X00471969Y00209662D01*
X00472543Y00211048D01*
X00483816D01*
Y00216499D01*
X00496465D01*
X00496465Y00216499D01*
X00497731Y00215233D01*
X00499385Y00214548D01*
X00501175D01*
X00502829Y00215233D01*
X00504095Y00216499D01*
X0050478Y00218153D01*
Y00219943D01*
X00504095Y00221597D01*
X00502829Y00222863D01*
X00501175Y00223548D01*
X00499385D01*
X00497731Y00222863D01*
X00496465Y00221597D01*
X00496465Y00221597D01*
X00483816D01*
Y00227048D01*
X00474307D01*
X00473505Y00228548D01*
X0047353Y00228586D01*
X00512064D01*
X00512064Y00228586D01*
X00513625Y00228896D01*
X00514948Y0022978D01*
X00550329Y00265162D01*
X0056836D01*
Y0026124D01*
X0058236D01*
Y0027724D01*
X0056836D01*
Y00273318D01*
X0054864D01*
X0054864Y00273318D01*
X00547079Y00273008D01*
X00545756Y00272124D01*
X00545756Y00272124D01*
X00510375Y00236742D01*
X00470432D01*
X00470432Y00236742D01*
X00468871Y00236432D01*
X00467548Y00235548D01*
X00459048Y00227048D01*
X00456584D01*
X00448084Y00235548D01*
X00446761Y00236432D01*
X004452Y00236742D01*
X004452Y00236742D01*
X0041113D01*
X00409902Y00237398D01*
X00409902Y00238242D01*
Y00241829D01*
X00450904D01*
Y00238346D01*
X00464904D01*
Y00254346D01*
X00462958D01*
Y00263814D01*
X00464816D01*
Y00279814D01*
X00450816D01*
Y00263814D01*
X00452762D01*
Y00254346D01*
X00450904D01*
Y00248967D01*
X00409902D01*
Y00253398D01*
X00402971D01*
Y00255588D01*
X00402699Y00256954D01*
X00401925Y00258111D01*
X00391244Y00268793D01*
Y00279746D01*
X00377244D01*
Y00276844D01*
X00318804D01*
Y00279746D01*
X00304804D01*
Y00263746D01*
X00318804D01*
Y00266648D01*
X0037214D01*
X00372714Y00265262D01*
X0036883Y00261379D01*
X00365961D01*
X00364782Y00262557D01*
X00362945Y00263318D01*
X00360955D01*
X00359118Y00262557D01*
X00357711Y0026115D01*
X0035695Y00259313D01*
Y00257323D01*
X00357711Y00255486D01*
X00359118Y00254079D01*
X00360955Y00253318D01*
X00362945D01*
X00364782Y00254079D01*
X00364944Y00254241D01*
X00370308D01*
X00371674Y00254513D01*
X00372831Y00255287D01*
X00381291Y00263746D01*
X00386197D01*
X00395833Y0025411D01*
Y00248898D01*
X00395902Y00248553D01*
X00395902Y0023781D01*
X00395771Y00237409D01*
X00395449Y00236847D01*
X00394982Y00236279D01*
X00393888Y00235548D01*
X00385388Y00227048D01*
X00377156D01*
Y00223126D01*
X00373953D01*
X0033791Y0025917D01*
X00336587Y00260054D01*
X00335026Y00260364D01*
X00335026Y00260364D01*
X00297826D01*
X00297825Y00260364D01*
X00296265Y00260054D01*
X00294942Y0025917D01*
X00294942Y0025917D01*
X00291427Y00255655D01*
X00290543Y00254332D01*
X00290232Y00252771D01*
X00290232Y00252771D01*
Y00249146D01*
X00285208D01*
Y00233146D01*
X00288384D01*
Y00227048D01*
X00285716D01*
Y00223126D01*
X00278449D01*
X00266714Y00234861D01*
Y00266648D01*
X00285804D01*
Y00263746D01*
X00299804D01*
Y00279746D01*
X00285804D01*
Y00276844D01*
X0026311D01*
X00261159Y00276456D01*
X00259505Y00275351D01*
X00259031Y00274877D01*
X00258752Y00274459D01*
X00258397Y00274104D01*
X00258205Y0027364D01*
X00257926Y00273223D01*
X00257828Y0027273D01*
X00257636Y00272267D01*
Y00271765D01*
X00257538Y00271272D01*
X00257636Y00270779D01*
Y00270277D01*
X00257828Y00269814D01*
X00257926Y00269321D01*
X00258205Y00268904D01*
X00258397Y0026844D01*
X00258558Y00268279D01*
Y00233172D01*
X00258558Y00233172D01*
X00258868Y00231611D01*
X00259752Y00230288D01*
X00273876Y00216164D01*
X00273876Y00216164D01*
X00275199Y0021528D01*
X0027676Y0021497D01*
X00285716D01*
Y00211048D01*
X00299716D01*
Y00227048D01*
X0029654D01*
Y00233146D01*
X00299208D01*
Y00249146D01*
X00298389D01*
Y00251082D01*
X00299515Y00252208D01*
X00333337D01*
X0036938Y00216164D01*
X0036938Y00216164D01*
X00370703Y0021528D01*
X00372264Y0021497D01*
X00377156D01*
Y00211048D01*
X00391156D01*
Y0022128D01*
X0039477Y00224895D01*
X00396156Y00224321D01*
Y00211048D01*
X00400607D01*
Y00208604D01*
X00398159Y00206155D01*
X00391372D01*
X00390397Y00205961D01*
X0038957Y00205409D01*
X00384418Y00200257D01*
X00383865Y0019943D01*
X00383743Y00198817D01*
X00382794Y00198345D01*
X00382171Y00198268D01*
X0033749Y00242948D01*
X00336664Y00243501D01*
X00335688Y00243695D01*
X00318208D01*
Y00249146D01*
X00304208D01*
Y00233146D01*
X00318208D01*
Y00238597D01*
X00334632D01*
X00350132Y00223097D01*
X00349511Y00221597D01*
X00318716D01*
Y00227048D01*
X00304716D01*
Y00211048D01*
X00318716D01*
Y00216499D01*
X00349364D01*
X00371637Y00194226D01*
X00371063Y0019284D01*
X0036872Y0019284D01*
X0036722Y0019284D01*
X0036372D01*
Y0017524D01*
X0036852Y0017524D01*
X0037002Y0017524D01*
X0037352D01*
X0037352Y0017524D01*
X0037372D01*
Y0017524D01*
X0037502Y0017524D01*
X0037852D01*
Y0017524D01*
X0037872D01*
Y0017524D01*
X0038352Y0017524D01*
X0038502Y0017524D01*
X0038722D01*
X0038852Y0017524D01*
Y0017524D01*
X0038872D01*
X0038872Y0017524D01*
X0039352Y0017524D01*
X0039502Y0017524D01*
X0039852Y0017524D01*
X0040002Y0017524D01*
X0040352Y0017524D01*
X0040502Y0017524D01*
X0040852Y0017524D01*
X0041002Y0017524D01*
X0041352Y0017524D01*
X0041502Y0017524D01*
X0041852D01*
Y00183291D01*
X00418669Y0018404D01*
Y00197113D01*
X00421018Y00199462D01*
X00422535D01*
X00424189Y00200147D01*
X00425455Y00201413D01*
X0042614Y00203067D01*
Y00204857D01*
X00425455Y00206511D01*
X00424189Y00207777D01*
X00422535Y00208462D01*
X00420745D01*
X00419091Y00207777D01*
X00417825Y00206511D01*
X0041714Y00204857D01*
Y00203067D01*
X0041722Y00202873D01*
X00414318Y00199971D01*
X00413765Y00199144D01*
X00413571Y00198168D01*
Y00194319D01*
X0041352Y0019284D01*
X00412071Y0019284D01*
X0040872Y0019284D01*
X0040722Y0019284D01*
X0040372Y0019284D01*
X0040222Y0019284D01*
X0039872Y0019284D01*
X0039722Y0019284D01*
X0039372Y0019284D01*
X0039222Y0019284D01*
X00388769D01*
Y00197399D01*
X00392428Y00201057D01*
X00399214D01*
X0040019Y00201251D01*
X00401017Y00201804D01*
X00404958Y00205746D01*
X00405511Y00206573D01*
X00405705Y00207548D01*
Y00211048D01*
X00410156D01*
Y00227048D01*
X00400647D01*
X00399845Y00228548D01*
X0039987Y00228586D01*
X00443511D01*
X00450816Y0022128D01*
Y00211048D01*
X00459048D01*
X0046978Y00200316D01*
X0046978Y00200316D01*
X00471103Y00199432D01*
X00472664Y00199122D01*
X00472664Y00199122D01*
X00513931D01*
X00537175Y00175877D01*
Y00143239D01*
X00537175Y00143239D01*
X00537485Y00141678D01*
X00538369Y00140355D01*
X00538752Y00139972D01*
X00538752Y00139972D01*
X00539087Y00139748D01*
Y00097684D01*
X00533106Y00091703D01*
X00528321D01*
X00526888Y00091864D01*
X00526888Y00093203D01*
Y00105864D01*
X00521437D01*
Y00128324D01*
X00526768D01*
Y00142324D01*
X00510768D01*
Y00137873D01*
X00506164D01*
X00505189Y00137679D01*
X00504362Y00137126D01*
X0049456Y00127325D01*
X0049306Y00127375D01*
Y0013674D01*
X0046706D01*
Y00127289D01*
X00463564D01*
X00449352Y00141501D01*
X00449305Y00141557D01*
X00449214Y00141807D01*
X00449225Y0014336D01*
X00463056Y00157191D01*
X0046706D01*
Y0014774D01*
X0049306D01*
Y00157191D01*
X00497064D01*
X00501734Y00152522D01*
X00502561Y00151969D01*
X00503536Y00151775D01*
X00510768D01*
Y00147324D01*
X00526768D01*
Y00161324D01*
X00521317D01*
Y0017008D01*
X00521123Y00171056D01*
X0052057Y00171882D01*
X00508156Y00184296D01*
X00507329Y00184849D01*
X00506354Y00185043D01*
X00483816D01*
Y00195994D01*
X00469816D01*
Y00179994D01*
X0048107D01*
X00481316Y00179945D01*
X00505298D01*
X00516219Y00169024D01*
Y00161324D01*
X00510768D01*
Y00156873D01*
X00504592D01*
X00499922Y00161542D01*
X00499095Y00162095D01*
X0049812Y00162289D01*
X0049306D01*
Y0017174D01*
X0046706D01*
Y00162289D01*
X00462D01*
X00461025Y00162095D01*
X00460198Y00161542D01*
X00445944Y00147289D01*
X00440699D01*
X0043922Y0014734D01*
Y0015214D01*
X0043922D01*
Y0015234D01*
X0043922D01*
Y0015714D01*
X0043922D01*
Y0015734D01*
X0043922D01*
Y0016214D01*
X0043922D01*
Y0016234D01*
X0043922D01*
Y0016714D01*
X00440699Y00167191D01*
X00445579D01*
X00445579Y00167191D01*
X00446845Y00165925D01*
X00448499Y0016524D01*
X00450289D01*
X00451943Y00165925D01*
X00453209Y00167191D01*
X00453894Y00168845D01*
Y00170635D01*
X00453209Y00172289D01*
X00451943Y00173555D01*
X00450289Y0017424D01*
X00448499D01*
X00446845Y00173555D01*
X00445579Y00172289D01*
X00445579Y00172289D01*
X0043042D01*
X00429671Y0017214D01*
X0042162D01*
Y0016734D01*
X00420141Y00167289D01*
X00419058D01*
X0041852Y00167827D01*
Y00168535D01*
X00417835Y00170189D01*
X00416569Y00171455D01*
X00414915Y0017214D01*
X00413125D01*
X00411471Y00171455D01*
X00410205Y00170189D01*
X0040952Y00168535D01*
Y00167762D01*
X0040802Y0016676D01*
X00407295Y0016706D01*
X00405505D01*
X00403851Y00166375D01*
X00402585Y00165109D01*
X004019Y00163455D01*
Y00161665D01*
X00402585Y00160011D01*
X00403851Y00158745D01*
X0040496Y00158286D01*
Y00156674D01*
X00403851Y00156215D01*
X00402585Y00154949D01*
X004019Y00153295D01*
Y00151505D01*
X00402585Y00149851D01*
X00403851Y00148585D01*
X00405505Y001479D01*
X00406278D01*
X0040728Y001464D01*
X0040698Y00145675D01*
Y00143885D01*
X00407665Y00142231D01*
X00408931Y00140965D01*
X00410585Y0014028D01*
X00412375D01*
X00414029Y00140965D01*
X00415295Y00142231D01*
X0041598Y00143885D01*
Y00144593D01*
X00418578Y00147191D01*
X00420141D01*
X0042162Y0014714D01*
Y0014234D01*
X0042162D01*
Y0014214D01*
X0042162D01*
Y0013734D01*
X00429671D01*
X0043042Y00137191D01*
X00446452D01*
X00460706Y00122938D01*
X00461533Y00122385D01*
X00462508Y00122191D01*
X0046706D01*
Y00113722D01*
X0046556Y00113101D01*
X00447118Y00131542D01*
X00446292Y00132095D01*
X00445316Y00132289D01*
X0043042D01*
X00429671Y0013214D01*
X0042162D01*
Y0012734D01*
X0042162D01*
Y0012714D01*
X0042162D01*
Y0012364D01*
X0042162Y0012234D01*
X0042162D01*
Y0012214D01*
X0042162Y0012214D01*
X0042162Y0011734D01*
X0042162Y0011584D01*
Y0011234D01*
X00429671D01*
X0043042Y00112191D01*
X0044021D01*
X00472431Y0007997D01*
Y00065064D01*
X00464018Y00056651D01*
X00371388D01*
X00367435Y00060604D01*
X00368056Y00062104D01*
X00371236D01*
Y00078104D01*
X00357236D01*
Y00062104D01*
X00361687D01*
Y00060198D01*
X00361881Y00059222D01*
X00362434Y00058396D01*
X0036853Y000523D01*
X00369356Y00051747D01*
X00370332Y00051553D01*
X00465074D01*
X00466049Y00051747D01*
X00466876Y000523D01*
X00476782Y00062206D01*
X00477335Y00063032D01*
X00477529Y00064008D01*
Y00081026D01*
X00477335Y00082001D01*
X00476782Y00082828D01*
X00443068Y00116542D01*
X00442242Y00117095D01*
X00441266Y00117289D01*
X00440699D01*
X0043922Y0011734D01*
X0043922Y00120712D01*
X0044072Y00121333D01*
X00480813Y0008124D01*
Y00063032D01*
X00453858Y00036077D01*
X00318375D01*
X0031792Y00037577D01*
X00318286Y00037822D01*
X00335304Y0005484D01*
X00335857Y00055666D01*
X00336051Y00056642D01*
Y00119396D01*
X0033652Y00119717D01*
X0033802Y00118925D01*
X0033802Y0011734D01*
X0033802Y0011584D01*
Y0011234D01*
X0035562D01*
X0035562Y0011714D01*
X00357057Y00117291D01*
X00358346D01*
X00359322Y00117485D01*
X00360148Y00118038D01*
X00364514Y00122404D01*
X00365067Y0012323D01*
X00365261Y00124206D01*
Y00130155D01*
X00366761Y00130776D01*
X00368571Y00128966D01*
Y0010044D01*
X00368671Y00099937D01*
Y00088266D01*
X00368865Y00087291D01*
X00369418Y00086464D01*
X00371324Y00084558D01*
X00372151Y00084005D01*
X00373126Y00083811D01*
X00379363D01*
X00380338Y00084005D01*
X00381165Y00084558D01*
X00382922Y00086315D01*
X00383475Y00087142D01*
X00383669Y00088117D01*
Y00090161D01*
X0038372Y0009164D01*
X0038852D01*
Y0010924D01*
X00385891D01*
X00385215Y00110737D01*
X00385804Y00111497D01*
X00396008D01*
X00396597Y00110737D01*
X00395921Y0010924D01*
X0039372D01*
Y00101189D01*
X00393571Y0010044D01*
Y00077562D01*
X0038715D01*
Y00061562D01*
X0040115D01*
Y00077562D01*
X00398669D01*
Y00090161D01*
X0039872Y0009164D01*
X0040352D01*
X00403671Y00090203D01*
Y00086286D01*
X00403865Y0008531D01*
X00404418Y00084484D01*
X00406362Y00082539D01*
X00407189Y00081986D01*
X00408165Y00081792D01*
X00426813D01*
X00433632Y00074973D01*
Y00062578D01*
X00447632D01*
Y00078578D01*
X00437237D01*
X00429671Y00086144D01*
X00428844Y00086696D01*
X00427869Y0008689D01*
X00409221D01*
X00408769Y00087342D01*
Y00090579D01*
X0040983Y0009164D01*
X0041352Y0009164D01*
X0041502Y0009164D01*
X0041852D01*
Y0010924D01*
X0041372Y0010924D01*
X0041222Y0010924D01*
X0040872D01*
X0040872Y0010924D01*
X0040852D01*
Y0010924D01*
X0040722Y0010924D01*
X0040372D01*
X00403569Y00110536D01*
X00403375Y00111511D01*
X00402822Y00112338D01*
X00399312Y00115848D01*
X00398485Y00116401D01*
X0039751Y00116595D01*
X00384302D01*
X00383326Y00116401D01*
X003825Y00115848D01*
X00379418Y00112766D01*
X00378865Y00111939D01*
X00378671Y00110964D01*
Y00100943D01*
X00378571Y0010044D01*
Y00089173D01*
X00378307Y00088909D01*
X00374182D01*
X00373769Y00089322D01*
Y0010034D01*
X00373669Y00100843D01*
Y00130022D01*
X00373475Y00130997D01*
X00372922Y00131824D01*
X00368204Y00136542D01*
X00367378Y00137095D01*
X00366402Y00137289D01*
X00365261D01*
Y00147061D01*
X00365261Y00147061D01*
X00366527Y00148327D01*
X00367212Y00149981D01*
Y00151771D01*
X00366527Y00153425D01*
X00365261Y00154691D01*
X00363607Y00155376D01*
X00361817D01*
X00361817Y00155376D01*
X0036065Y00156542D01*
X00359823Y00157095D01*
X00358848Y00157289D01*
X0034682D01*
X00346071Y0015714D01*
X0033802D01*
X0033802Y0015234D01*
X00336836Y00151577D01*
X00328249D01*
X00327373Y00151403D01*
X00326631Y00150907D01*
X00316611Y00140887D01*
X00316115Y00140144D01*
X00315941Y00139269D01*
Y0010014D01*
X00313612Y00097811D01*
X00312112Y00098433D01*
Y00113256D01*
X00308619D01*
Y00116581D01*
X00308619Y00116581D01*
X00309885Y00117847D01*
X0031057Y00119501D01*
Y00121291D01*
X00309885Y00122945D01*
X00308619Y00124211D01*
X00306965Y00124896D01*
X00305175D01*
X00303521Y00124211D01*
X00302255Y00122945D01*
X0030157Y00121291D01*
Y00119501D01*
X00302255Y00117847D01*
X00303521Y00116581D01*
X00303521Y00116581D01*
Y00113256D01*
X00298112D01*
Y00098034D01*
X00298112Y00097256D01*
X00296911Y00096534D01*
X00294313D01*
X00293112Y00097256D01*
Y00113256D01*
X00279112D01*
Y00100722D01*
X00279068Y001005D01*
Y00096861D01*
X00278951Y00096744D01*
X00273693D01*
X00273575Y00096861D01*
Y00111697D01*
X00273401Y00112573D01*
X00272905Y00113315D01*
X00243599Y00142621D01*
X00242857Y00143117D01*
X00241981Y00143291D01*
X00179838D01*
X0016462Y0015851D01*
X00163878Y00159006D01*
X00163002Y0015918D01*
X00155919D01*
X00155593Y00159641D01*
X0015632Y00160798D01*
X0015649Y0016097D01*
X00158532D01*
X00160564Y00161514D01*
X00162386Y00162566D01*
X00163874Y00164054D01*
X00164925Y00165876D01*
X0016547Y00167908D01*
Y00170012D01*
X00164925Y00172044D01*
X00163874Y00173866D01*
X00162386Y00175354D01*
X00160564Y00176406D01*
X00158532Y0017695D01*
X00156428D01*
X00155961Y00176825D01*
X00154047Y00178738D01*
X00153876Y00179601D01*
X0015338Y00180344D01*
X00150549Y00183174D01*
X00149807Y0018367D01*
X00148931Y00183844D01*
X00147665D01*
X00146687Y00184263D01*
X00146255Y00185252D01*
Y00195173D01*
X00146081Y00196049D01*
X00145585Y00196791D01*
X00139114Y00203263D01*
X00139525Y00203976D01*
X0014007Y00206008D01*
Y00207518D01*
X00141551Y00208159D01*
X00147733Y00201976D01*
X00148476Y0020148D01*
X00149351Y00201306D01*
X00151005D01*
X00151627Y00199806D01*
X00151086Y00199266D01*
X00150035Y00197444D01*
X0014949Y00195412D01*
Y00193308D01*
X00150035Y00191276D01*
X00151086Y00189454D01*
X00152574Y00187966D01*
X00154396Y00186915D01*
X00156428Y0018637D01*
X00158532D01*
X00160564Y00186915D01*
X00162386Y00187966D01*
X00163874Y00189454D01*
X00164925Y00191276D01*
X0016547Y00193308D01*
Y00194072D01*
X0016697Y00194693D01*
X00211934Y0014973D01*
X00212676Y00149234D01*
X00213552Y00149059D01*
X00277337D01*
X002788Y0014897D01*
Y0013297D01*
X00291566D01*
X00292121Y0013297D01*
X00292955Y00131534D01*
X00292796Y00131297D01*
X00292602Y00130321D01*
Y00127322D01*
X00291837Y00127005D01*
X00290571Y00125739D01*
X00289886Y00124085D01*
Y00122295D01*
X00290571Y00120641D01*
X00291837Y00119375D01*
X00293491Y0011869D01*
X00295281D01*
X00296935Y00119375D01*
X00298201Y00120641D01*
X00298886Y00122295D01*
Y00124085D01*
X00298201Y00125739D01*
X002977Y0012624D01*
Y00129266D01*
X00301405Y0013297D01*
X003118D01*
Y00148404D01*
X00313252D01*
X00314128Y00148578D01*
X0031487Y00149074D01*
X00328699Y00162903D01*
X0033802D01*
Y0016234D01*
X0035562D01*
Y0016714D01*
X0035562D01*
Y0016734D01*
X0035562D01*
Y0017214D01*
X0033802D01*
Y00171577D01*
X00327255D01*
X00326957Y00173077D01*
X00327923Y00173477D01*
X00329189Y00174743D01*
X00329874Y00176397D01*
Y00178187D01*
X00329189Y00179841D01*
X00327923Y00181107D01*
X00326269Y00181792D01*
X00324479D01*
X00322825Y00181107D01*
X00321559Y00179841D01*
X00321559Y00179841D01*
X00259882D01*
X00238153Y0020157D01*
Y00217452D01*
X00242604D01*
Y00233452D01*
X00228604D01*
Y00217452D01*
X00233055D01*
Y00200514D01*
X00233249Y00199539D01*
X00233802Y00198712D01*
X00257024Y0017549D01*
X00257851Y00174937D01*
X00258826Y00174743D01*
X00277852D01*
X00278946Y00173762D01*
Y00157762D01*
X00277458Y00157733D01*
X00216197D01*
X0016462Y0020931D01*
X00163878Y00209806D01*
X00163002Y0020998D01*
X00151996D01*
X00146004Y00215972D01*
X00146626Y00217472D01*
X00149821D01*
X00150035Y00216676D01*
X00151086Y00214854D01*
X00152574Y00213366D01*
X00154396Y00212314D01*
X00156428Y0021177D01*
X00158532D01*
X00160564Y00212314D01*
X00162386Y00213366D01*
X00163874Y00214854D01*
X00164925Y00216676D01*
X0016547Y00218708D01*
Y00220812D01*
X00164925Y00222844D01*
X00163874Y00224666D01*
X00162386Y00226154D01*
X00160564Y00227206D01*
X00158532Y0022775D01*
X00156428D01*
X00154396Y00227206D01*
X00152574Y00226154D01*
X00151086Y00224666D01*
X00150035Y00222844D01*
X00149821Y00222048D01*
X00143957D01*
X00142729Y00223305D01*
Y00224099D01*
X00142555Y00224975D01*
X00142059Y00225717D01*
X0014007Y00227706D01*
Y0024045D01*
X0012409D01*
Y0022447D01*
X00136834D01*
X00138152Y00223151D01*
Y00222985D01*
X00136784Y00221617D01*
X00136288Y00220875D01*
X00136114Y00219999D01*
Y00215689D01*
X00135865Y00215379D01*
X00134614Y00214653D01*
X00133132Y0021505D01*
X00131028D01*
X00128996Y00214506D01*
X00127174Y00213454D01*
X00125686Y00211966D01*
X00124635Y00210144D01*
X0012409Y00208112D01*
Y00206008D01*
X00124635Y00203976D01*
X00125686Y00202154D01*
X00127174Y00200666D01*
X00128996Y00199615D01*
X00131028Y0019907D01*
X00133132D01*
X00135164Y00199615D01*
X00135877Y00200026D01*
X00141678Y00194225D01*
Y00185834D01*
X00140709Y00185038D01*
X00139159Y00185378D01*
X00138474Y00186566D01*
X00136986Y00188054D01*
X00135164Y00189105D01*
X00133132Y0018965D01*
X00131028D01*
X00128996Y00189105D01*
X00127174Y00188054D01*
X00125686Y00186566D01*
X00124635Y00184744D01*
X0012409Y00182712D01*
Y00180608D01*
X00124635Y00178576D01*
X00124911Y00178096D01*
X00120788Y00173972D01*
X00120235Y00173146D01*
X00120041Y0017217D01*
Y00148174D01*
X00120235Y00147198D01*
X00120788Y00146372D01*
X00151902Y00115258D01*
X00152729Y00114705D01*
X00153704Y00114511D01*
X00208334D01*
Y0010906D01*
X00222334D01*
Y0012506D01*
X00208334D01*
Y00119609D01*
X0015476D01*
X00125898Y00148471D01*
X00125989Y0014893D01*
X00126304Y00149179D01*
X0012765Y00149592D01*
X00128996Y00148814D01*
X00131028Y0014827D01*
X00133132D01*
X00135164Y00148814D01*
X00136986Y00149866D01*
X00138474Y00151354D01*
X00139525Y00153176D01*
X0014007Y00155208D01*
Y00157312D01*
X00139525Y00159344D01*
X00138474Y00161166D01*
X00136986Y00162654D01*
X00135164Y00163706D01*
X00133132Y0016425D01*
X00131028D01*
X00128996Y00163706D01*
X00127174Y00162654D01*
X00126639Y00162118D01*
X00125139Y0016274D01*
Y00171114D01*
X00128516Y00174492D01*
X00128996Y00174214D01*
X00131028Y0017367D01*
X00133132D01*
X00135164Y00174214D01*
X00136986Y00175266D01*
X00137526Y00175807D01*
X00139026Y00175185D01*
Y00164167D01*
X001392Y00163291D01*
X00139696Y00162549D01*
X00151068Y00151176D01*
X00151811Y0015068D01*
X00152687Y00150506D01*
X00160357D01*
X00175575Y00135288D01*
X00176318Y00134792D01*
X00177193Y00134618D01*
X00239336D01*
X00264902Y00109052D01*
Y00094217D01*
X00265076Y00093341D01*
X00265572Y00092598D01*
X0026943Y00088741D01*
X00270172Y00088244D01*
X00271048Y0008807D01*
X00277403D01*
X00278604Y00087348D01*
Y00071348D01*
X00291188D01*
X0029151Y00070929D01*
X00291871Y00069848D01*
X0029129Y00069097D01*
X00264962D01*
X00247552Y00086506D01*
X00246726Y00087059D01*
X0024575Y00087253D01*
X00241754D01*
Y00098204D01*
X00227754D01*
Y00082204D01*
X00239008D01*
X00239254Y00082155D01*
X00244694D01*
X00262104Y00064746D01*
X00262931Y00064193D01*
X00263906Y00063999D01*
X00292804D01*
X00293779Y00064193D01*
X00294606Y00064746D01*
X00301209Y00071348D01*
X00311604D01*
Y00076799D01*
X00315871D01*
X00315871Y00076799D01*
X00317137Y00075533D01*
X00318791Y00074848D01*
X00320581D01*
X00322235Y00075533D01*
X00323501Y00076799D01*
X00324186Y00078453D01*
Y00080243D01*
X00323501Y00081897D01*
X00322235Y00083163D01*
X00320581Y00083848D01*
X00318791D01*
X00317137Y00083163D01*
X00315871Y00081897D01*
X00315871Y00081897D01*
X00311604D01*
X00311604Y00087348D01*
X00312892Y0008786D01*
X00314979D01*
X00315855Y00088034D01*
X00316597Y0008853D01*
X00323944Y00095877D01*
X0032444Y00096619D01*
X00324614Y00097495D01*
Y00136624D01*
X00330894Y00142903D01*
X00336836D01*
X0033802Y0014214D01*
X0033802Y0014084D01*
X0033802Y0013734D01*
X0033802Y0013584D01*
Y0013234D01*
X0035213D01*
X00352145Y0013233D01*
X0035312Y00132136D01*
X00358303D01*
X00358578Y00132191D01*
X00360163D01*
Y00125262D01*
X0035729Y00122389D01*
X0035562D01*
Y0012714D01*
X00347569D01*
X0034682Y00127289D01*
X0033683D01*
X00335854Y00127095D01*
X00335028Y00126542D01*
X003317Y00123214D01*
X00331147Y00122388D01*
X00330953Y00121412D01*
Y00057698D01*
X00315428Y00042173D01*
X00290108D01*
X00288595Y00043686D01*
X0028886Y00045186D01*
X00292858D01*
Y00061186D01*
X00278858D01*
Y00045186D01*
X00283309D01*
Y00042818D01*
X00283503Y00041842D01*
X00284056Y00041016D01*
X0028725Y00037822D01*
X00287616Y00037577D01*
X00287161Y00036077D01*
X00264358D01*
X00240992Y00059443D01*
Y00070838D01*
X00226992D01*
Y00054838D01*
X00238387D01*
X002615Y00031726D01*
X00262327Y00031173D01*
X00263302Y00030979D01*
X00454914D01*
X0045589Y00031173D01*
X00456716Y00031726D01*
X00485164Y00060174D01*
X00485717Y00061D01*
X00485911Y00061976D01*
Y00082296D01*
X00485717Y00083272D01*
X00485164Y00084098D01*
X00444811Y00124452D01*
X00445305Y00126079D01*
X00445361Y0012609D01*
X004841Y00087352D01*
X00484926Y00086799D01*
X00485902Y00086605D01*
X00534162D01*
X00535137Y00086799D01*
X00535964Y00087352D01*
X00543438Y00094826D01*
X00543991Y00095653D01*
X00544185Y00096628D01*
Y00138778D01*
X00553306D01*
Y00135856D01*
X00558188D01*
Y00117815D01*
X00558188Y00117815D01*
X00558499Y00116254D01*
X00559383Y00114931D01*
X00562897Y00111416D01*
X00562897Y00111416D01*
X00564221Y00110532D01*
X00565781Y00110222D01*
X00565781Y00110222D01*
X00637547D01*
X00637547Y00110222D01*
X00639108Y00110532D01*
X00640431Y00111416D01*
X00643946Y00114931D01*
X00643946Y00114931D01*
X0064483Y00116254D01*
X0064514Y00117815D01*
X0064514Y00117815D01*
Y00136618D01*
X00649062D01*
Y00148013D01*
X00664742Y00163694D01*
X00665295Y0016452D01*
X00665489Y00165496D01*
Y00196088D01*
Y0026162D01*
X00665295Y00262596D01*
X00664742Y00263422D01*
X00658321Y00269844D01*
X00658587Y00270763D01*
X00658887Y00271399D01*
X00660409Y00272029D01*
X00661675Y00273295D01*
X0066236Y00274949D01*
Y00276739D01*
X0066236Y00276739D01*
X0066779Y0028217D01*
X00668343Y00282997D01*
X00668537Y00283972D01*
Y0029015D01*
X0067111D01*
Y00301698D01*
X0067261Y003025D01*
X0067281Y00302366D01*
Y0029015D01*
X0068381D01*
Y0030715D01*
X00676415D01*
X0064572Y00337844D01*
X00644893Y00338397D01*
X00643918Y00338591D01*
X00595127D01*
X00595127Y00338591D01*
X00593861Y00339857D01*
X00592207Y00340542D01*
D02*
G37*
G36*
X00100821Y00278635D02*
X00097339D01*
X00093975Y00277734D01*
X0009096Y00275993D01*
X00088497Y0027353D01*
X00086756Y00270515D01*
X00085855Y00267151D01*
Y00263669D01*
X00086756Y00260305D01*
X00088497Y0025729D01*
X0009096Y00254827D01*
X00093975Y00253086D01*
X00097339Y00252185D01*
X00100821D01*
X00104185Y00253086D01*
X001072Y00254827D01*
X00109663Y0025729D01*
X00111404Y00260305D01*
X00112305Y00263669D01*
Y00267151D01*
X00111404Y00270515D01*
X00109663Y0027353D01*
X001072Y00275993D01*
X00104185Y00277734D01*
X00100821Y00278635D01*
D02*
G37*
G36*
X00740325Y0026046D02*
X00737955D01*
X00735666Y00259847D01*
X00733614Y00258662D01*
X00731938Y00256986D01*
X00730753Y00254934D01*
X0073014Y00252645D01*
Y00250275D01*
X00730753Y00247986D01*
X00731938Y00245934D01*
X00733614Y00244258D01*
X00735666Y00243073D01*
X00737955Y0024246D01*
X00740325D01*
X00742614Y00243073D01*
X00744666Y00244258D01*
X00746342Y00245934D01*
X00747527Y00247986D01*
X0074814Y00250275D01*
Y00252645D01*
X00747527Y00254934D01*
X00746342Y00256986D01*
X00744666Y00258662D01*
X00742614Y00259847D01*
X00740325Y0026046D01*
D02*
G37*
G36*
X00070279Y0026236D02*
X00066881D01*
X00063548Y00261697D01*
X00060409Y00260397D01*
X00057584Y00258509D01*
X00055181Y00256106D01*
X00053293Y00253281D01*
X00051993Y00250142D01*
X0005133Y00246809D01*
Y00243411D01*
X00051993Y00240078D01*
X00053293Y00236939D01*
X00055181Y00234114D01*
X00057584Y00231711D01*
X00060409Y00229823D01*
X00063548Y00228523D01*
X00066881Y0022786D01*
X00070279D01*
X00073612Y00228523D01*
X00076751Y00229823D01*
X00079576Y00231711D01*
X00081979Y00234114D01*
X00083867Y00236939D01*
X00085167Y00240078D01*
X0008583Y00243411D01*
Y00246809D01*
X00085167Y00250142D01*
X00083867Y00253281D01*
X00081979Y00256106D01*
X00079576Y00258509D01*
X00076751Y00260397D01*
X00073612Y00261697D01*
X00070279Y0026236D01*
D02*
G37*
G36*
X00020719Y0023746D02*
X00018441D01*
X00016241Y0023687D01*
X00014269Y00235732D01*
X00012658Y00234121D01*
X0001152Y00232149D01*
X0001093Y00229949D01*
Y00227671D01*
X0001152Y00225471D01*
X00012658Y00223499D01*
X00014269Y00221888D01*
X00016241Y00220749D01*
X00018441Y0022016D01*
X00020719D01*
X00022919Y00220749D01*
X00024891Y00221888D01*
X00026502Y00223499D01*
X00027641Y00225471D01*
X0002823Y00227671D01*
Y00229949D01*
X00027641Y00232149D01*
X00026502Y00234121D01*
X00024891Y00235732D01*
X00022919Y0023687D01*
X00020719Y0023746D01*
D02*
G37*
G36*
X00740325Y0023506D02*
X00737955D01*
X00735666Y00234447D01*
X00733614Y00233262D01*
X00731938Y00231586D01*
X00730753Y00229534D01*
X0073014Y00227245D01*
Y00224875D01*
X00730753Y00222586D01*
X00731938Y00220534D01*
X00733614Y00218858D01*
X00735666Y00217673D01*
X00737955Y0021706D01*
X00740325D01*
X00742614Y00217673D01*
X00744666Y00218858D01*
X00746342Y00220534D01*
X00747527Y00222586D01*
X0074814Y00224875D01*
Y00227245D01*
X00747527Y00229534D01*
X00746342Y00231586D01*
X00744666Y00233262D01*
X00742614Y00234447D01*
X00740325Y0023506D01*
D02*
G37*
G36*
Y0020966D02*
X00737955D01*
X00735666Y00209047D01*
X00733614Y00207862D01*
X00731938Y00206186D01*
X00730753Y00204134D01*
X0073014Y00201845D01*
Y00199475D01*
X00730753Y00197186D01*
X00731938Y00195134D01*
X00733614Y00193458D01*
X00735666Y00192273D01*
X00737955Y0019166D01*
X00740325D01*
X00742614Y00192273D01*
X00744666Y00193458D01*
X00746342Y00195134D01*
X00747527Y00197186D01*
X0074814Y00199475D01*
Y00201845D01*
X00747527Y00204134D01*
X00746342Y00206186D01*
X00744666Y00207862D01*
X00742614Y00209047D01*
X00740325Y0020966D01*
D02*
G37*
G36*
X0024384Y00248929D02*
X0022098D01*
X00220005Y00248735D01*
X00219178Y00248182D01*
X00214802Y00243806D01*
X00214249Y0024298D01*
X00214055Y00242004D01*
Y00233452D01*
X00209604D01*
Y00228609D01*
X00199395D01*
X00199395Y00228609D01*
X00198129Y00229875D01*
X00196475Y0023056D01*
X00194685D01*
X00193031Y00229875D01*
X00191765Y00228609D01*
X0019108Y00226955D01*
Y00225165D01*
X00191765Y00223511D01*
X00193031Y00222245D01*
X00194685Y0022156D01*
X00196475D01*
X00198129Y00222245D01*
X00199395Y00223511D01*
X00199395Y00223511D01*
X00209604D01*
Y00217452D01*
X00223604D01*
Y00233452D01*
X00219153D01*
Y00240948D01*
X00222036Y00243831D01*
X00242784D01*
X00251451Y00235164D01*
Y0021336D01*
X00251645Y00212384D01*
X00252198Y00211558D01*
X00270012Y00193744D01*
X00270839Y00193191D01*
X00271814Y00192997D01*
X00285804D01*
Y00187546D01*
X00299804D01*
Y00203546D01*
X00285804D01*
Y00198095D01*
X0027287D01*
X00256549Y00214416D01*
Y0023622D01*
X00256355Y00237195D01*
X00255802Y00238022D01*
X00245642Y00248182D01*
X00244816Y00248735D01*
X0024384Y00248929D01*
D02*
G37*
G36*
X00740325Y0018426D02*
X00737955D01*
X00735666Y00183647D01*
X00733614Y00182462D01*
X00731938Y00180786D01*
X00730753Y00178734D01*
X0073014Y00176445D01*
Y00174075D01*
X00730753Y00171786D01*
X00731938Y00169734D01*
X00733614Y00168058D01*
X00735666Y00166873D01*
X00737955Y0016626D01*
X00740325D01*
X00742614Y00166873D01*
X00744666Y00168058D01*
X00746342Y00169734D01*
X00747527Y00171786D01*
X0074814Y00174075D01*
Y00176445D01*
X00747527Y00178734D01*
X00746342Y00180786D01*
X00744666Y00182462D01*
X00742614Y00183647D01*
X00740325Y0018426D01*
D02*
G37*
G36*
X0074814Y0015886D02*
X0073014D01*
Y0014086D01*
X0074814D01*
Y0015886D01*
D02*
G37*
G36*
X00020719Y0015576D02*
X00018441D01*
X00016241Y0015517D01*
X00014269Y00154032D01*
X00012658Y00152421D01*
X0001152Y00150449D01*
X0001093Y00148249D01*
Y00145971D01*
X0001152Y00143771D01*
X00011928Y00143063D01*
X00004294Y00135428D01*
X00003741Y00134601D01*
X00003547Y00133626D01*
Y00088392D01*
X00003741Y00087416D01*
X00004294Y0008659D01*
X00029848Y00061036D01*
X00030675Y00060483D01*
X0003165Y00060289D01*
X00207992D01*
Y00054838D01*
X00221992D01*
Y00070838D01*
X00207992D01*
Y00065387D01*
X00032706D01*
X00008645Y00089448D01*
Y0013257D01*
X00015533Y00139458D01*
X00016241Y0013905D01*
X00018441Y0013846D01*
X00020719D01*
X00022919Y0013905D01*
X00024891Y00140188D01*
X00026502Y00141799D01*
X00027641Y00143771D01*
X0002823Y00145971D01*
Y00148249D01*
X00027641Y00150449D01*
X00026502Y00152421D01*
X00024891Y00154032D01*
X00022919Y0015517D01*
X00020719Y0015576D01*
D02*
G37*
G36*
X00070279Y0014806D02*
X00066881D01*
X00063548Y00147397D01*
X00060409Y00146097D01*
X00057584Y00144209D01*
X00055181Y00141806D01*
X00053293Y00138981D01*
X00051993Y00135842D01*
X0005133Y00132509D01*
Y00129111D01*
X00051993Y00125778D01*
X00053293Y00122639D01*
X00055181Y00119814D01*
X00057584Y00117411D01*
X00060409Y00115523D01*
X00063548Y00114223D01*
X00066881Y0011356D01*
X00070279D01*
X00073612Y00114223D01*
X00076751Y00115523D01*
X00079576Y00117411D01*
X00081979Y00119814D01*
X00083867Y00122639D01*
X00085167Y00125778D01*
X0008583Y00129111D01*
Y00132509D01*
X00085167Y00135842D01*
X00083867Y00138981D01*
X00081979Y00141806D01*
X00079576Y00144209D01*
X00076751Y00146097D01*
X00073612Y00147397D01*
X00070279Y0014806D01*
D02*
G37*
G36*
X00020719Y0026286D02*
X00018441D01*
X00016241Y00262271D01*
X00014269Y00261132D01*
X00012658Y00259521D01*
X0001152Y00257549D01*
X0001093Y00255349D01*
Y00253071D01*
X0001152Y00250871D01*
X00012658Y00248899D01*
X00014269Y00247288D01*
X00016241Y0024615D01*
X00018036Y00245669D01*
X00037317Y00226388D01*
Y00149532D01*
X00018036Y00130251D01*
X00016241Y0012977D01*
X00014269Y00128632D01*
X00012658Y00127021D01*
X0001152Y00125049D01*
X0001093Y00122849D01*
Y00120571D01*
X0001152Y00118371D01*
X00012658Y00116399D01*
X00014269Y00114788D01*
X00016241Y0011365D01*
X00018441Y0011306D01*
X00020719D01*
X00022919Y0011365D01*
X00024891Y00114788D01*
X00026502Y00116399D01*
X00027641Y00118371D01*
X0002823Y00120571D01*
Y00122849D01*
X00028168Y00123081D01*
X0004776Y00142672D01*
X00049086Y00144657D01*
X00049552Y00146998D01*
Y00228922D01*
X00049086Y00231263D01*
X0004776Y00233248D01*
X00028168Y00252839D01*
X0002823Y00253071D01*
Y00255349D01*
X00027641Y00257549D01*
X00026502Y00259521D01*
X00024891Y00261132D01*
X00022919Y00262271D01*
X00020719Y0026286D01*
D02*
G37*
G36*
X00100821Y00123735D02*
X00097339D01*
X00093975Y00122834D01*
X0009096Y00121093D01*
X00088497Y0011863D01*
X00086756Y00115615D01*
X00085855Y00112251D01*
Y00108769D01*
X00086756Y00105405D01*
X00088497Y0010239D01*
X0009096Y00099927D01*
X00093975Y00098186D01*
X00097339Y00097285D01*
X00100821D01*
X00104185Y00098186D01*
X001072Y00099927D01*
X00109663Y0010239D01*
X00111404Y00105405D01*
X00112305Y00108769D01*
Y00112251D01*
X00111404Y00115615D01*
X00109663Y0011863D01*
X001072Y00121093D01*
X00104185Y00122834D01*
X00100821Y00123735D01*
D02*
G37*
G36*
X0036352Y0010924D02*
X0035872D01*
Y0009164D01*
X0036352D01*
Y0010924D01*
D02*
G37*
G36*
X00737023Y0006869D02*
X00734653D01*
X00732364Y00068077D01*
X00730312Y00066892D01*
X00728636Y00065216D01*
X00727451Y00063164D01*
X00726838Y00060875D01*
Y00058505D01*
X00727451Y00056216D01*
X00728636Y00054164D01*
X00730312Y00052488D01*
X00732364Y00051303D01*
X00734653Y0005069D01*
X00737023D01*
X00739312Y00051303D01*
X00741364Y00052488D01*
X0074304Y00054164D01*
X00744225Y00056216D01*
X00744838Y00058505D01*
Y00060875D01*
X00744225Y00063164D01*
X0074304Y00065216D01*
X00741364Y00066892D01*
X00739312Y00068077D01*
X00737023Y0006869D01*
D02*
G37*
G36*
X00711623D02*
X00709253D01*
X00706964Y00068077D01*
X00704912Y00066892D01*
X00703236Y00065216D01*
X00702051Y00063164D01*
X00701438Y00060875D01*
Y00058505D01*
X00702051Y00056216D01*
X00703236Y00054164D01*
X00704912Y00052488D01*
X00706964Y00051303D01*
X00709253Y0005069D01*
X00711623D01*
X00713912Y00051303D01*
X00715964Y00052488D01*
X0071764Y00054164D01*
X00718825Y00056216D01*
X00719438Y00058505D01*
Y00060875D01*
X00718825Y00063164D01*
X0071764Y00065216D01*
X00715964Y00066892D01*
X00713912Y00068077D01*
X00711623Y0006869D01*
D02*
G37*
G36*
X00686223D02*
X00683853D01*
X00681564Y00068077D01*
X00679512Y00066892D01*
X00677836Y00065216D01*
X00676651Y00063164D01*
X00676038Y00060875D01*
Y00058505D01*
X00676651Y00056216D01*
X00677836Y00054164D01*
X00679512Y00052488D01*
X00681564Y00051303D01*
X00683853Y0005069D01*
X00686223D01*
X00688512Y00051303D01*
X00690564Y00052488D01*
X0069224Y00054164D01*
X00693425Y00056216D01*
X00694038Y00058505D01*
Y00060875D01*
X00693425Y00063164D01*
X0069224Y00065216D01*
X00690564Y00066892D01*
X00688512Y00068077D01*
X00686223Y0006869D01*
D02*
G37*
G36*
X00660823D02*
X00658453D01*
X00656164Y00068077D01*
X00654112Y00066892D01*
X00652436Y00065216D01*
X00651251Y00063164D01*
X00650638Y00060875D01*
Y00058505D01*
X00651251Y00056216D01*
X00652436Y00054164D01*
X00654112Y00052488D01*
X00656164Y00051303D01*
X00658453Y0005069D01*
X00660823D01*
X00663112Y00051303D01*
X00665164Y00052488D01*
X0066684Y00054164D01*
X00668025Y00056216D01*
X00668638Y00058505D01*
Y00060875D01*
X00668025Y00063164D01*
X0066684Y00065216D01*
X00665164Y00066892D01*
X00663112Y00068077D01*
X00660823Y0006869D01*
D02*
G37*
G36*
X00643238D02*
X00625238D01*
Y0005069D01*
X00643238D01*
Y0006869D01*
D02*
G37*
G36*
X00352236Y00078104D02*
X00338236D01*
Y00062104D01*
X00342687D01*
Y00054411D01*
X00342687Y00054411D01*
X00341421Y00053145D01*
X00340736Y00051491D01*
Y00049701D01*
X00341421Y00048047D01*
X00342687Y00046781D01*
X00344341Y00046096D01*
X00346131D01*
X00347785Y00046781D01*
X00349051Y00048047D01*
X00349736Y00049701D01*
Y00051491D01*
X00349051Y00053145D01*
X00347785Y00054411D01*
X00347785Y00054411D01*
Y00062104D01*
X00352236D01*
Y00078104D01*
D02*
G37*
%LPD*%
G36*
X0060192Y0019353D02*
X0060192Y00192698D01*
Y0018363D01*
X0060672D01*
Y00192092D01*
X0060672Y0019338D01*
X00608008Y0019338D01*
X00610771D01*
X0061152Y00193231D01*
X00660391D01*
Y00166552D01*
X00644457Y00150618D01*
X00633062D01*
Y00136618D01*
X00636984D01*
Y00119504D01*
X00635858Y00118378D01*
X00567471D01*
X00566345Y00119504D01*
Y00135856D01*
X00569306D01*
Y00140307D01*
X00572116D01*
X00573092Y00140501D01*
X00573918Y00141054D01*
X00575842Y00142978D01*
X00576395Y00143805D01*
X00576589Y0014478D01*
Y00168108D01*
X00585271Y0017679D01*
X00586771Y00176169D01*
Y00169452D01*
X0058138D01*
Y00155452D01*
X0059738D01*
Y00169452D01*
X00591869D01*
Y00175024D01*
X00593369Y00175646D01*
X00596343Y00172671D01*
X0059717Y00172119D01*
X00598146Y00171925D01*
X00610497D01*
X00610736Y00171568D01*
X00609934Y00170068D01*
X00607188D01*
Y00156068D01*
X00623188D01*
Y00170068D01*
X00617737D01*
Y00171958D01*
X00617543Y00172933D01*
X0061699Y0017376D01*
X00614475Y00176276D01*
X00613648Y00176829D01*
X00612672Y00177023D01*
X00599201D01*
X00596869Y00179355D01*
Y0018858D01*
X0059672Y00189329D01*
X0059672Y0019353D01*
X00597943Y00194198D01*
X00600696D01*
X0060192Y0019353D01*
D02*
G37*
D11*
X0058928Y00127D02*
Y00143352D01*
X0058938Y00143452D01*
X0059432Y00178299D02*
X00598146Y00174474D01*
X0059432Y00178299D02*
Y0018858D01*
X00612672Y00174474D02*
X00615188Y00171958D01*
X00598146Y00174474D02*
X00612672D01*
X0062206Y0040355D02*
X0062706D01*
X0061756Y0039905D02*
X0062206Y0040355D01*
X0062706D02*
X0063156Y0039905D01*
X00258826Y00177292D02*
X00325374D01*
X00235604Y00200514D02*
Y00225452D01*
Y00200514D02*
X00258826Y00177292D01*
X00304946Y00165762D02*
X00313844D01*
X00325374Y00177292D01*
X00362712Y0013474D02*
Y00150876D01*
X00358358Y0013474D02*
X00362712D01*
X00366402D01*
X00358346Y0011984D02*
X00362712Y00124206D01*
Y0013474D01*
X0034682Y0015474D02*
X00358848D01*
X00362712Y00150876D01*
X003048Y0013997D02*
Y0014097D01*
X00295151Y00123955D02*
Y00130321D01*
X003048Y0013997D01*
X00294386Y0012319D02*
X00295151Y00123955D01*
X00476816Y00219048D02*
X0050028D01*
X0043042Y0016974D02*
X00449394D01*
X00311208Y00241146D02*
X00335688D01*
X0038102Y00195814D01*
X0066294Y00196088D02*
Y0026162D01*
X0038102Y0018414D02*
Y00195814D01*
X00311716Y00219048D02*
X0035042D01*
X0037602Y00193448D01*
Y0018414D02*
Y00193448D01*
X00451504Y00410872D02*
X00466444D01*
X0066294Y00165496D02*
Y00196088D01*
X0061152Y0019578D02*
X00662632D01*
X0066294Y00196088D01*
X00641062Y00143618D02*
X0066294Y00165496D01*
X0058932Y00162512D02*
X0058938Y00162452D01*
X0058932Y00162512D02*
Y0018858D01*
X0058432Y00179444D02*
Y0018858D01*
X0057404Y0014478D02*
Y00169164D01*
X0058432Y00179444D01*
X00615188Y00163068D02*
Y00171958D01*
X00591312Y00336042D02*
X00643918D01*
X0067831Y0030165D01*
Y0029865D02*
Y0030165D01*
X0042164Y00203688D02*
Y00203962D01*
X0041612Y0018404D02*
Y00198168D01*
X0042164Y00203688D01*
X0019558Y0022606D02*
X00215996D01*
X00216604Y00225452D01*
X00653288Y00286324D02*
Y00298272D01*
X00650494Y00282448D02*
Y0028353D01*
X00653288Y00286324D01*
X0065291Y0029865D02*
X00653288Y00298272D01*
X0065786Y00275844D02*
X00665988Y00283972D01*
Y00298272D01*
X0064021Y0029865D02*
Y00311274D01*
X00627126Y00324358D02*
X0064021Y00311274D01*
X00591566Y00324358D02*
X00627126D01*
X00608079Y00316481D02*
X00620779D01*
X0062751Y0029865D02*
Y0030975D01*
X00620779Y00316481D02*
X0062751Y0030975D01*
X00607314Y00317246D02*
X00608079Y00316481D01*
X0066561Y0029865D02*
X00665988Y00298272D01*
X00719074Y0038735D02*
X0073406D01*
X00733552Y00336042D02*
X0073406Y0033655D01*
X00709168Y00336042D02*
X00733552D01*
X0073406Y0034925D02*
X00734822Y00348488D01*
X00760476D01*
X00693674Y00337058D02*
Y0035179D01*
Y00337058D02*
X00719582Y0031115D01*
X00718566Y00411988D02*
X00733298D01*
X0073406Y0041275D01*
X00719582Y0031115D02*
X0073406D01*
Y0040005D02*
X0075311D01*
X0055906Y0036195D02*
X00578866D01*
X0055906Y0037465D02*
X00579628D01*
X0055906Y0038735D02*
X00578866D01*
X0055906Y0040005D02*
X0057912D01*
X0055906Y0041275D02*
X00578612D01*
X00518888Y00098864D02*
Y00135204D01*
X00518768Y00135324D02*
X00518888Y00135204D01*
X00485902Y00089154D02*
X00534162D01*
X00445316Y0012974D02*
X00485902Y00089154D01*
X00534162D02*
X00541636Y00096628D01*
Y00142856D01*
X00345236Y00050596D02*
Y00070104D01*
X00006096Y00088392D02*
X0003165Y00062838D01*
X00214992D01*
X00006096Y00088392D02*
Y00133626D01*
X0001958Y0014711D01*
X0012259Y00148174D02*
X00153704Y0011706D01*
X00215334D01*
X0012259Y00148174D02*
Y0017217D01*
X0013208Y0018166D01*
X0030607Y00106214D02*
Y00120396D01*
X00305112Y00105256D02*
X0030607Y00106214D01*
X0033683Y0012474D02*
X0034682D01*
X00333502Y00056642D02*
Y00121412D01*
X0033683Y0012474D01*
X00316484Y00039624D02*
X00333502Y00056642D01*
X00304604Y00079348D02*
X00319686D01*
X00289052Y00039624D02*
X00316484D01*
X00285858Y00042818D02*
Y00053186D01*
Y00042818D02*
X00289052Y00039624D01*
X00263906Y00066548D02*
X00292804D01*
X00304604Y00078348D01*
X0024575Y00084704D02*
X00263906Y00066548D01*
X00239254Y00084704D02*
X0024575D01*
X00304604Y00078348D02*
Y00079348D01*
X00234754Y00089204D02*
Y00090204D01*
Y00089204D02*
X00239254Y00084704D01*
X00454914Y00033528D02*
X00483362Y00061976D01*
X00263302Y00033528D02*
X00454914D01*
X00233992Y00062838D02*
X00263302Y00033528D01*
X0037112Y0010044D02*
Y00130022D01*
X00366402Y0013474D02*
X0037112Y00130022D01*
X0035312Y00134685D02*
X00358303D01*
X00358358Y0013474D01*
X0034692Y0011984D02*
X00358346D01*
X0034682Y0011974D02*
X0034692Y0011984D01*
X00399214Y00203606D02*
X00403156Y00207548D01*
X00391372Y00203606D02*
X00399214D01*
X0038622Y00198454D02*
X00391372Y00203606D01*
X0038622Y0019034D02*
Y00198454D01*
X00403156Y00207548D02*
Y00219048D01*
X00483362Y00061976D02*
Y00082296D01*
X00441018Y0012464D02*
X00483362Y00082296D01*
X0043052Y0012464D02*
X00441018D01*
X0043042Y0012474D02*
X0043052Y0012464D01*
X0043042Y0012974D02*
X00445316D01*
X0043042Y0013974D02*
X00447508D01*
X00462508Y0012474D01*
X0049558D01*
X00462Y0015974D02*
X0049812D01*
X0043042Y0011474D02*
X00441266D01*
X0047498Y00064008D02*
Y00081026D01*
X00441266Y0011474D02*
X0047498Y00081026D01*
X00370332Y00054102D02*
X00465074D01*
X0047498Y00064008D01*
X00364236Y00060198D02*
Y00070104D01*
Y00060198D02*
X00370332Y00054102D01*
X00408165Y00084341D02*
X00427869D01*
X0040622Y00086286D02*
Y0010034D01*
Y00086286D02*
X00408165Y00084341D01*
X0040612Y0010044D02*
X0040622Y0010034D01*
X00427869Y00084341D02*
X00440632Y00071578D01*
Y00070578D02*
Y00071578D01*
X0039415Y00069562D02*
X0039612Y00071532D01*
Y0010044D01*
X0038112Y00088117D02*
Y0010044D01*
X0037122Y00088266D02*
X00373126Y0008636D01*
X00379363D01*
X0038112Y00088117D01*
X0037122Y00088266D02*
Y0010034D01*
X0038122Y00110964D02*
X00384302Y00114046D01*
X0038122Y0010054D02*
Y00110964D01*
X00384302Y00114046D02*
X0039751D01*
X0040102Y0010054D02*
Y00110536D01*
X0039751Y00114046D02*
X0040102Y00110536D01*
Y0010054D02*
X0040112Y0010044D01*
X0038112D02*
X0038122Y0010054D01*
X0037112Y0010044D02*
X0037122Y0010034D01*
X0043042Y0014474D02*
X00447D01*
X00462Y0015974D01*
X00481316Y00182494D02*
X00506354D01*
X00518768Y00154324D02*
Y0017008D01*
X00506354Y00182494D02*
X00518768Y0017008D01*
X00503536Y00154324D02*
X00517768D01*
X00476816Y00186994D02*
Y00187994D01*
Y00186994D02*
X00481316Y00182494D01*
X00271814Y00195546D02*
X00292804D01*
X00254Y0021336D02*
X00271814Y00195546D01*
X00407482Y0016256D02*
X00410302Y0015974D01*
X0043042D01*
X004064Y0016256D02*
X00407482D01*
X00415102Y0016764D02*
X00418002Y0016474D01*
X0041402Y0016764D02*
X00415102D01*
X00418002Y0016474D02*
X0043042D01*
X00412562Y0014478D02*
X00417522Y0014974D01*
X0043042D01*
X0041148Y0014478D02*
X00412562D01*
X004064Y001524D02*
X00407165Y00153165D01*
X00410822Y0015474D02*
X0043042D01*
X00407165Y00153165D02*
X00409248D01*
X00410822Y0015474D01*
X0043042Y0016474D02*
X0043042Y0016474D01*
X0037602Y0018414D02*
X0037612Y0018404D01*
X0038102Y0018414D02*
X0038112Y0018404D01*
X00473456Y00338836D02*
X00504844Y00370224D01*
X00411988Y00338836D02*
X00473456D01*
X0022098Y0024638D02*
X0024384D01*
X00254Y0021336D02*
Y0023622D01*
X0024384Y0024638D02*
X00254Y0023622D01*
X00476816Y00187994D02*
X0047752Y0018729D01*
X00506164Y00135324D02*
X00518768D01*
X0049558Y0012474D02*
X00506164Y00135324D01*
X0049812Y0015974D02*
X00503536Y00154324D01*
X00562306Y00142856D02*
X00572116D01*
X0057404Y0014478D01*
X00655928Y00268632D02*
X0066294Y0026162D01*
X00644544Y00268632D02*
X00655928D01*
X0059182Y0024638D02*
X0061468D01*
X0058432Y0023888D02*
X0059182Y0024638D01*
X0058432Y0022798D02*
Y0023888D01*
X00593437Y00268317D02*
X0059436Y0026924D01*
X00593437Y00259497D02*
Y00268317D01*
X0057932Y0024538D02*
X00593437Y00259497D01*
X0059436Y0026924D02*
Y002794D01*
X0057932Y0022798D02*
Y0024538D01*
X0061468Y0024638D02*
X00625544Y00257244D01*
X0060198Y0023876D02*
X00620562D01*
X0059932Y002361D02*
X0060198Y0023876D01*
X0059932Y0022798D02*
Y002361D01*
X00620562Y0023876D02*
X00633966Y00225356D01*
X00625544Y00257244D02*
Y00268632D01*
Y00278696D01*
X00633966Y00225356D02*
X00634966D01*
X00615833Y00288407D02*
X00625544Y00278696D01*
X00615833Y00288407D02*
Y00294593D01*
X00613293Y00297133D02*
X00615833Y00294593D01*
X00613293Y00297133D02*
X0061481Y0029865D01*
X0059436Y002794D02*
X0060211Y0028715D01*
Y0029865D01*
X00216604Y00242004D02*
X0022098Y0024638D01*
X00216604Y00225452D02*
Y00242004D01*
X00514165Y00346056D02*
X00530826D01*
X00478083Y00309974D02*
X00514165Y00346056D01*
X00455422Y00309974D02*
X00478083D01*
X00530826Y00330234D02*
Y00346056D01*
X00504844Y00370224D02*
Y00385472D01*
X0032258Y00448602D02*
Y0045212D01*
X00328784Y0039761D02*
Y00442398D01*
X0032258Y00448602D02*
X00328784Y00442398D01*
X0050414Y0046228D02*
X00515112D01*
X00504844Y00385472D02*
Y00411446D01*
X0055779Y0043688D02*
X0055906Y0043815D01*
X0054102Y0043688D02*
X0055779D01*
X00173438Y00290242D02*
X00480742D01*
X0013208Y0033782D02*
Y0042926D01*
X00127682Y00335998D02*
Y00427438D01*
Y00335998D02*
X00173438Y00290242D01*
X0017526Y0029464D02*
X0047892D01*
X0013208Y0033782D02*
X0017526Y0029464D01*
X00130792Y00430548D02*
X0013208Y0042926D01*
X00123742Y00437598D02*
X00130792Y00430548D01*
X00120632Y00434488D02*
X00127682Y00427438D01*
X00130792Y00430548D02*
Y00430548D01*
X00116518Y00438602D02*
X00120632Y00434488D01*
X0011834Y00443D02*
X00120916Y00440424D01*
Y00440424D02*
Y00440424D01*
Y00440424D02*
X00123742Y00437598D01*
X00116518Y00438602D02*
Y00438602D01*
X00073865Y00443D02*
X0011834D01*
X00123742Y00437598D02*
X00123742D01*
X00075687Y00438602D02*
X00116518D01*
X00501402Y00317123D02*
Y00317123D01*
X00505801Y00315301D02*
X00551909D01*
X00501402Y00317123D02*
X00503979Y00319699D01*
X00480742Y00290242D02*
X00505801Y00315301D01*
Y00315301D01*
X00503979Y00319699D02*
X00551909D01*
X0047892Y0029464D02*
X00501402Y00317123D01*
X00551909Y00319699D02*
X0055606Y0032385D01*
Y0031115D02*
X0055906D01*
X0055606Y0032385D02*
X0055906D01*
X00551909Y00315301D02*
X0055606Y0031115D01*
X00065238Y00419602D02*
Y00423852D01*
X00064937Y00424153D02*
X00065238Y00423852D01*
X00064937Y00424153D02*
Y00427852D01*
X00060539Y00429674D02*
X00073865Y00443D01*
X00060238Y00423852D02*
X00060539Y00424153D01*
Y00429674D01*
X00060238Y00419602D02*
Y00423852D01*
X00064937Y00427852D02*
X00075687Y00438602D01*
X00515112Y0046228D02*
X00526542Y0045085D01*
X0055906D01*
X0050414Y0043755D02*
X00504844Y00436846D01*
X0050414Y0043755D02*
Y0046228D01*
X00504844Y00411446D02*
Y00436846D01*
X00406146Y00352966D02*
X00406351Y00352761D01*
Y00344473D02*
Y00352761D01*
Y00344473D02*
X00411988Y00338836D01*
X00072744Y00396132D02*
Y00406745D01*
X00075238Y00409239D01*
Y00419602D01*
X00051309Y00396485D02*
Y00404875D01*
X00045238Y00410946D02*
Y00419602D01*
X00051309Y00396485D02*
X00051662Y00396132D01*
X00045238Y00410946D02*
X00051309Y00404875D01*
D15*
X00304946Y00165762D02*
D03*
X00285946D02*
D03*
X00234334Y0011706D02*
D03*
X00215334D02*
D03*
X00286112Y00105256D02*
D03*
X00305112D02*
D03*
X00285604Y00079348D02*
D03*
X00304604D02*
D03*
X00459632Y00070578D02*
D03*
X00440632D02*
D03*
X00384156Y00219048D02*
D03*
X00403156D02*
D03*
X00292716D02*
D03*
X00311716D02*
D03*
X00457816D02*
D03*
X00476816D02*
D03*
X00644544Y00268632D02*
D03*
X00625544D02*
D03*
X0057536Y0026924D02*
D03*
X0059436D02*
D03*
X00457816Y00187994D02*
D03*
X00476816D02*
D03*
X0041315Y00069562D02*
D03*
X0039415D02*
D03*
X00345236Y00070104D02*
D03*
X00364236D02*
D03*
X00285858Y00053186D02*
D03*
X00304858D02*
D03*
X00214992Y00062838D02*
D03*
X00233992D02*
D03*
X00311804Y00195546D02*
D03*
X00292804D02*
D03*
X003048Y0014097D02*
D03*
X002858D02*
D03*
X00235604Y00225452D02*
D03*
X00216604D02*
D03*
X00215754Y00090204D02*
D03*
X00234754D02*
D03*
X00292208Y00241146D02*
D03*
X00311208D02*
D03*
X00476904Y00246346D02*
D03*
X00457904D02*
D03*
X00457816Y00271814D02*
D03*
X00476816D02*
D03*
X00383902Y00245398D02*
D03*
X00402902D02*
D03*
X00403244Y00271746D02*
D03*
X00384244D02*
D03*
X00311804D02*
D03*
X00292804D02*
D03*
X00328784Y0039761D02*
D03*
X00347784D02*
D03*
X0027818Y00398272D02*
D03*
X0029718D02*
D03*
X00347364Y00327626D02*
D03*
X00328364D02*
D03*
X00277476Y00327186D02*
D03*
X00296476D02*
D03*
X00296564Y00367184D02*
D03*
X00277564D02*
D03*
X00504844Y00385472D02*
D03*
X00485844D02*
D03*
X00504844Y00411446D02*
D03*
X00485844D02*
D03*
X00504844Y00436846D02*
D03*
X00485844D02*
D03*
X0048514Y0046228D02*
D03*
X0050414D02*
D03*
X00451504Y00410872D02*
D03*
X00432504D02*
D03*
X00432416Y00386114D02*
D03*
X00451416D02*
D03*
X00432416Y00436914D02*
D03*
X00451416D02*
D03*
X004318Y0046228D02*
D03*
X004508D02*
D03*
D16*
X0034682Y0016974D02*
D03*
Y0016474D02*
D03*
Y0015974D02*
D03*
Y0015474D02*
D03*
Y0014974D02*
D03*
Y0014474D02*
D03*
Y0013974D02*
D03*
Y0013474D02*
D03*
Y0012974D02*
D03*
Y0012474D02*
D03*
Y0011974D02*
D03*
Y0011474D02*
D03*
X0043042D02*
D03*
Y0011974D02*
D03*
Y0012474D02*
D03*
Y0012974D02*
D03*
Y0013474D02*
D03*
Y0013974D02*
D03*
Y0014474D02*
D03*
Y0014974D02*
D03*
Y0015474D02*
D03*
Y0015974D02*
D03*
Y0016474D02*
D03*
Y0016974D02*
D03*
D17*
X0036112Y0010044D02*
D03*
X0036612D02*
D03*
X0037112D02*
D03*
X0037612D02*
D03*
X0038112D02*
D03*
X0038612D02*
D03*
X0039112D02*
D03*
X0039612D02*
D03*
X0040112D02*
D03*
X0040612D02*
D03*
X0041112D02*
D03*
X0041612D02*
D03*
Y0018404D02*
D03*
X0041112D02*
D03*
X0040612D02*
D03*
X0040112D02*
D03*
X0039612D02*
D03*
X0039112D02*
D03*
X0038612D02*
D03*
X0038112D02*
D03*
X0037612D02*
D03*
X0037112D02*
D03*
X0036612D02*
D03*
X0036112D02*
D03*
D18*
X0063156Y0039905D02*
D03*
X0061756D02*
D03*
X0064556D02*
D03*
X0061756Y0038505D02*
D03*
X0063156D02*
D03*
X0064556D02*
D03*
X0061756Y0041305D02*
D03*
X0063156D02*
D03*
X0064556D02*
D03*
D19*
X0055906Y0047625D02*
D03*
Y0046355D02*
D03*
Y0045085D02*
D03*
Y0043815D02*
D03*
Y0042545D02*
D03*
Y0041275D02*
D03*
Y0040005D02*
D03*
Y0038735D02*
D03*
Y0037465D02*
D03*
Y0036195D02*
D03*
Y0034925D02*
D03*
Y0033655D02*
D03*
Y0032385D02*
D03*
Y0031115D02*
D03*
X0073406D02*
D03*
Y0032385D02*
D03*
Y0033655D02*
D03*
Y0034925D02*
D03*
Y0036195D02*
D03*
Y0037465D02*
D03*
Y0038735D02*
D03*
Y0040005D02*
D03*
Y0041275D02*
D03*
Y0042545D02*
D03*
Y0043815D02*
D03*
Y0045085D02*
D03*
Y0046355D02*
D03*
Y0047625D02*
D03*
D20*
X0057671Y0029865D02*
D03*
X0058941D02*
D03*
X0060211D02*
D03*
X0061481D02*
D03*
X0062751D02*
D03*
X0064021D02*
D03*
X0065291D02*
D03*
X0066561D02*
D03*
X0067831D02*
D03*
X0069101D02*
D03*
X0070371D02*
D03*
X0071641D02*
D03*
D21*
X00455422Y00309974D02*
D03*
Y00353474D02*
D03*
X00406146Y00352966D02*
D03*
Y00309466D02*
D03*
D22*
X00615188Y00163068D02*
D03*
Y00144068D02*
D03*
X00641062Y00143618D02*
D03*
Y00162618D02*
D03*
X0058938Y00162452D02*
D03*
Y00143452D02*
D03*
X00561306Y00142856D02*
D03*
Y00161856D02*
D03*
X00518768Y00154324D02*
D03*
Y00135324D02*
D03*
X00518888Y00079864D02*
D03*
Y00098864D02*
D03*
X00072744Y00396132D02*
D03*
Y00377132D02*
D03*
X00051662Y00396132D02*
D03*
Y00377132D02*
D03*
X00530826Y00346056D02*
D03*
Y00365056D02*
D03*
X00634966Y00206356D02*
D03*
Y00225356D02*
D03*
D23*
X00152732Y00375666D02*
D03*
D24*
X00219632Y00398566D02*
D03*
Y00375666D02*
D03*
Y00352766D02*
D03*
D25*
X0048006Y0015974D02*
D03*
Y0012474D02*
D03*
D26*
X0057212Y0022078D02*
D03*
Y0021578D02*
D03*
Y0021078D02*
D03*
Y0020578D02*
D03*
Y0020078D02*
D03*
Y0019578D02*
D03*
X0061152D02*
D03*
Y0020078D02*
D03*
Y0020578D02*
D03*
Y0021078D02*
D03*
Y0021578D02*
D03*
Y0022078D02*
D03*
D27*
X0057932Y0018858D02*
D03*
X0058432D02*
D03*
X0058932D02*
D03*
X0059432D02*
D03*
X0059932D02*
D03*
X0060432D02*
D03*
Y0022798D02*
D03*
X0059932D02*
D03*
X0059432D02*
D03*
X0058932D02*
D03*
X0058432D02*
D03*
X0057932D02*
D03*
D28*
X00030738Y00419602D02*
D03*
X00038738D02*
D03*
X00086738D02*
D03*
X00094738D02*
D03*
D29*
X00045238D02*
D03*
X00050238D02*
D03*
X00055238D02*
D03*
X00060238D02*
D03*
X00080238D02*
D03*
X00075238D02*
D03*
X00070238D02*
D03*
X00065238D02*
D03*
D30*
X003512Y003683D02*
D03*
X003302D02*
D03*
D58*
X00562267Y00117815D02*
Y00142856D01*
X00565781Y001143D02*
X00637547D01*
X00641062Y00117815D01*
X00562267D02*
X00565781Y001143D01*
X00641062Y00117815D02*
Y00143618D01*
X00292208Y00241146D02*
X00294311Y00243249D01*
Y00252771D01*
X00297825Y00256286D01*
X00335026D01*
X00262636Y00233172D02*
Y00271272D01*
Y00233172D02*
X0027676Y00219048D01*
X00292716D01*
X00292462Y00220302D02*
Y00240892D01*
X00335026Y00256286D02*
X00372264Y00219048D01*
X00384156D01*
X00292208Y00241146D02*
X00292462Y00240892D01*
X00384156Y00220048D02*
X00396772Y00232664D01*
X004452D02*
X00457816Y00220048D01*
X00396772Y00232664D02*
X004452D01*
X00457816Y00218048D02*
Y00219048D01*
Y00220048D01*
X00384156Y00219048D02*
Y00220048D01*
X00512064Y00232664D02*
X0054864Y0026924D01*
X00457816Y00220048D02*
X00470432Y00232664D01*
X00512064D01*
X0054864Y0026924D02*
X0057536D01*
X0051562Y002032D02*
X00541253Y00177567D01*
X00457816Y00218048D02*
X00472664Y002032D01*
X00541253Y00143239D02*
Y00177567D01*
X00472664Y002032D02*
X0051562D01*
X00541253Y00143239D02*
X00541636Y00142856D01*
X00562267D02*
X00562306D01*
X00561306D02*
X00562267D01*
X00541636D02*
X00561306D01*
X0025654Y0030988D02*
X00273961D01*
X00277476Y00313395D02*
Y00327186D01*
X00273961Y0030988D02*
X00277476Y00313395D01*
X00386351Y0041148D02*
X00386959Y00410872D01*
X0037221Y0039761D02*
X0038608Y0041148D01*
X00347784Y0039761D02*
X0037221D01*
X00386959Y00410872D02*
X00432504D01*
X0038608Y0041148D02*
X00386351D01*
D59*
X00378968Y00319532D02*
Y00365426D01*
X00347784Y0039661D02*
Y0039761D01*
Y0039661D02*
X00378968Y00365426D01*
X0036576Y00306324D02*
X00378968Y00319532D01*
X0033305Y00306324D02*
X0036576D01*
X00328364Y0031101D02*
X0033305Y00306324D01*
X00328364Y0031101D02*
Y00327626D01*
X00311804Y00271746D02*
X00384244D01*
X00262636Y00271272D02*
X0026311Y00271746D01*
X00292804D01*
X00207886Y00375016D02*
X00220882D01*
X0048514Y0048133D02*
X00514604D01*
X00239014D02*
X0048514D01*
Y0046228D02*
Y0048133D01*
X0045786Y0024639D02*
X00457904Y00246346D01*
X00457816Y00271814D02*
X0045786Y0027177D01*
Y0024639D02*
Y0027177D01*
X00457816Y00270814D02*
Y00271814D01*
X002032Y0034036D02*
X00216374Y00327186D01*
X00277476D01*
X002032Y0034036D02*
Y0037033D01*
X00207886Y00375016D01*
X00220882D02*
X00221532Y00375666D01*
X00237998D01*
X00322835Y0034544D02*
X00327521Y00340754D01*
Y00328469D02*
X00328364Y00327626D01*
X00327521Y00328469D02*
Y00340754D01*
X0028225Y0034544D02*
X00322835D01*
X00277564Y00350126D02*
Y00367184D01*
Y00350126D02*
X0028225Y0034544D01*
X0024648Y00367184D02*
X00277564D01*
X00432416Y00386114D02*
Y00409784D01*
X004508Y0046228D02*
X0048514D01*
X00439928Y00367792D02*
X00480181D01*
X00484867Y00372478D01*
Y00384495D01*
X00485844Y00385472D01*
X00433996Y00373724D02*
X00439928Y00367792D01*
X00432416Y00386114D02*
X00433996Y00384534D01*
Y00373724D02*
Y00384534D01*
X0034798Y0045212D02*
X0035814Y0046228D01*
X004318D01*
X00432108Y00437222D02*
Y00461588D01*
X00210058Y00452374D02*
X00239014Y0048133D01*
X00235458Y00452374D02*
X00251206D01*
X0027818Y00398272D02*
Y004254D01*
X00251206Y00452374D02*
X0027818Y004254D01*
X00296564Y00367184D02*
X00297122Y00367742D01*
X00329642D01*
X003302Y003683D01*
X00514604Y0048133D02*
X00532384Y0046355D01*
X0055906D01*
X00432108Y00437222D02*
X00432416Y00436914D01*
X00328601Y00369563D02*
X00328762Y00369402D01*
X00296564Y00367184D02*
X00296725Y00367023D01*
X00237998Y00375666D02*
X0024648Y00367184D01*
X00219779Y00398419D02*
X00278033D01*
D60*
X00339968Y00169289D02*
X0034042Y0016974D01*
X0034682D01*
X00326054Y00169289D02*
X00339968D01*
X00161305Y00152794D02*
X00177193Y00136906D01*
X00240284D02*
X0026719Y0011D01*
X00241981Y00141003D02*
X00271287Y00111697D01*
X0017889Y00141003D02*
X00241981D01*
X00163002Y00156891D02*
X0017889Y00141003D01*
X00177193Y00136906D02*
X00240284D01*
X00271287Y00095914D02*
Y00111697D01*
X0026719Y00094217D02*
Y0011D01*
X00279898Y00094456D02*
X00281356Y00095914D01*
X00272745Y00094456D02*
X00279898D01*
X0026719Y00094217D02*
X00271048Y00090359D01*
X00279898D01*
X00281356Y00095914D02*
Y001005D01*
X00271287Y00095914D02*
X00272745Y00094456D01*
X00151762Y00177788D02*
Y00178725D01*
X00148931Y00181556D02*
X00151762Y00178725D01*
X00146869Y00181556D02*
X00148931D01*
X00154384Y00156891D02*
X00163002D01*
X00151762Y00177788D02*
X0015748Y00172069D01*
X00141314Y00181795D02*
X00143967Y00184447D01*
Y00195173D01*
X0015748Y0016896D02*
Y00172069D01*
X00141314Y00164167D02*
Y00181795D01*
X00145411Y00165864D02*
Y00180098D01*
X00141314Y00164167D02*
X00152687Y00152794D01*
X00145411Y00180098D02*
X00146869Y00181556D01*
X00152687Y00152794D02*
X00161305D01*
X00145411Y00165864D02*
X00154384Y00156891D01*
X0013208Y0020706D02*
X00143967Y00195173D01*
X00281356Y00083596D02*
Y00088901D01*
X00279898Y00090359D02*
X00281356Y00088901D01*
Y001005D02*
X00286112Y00105256D01*
X00281356Y00083596D02*
X00285604Y00079348D01*
X00314979Y00090148D02*
X00322326Y00097495D01*
X00291817Y00094245D02*
X00313282D01*
X00291817Y00090148D02*
X00314979D01*
X00313282Y00094245D02*
X00318229Y00099192D01*
X0029036Y00095703D02*
Y00101008D01*
X00286112Y00105256D02*
X0029036Y00101008D01*
Y00095703D02*
X00291817Y00094245D01*
X0029036Y00084104D02*
Y0008869D01*
X00291817Y00090148D01*
X00318229Y00099192D02*
Y00139269D01*
X00322326Y00097495D02*
Y00137571D01*
X00285604Y00079348D02*
X0029036Y00084104D01*
X00328249Y00149289D02*
X00339968D01*
X00318229Y00139269D02*
X00328249Y00149289D01*
X00322326Y00137571D02*
X00329946Y00145191D01*
X00339968D01*
X0034042Y0014474D01*
Y0014974D02*
X0034682D01*
X00339968Y00149289D02*
X0034042Y0014974D01*
Y0014474D02*
X0034682D01*
X00143957Y0021976D02*
X0015748D01*
X00142499Y0021624D02*
X00151048Y00207691D01*
X00163002D02*
X00215249Y00155445D01*
X00280774D02*
X00282232Y00156903D01*
X00142499Y0021624D02*
Y00218302D01*
X00282232Y00162048D02*
X00285946Y00165762D01*
X00215249Y00155445D02*
X00280774D01*
X0013208Y0023246D02*
X00140441Y00224099D01*
X00282232Y00156903D02*
Y00162048D01*
X00151048Y00207691D02*
X00163002D01*
X00140441Y00222038D02*
Y00224099D01*
X00138402Y00214543D02*
X00149351Y00203594D01*
X00138402Y00214543D02*
Y00219999D01*
X00140441Y00222038D01*
X00142499Y00218302D02*
X00143957Y0021976D01*
X00213552Y00151348D02*
X00280689D01*
X00161305Y00203594D02*
X00213552Y00151348D01*
X00280689D02*
X00282147Y0014989D01*
Y00144623D02*
Y0014989D01*
Y00144623D02*
X002858Y0014097D01*
X00149351Y00203594D02*
X00161305D01*
X00290556Y00156247D02*
X00292013Y00154789D01*
X00290556Y00145726D02*
Y00149234D01*
X00292013Y00150692D01*
X0029723Y00154789D02*
X0029723Y00154789D01*
X00295533Y00150692D02*
X00313252D01*
X00290556Y00156247D02*
Y00161152D01*
X00292013Y00150692D02*
X00295533D01*
X0029723Y00154789D02*
X00311555D01*
X00292013Y00154789D02*
X0029723D01*
X00295533Y00150692D02*
X00295533Y00150692D01*
X00285946Y00165762D02*
X00290556Y00161152D01*
X002858Y0014097D02*
X00290556Y00145726D01*
X00327752Y00165191D02*
X00339968D01*
X00313252Y00150692D02*
X00327752Y00165191D01*
X00311555Y00154789D02*
X00326054Y00169289D01*
X0034042Y0016474D02*
X0034682D01*
X00339968Y00165191D02*
X0034042Y0016474D01*
D61*
X00399402Y00248898D02*
Y00255588D01*
X00384244Y00270746D02*
X00399402Y00255588D01*
X00380744Y00267246D02*
X00384244Y00270746D01*
Y00271746D01*
X00370308Y0025781D02*
X00379744Y00267246D01*
X00380744D01*
X00362458Y0025781D02*
X00370308D01*
X0036195Y00258318D02*
X00362458Y0025781D01*
X00456956Y00245398D02*
X00457904Y00246346D01*
X00402902Y00245398D02*
X00456956D01*
X00399402Y00248898D02*
X00402902Y00245398D01*
X00202037Y00398419D02*
X00219779D01*
X00094512Y00481076D02*
X0011938D01*
X00202037Y00398419D01*
X00219632Y00398566D02*
X00219779Y00398419D01*
X00278033D02*
X0027818Y00398272D01*
X00086738Y00392176D02*
Y00419602D01*
X00081194Y00386632D02*
X00086738Y00392176D01*
X00060112Y00386632D02*
X00060112Y00386632D01*
X00081194D01*
X00043212Y00386632D02*
X00060112D01*
X00038738Y00391106D02*
X00043212Y00386632D01*
X00038738Y00391106D02*
Y00419602D01*
X00039238Y00425802D02*
X00094512Y00481076D01*
X00039238Y00420102D02*
Y00425802D01*
X00038738Y00419602D02*
X00039238Y00420102D01*
D62*
X0001958Y00252776D02*
X00043434Y00228922D01*
Y00146998D02*
Y00228922D01*
X0001958Y00123144D02*
X00043434Y00146998D01*
X0001958Y00252776D02*
Y0025421D01*
Y0012171D02*
Y00123144D01*
D63*
X0061756Y0040605D02*
D03*
X0064556D02*
D03*
X0061756Y0039205D02*
D03*
X0063156D02*
D03*
X0064556D02*
D03*
X0062456Y0041305D02*
D03*
X0063856D02*
D03*
X0062456Y0039905D02*
D03*
X0063856D02*
D03*
X0062456Y0038505D02*
D03*
X0063856D02*
D03*
D64*
X0013208Y0023246D02*
D03*
D65*
X0015748Y0021976D02*
D03*
X0013208Y0020706D02*
D03*
X0015748Y0019436D02*
D03*
X0013208Y0018166D02*
D03*
X0015748Y0016896D02*
D03*
X0013208Y0015626D02*
D03*
X0015748Y0014356D02*
D03*
D66*
X0001958Y0025421D02*
D03*
Y0022881D02*
D03*
Y0012171D02*
D03*
Y0014711D02*
D03*
D67*
X0009908Y0026541D02*
D03*
Y0011051D02*
D03*
D68*
X0006858Y0013081D02*
D03*
Y0024511D02*
D03*
D69*
X00685038Y0005969D02*
D03*
X00659638D02*
D03*
X00710438D02*
D03*
X00735838D02*
D03*
X0073914Y0020066D02*
D03*
Y0017526D02*
D03*
Y0022606D02*
D03*
Y0025146D02*
D03*
X0032258Y0045212D02*
D03*
X0029718D02*
D03*
X00210058Y00452374D02*
D03*
X00184658D02*
D03*
D70*
X00634238Y0005969D02*
D03*
X0034798Y0045212D02*
D03*
X00235458Y00452374D02*
D03*
D71*
X0073914Y0014986D02*
D03*
D72*
X00019538Y00425352D02*
D03*
X00105938D02*
D03*
D73*
X00019538Y00466852D02*
D03*
X00105938D02*
D03*
D74*
X00033838Y00430352D02*
D03*
X00091638D02*
D03*
X0048514Y0002794D02*
D03*
X0050292D02*
D03*
X005207D02*
D03*
X0053848D02*
D03*
X0055626D02*
D03*
X0057404D02*
D03*
X0048514Y0001016D02*
D03*
X0050292D02*
D03*
X005207D02*
D03*
X0053848D02*
D03*
X0055626D02*
D03*
X0057404D02*
D03*
X0012446Y0001524D02*
D03*
X0014224D02*
D03*
X0016002D02*
D03*
X001778D02*
D03*
X0019558D02*
D03*
X0021336D02*
D03*
X0012446Y0003048D02*
D03*
X0014224D02*
D03*
X0016002D02*
D03*
X001778D02*
D03*
X0019558D02*
D03*
X0021336D02*
D03*
X0000762Y0001524D02*
D03*
X000254D02*
D03*
X0004318D02*
D03*
X0006096D02*
D03*
X0007874D02*
D03*
X0009652D02*
D03*
X0000762Y0003048D02*
D03*
X000254D02*
D03*
X0004318D02*
D03*
X0006096D02*
D03*
X0007874D02*
D03*
X0009652D02*
D03*
X0000762Y0004572D02*
D03*
X000254D02*
D03*
X0004318D02*
D03*
X0006096D02*
D03*
X0007874D02*
D03*
X0009652D02*
D03*
X0000762Y0032766D02*
D03*
X000254D02*
D03*
X0004318D02*
D03*
X0006096D02*
D03*
X0007874D02*
D03*
X0009652D02*
D03*
Y003429D02*
D03*
X0007874D02*
D03*
X0006096D02*
D03*
X0004318D02*
D03*
X000254D02*
D03*
X0000762D02*
D03*
X0050028Y00219048D02*
D03*
X00362712Y00150876D02*
D03*
X0054102Y0043688D02*
D03*
X0038608Y0041148D02*
D03*
X00530826Y00330234D02*
D03*
X004064Y001524D02*
D03*
X0041148Y0014478D02*
D03*
X0041402Y0016764D02*
D03*
X004064Y0016256D02*
D03*
X00319686Y00079348D02*
D03*
X0030607Y00120396D02*
D03*
X00345236Y00050596D02*
D03*
X00578612Y0041275D02*
D03*
X0057912Y0040005D02*
D03*
X00578866Y0038735D02*
D03*
X00579628Y0037465D02*
D03*
X00578866Y0036195D02*
D03*
X0075311Y0040005D02*
D03*
X00718566Y00411988D02*
D03*
X00693674Y0035179D02*
D03*
X00760476Y00348488D02*
D03*
X00709168Y00336042D02*
D03*
X00719074Y0038735D02*
D03*
X00607314Y00317246D02*
D03*
X00591566Y00324358D02*
D03*
X0065786Y00275844D02*
D03*
X00650494Y00282448D02*
D03*
X0019558Y0022606D02*
D03*
X0042164Y00203962D02*
D03*
X00591312Y00336042D02*
D03*
X00449394Y0016974D02*
D03*
X00294386Y0012319D02*
D03*
X00466444Y00410872D02*
D03*
X00325374Y00177292D02*
D03*
D75*
X0025654Y0030988D02*
D03*
X0036195Y00258318D02*
D03*
X00262636Y00271272D02*
D03*
X0058928Y00127D02*
D03*
M02*
