G04*
G04 #@! TF.GenerationSoftware,Altium Limited,Altium Designer,24.9.1 (31)*
G04*
G04 Layer_Color=16711935*
%FSTAX44Y44*%
%MOMM*%
G71*
G04*
G04 #@! TF.SameCoordinates,77538C0C-0C9F-436E-B66A-60309351D6FF*
G04*
G04*
G04 #@! TF.FilePolarity,Negative*
G04*
G01*
G75*
%ADD47R,1.6012X1.6012*%
%ADD48C,1.6012*%
%ADD49C,1.7332*%
%ADD50C,2.6482*%
%ADD51C,3.4532*%
%ADD52C,1.8032*%
%ADD53R,1.8032X1.8032*%
%ADD54R,1.8032X1.8032*%
%ADD55O,1.2532X2.3532*%
%ADD56O,1.2532X2.0532*%
%ADD57C,0.9032*%
D47*
X0013208Y0023246D02*
D03*
D48*
X0015748Y0021976D02*
D03*
X0013208Y0020706D02*
D03*
X0015748Y0019436D02*
D03*
X0013208Y0018166D02*
D03*
X0015748Y0016896D02*
D03*
X0013208Y0015626D02*
D03*
X0015748Y0014356D02*
D03*
D49*
X0001958Y0025421D02*
D03*
Y0022881D02*
D03*
Y0012171D02*
D03*
Y0014711D02*
D03*
D50*
X0009908Y0026541D02*
D03*
Y0011051D02*
D03*
D51*
X0006858Y0013081D02*
D03*
Y0024511D02*
D03*
D52*
X00685038Y0005969D02*
D03*
X00659638D02*
D03*
X00710438D02*
D03*
X00735838D02*
D03*
X0073914Y0020066D02*
D03*
Y0017526D02*
D03*
Y0022606D02*
D03*
Y0025146D02*
D03*
X0032258Y0045212D02*
D03*
X0029718D02*
D03*
X00210058Y00452374D02*
D03*
X00184658D02*
D03*
D53*
X00634238Y0005969D02*
D03*
X0034798Y0045212D02*
D03*
X00235458Y00452374D02*
D03*
D54*
X0073914Y0014986D02*
D03*
D55*
X00019538Y00425352D02*
D03*
X00105938D02*
D03*
D56*
X00019538Y00466852D02*
D03*
X00105938D02*
D03*
D57*
X00033838Y00430352D02*
D03*
X00091638D02*
D03*
M02*
