G04*
G04 #@! TF.GenerationSoftware,Altium Limited,Altium Designer,24.9.1 (31)*
G04*
G04 Layer_Color=65535*
%FSTAX44Y44*%
%MOMM*%
G71*
G04*
G04 #@! TF.SameCoordinates,77538C0C-0C9F-436E-B66A-60309351D6FF*
G04*
G04*
G04 #@! TF.FilePolarity,Positive*
G04*
G01*
G75*
%ADD10C,0.2000*%
%ADD11C,0.3000*%
%ADD12C,0.1778*%
%ADD13C,0.1270*%
%ADD14C,0.6350*%
D10*
X0033512Y00169741D02*
G03*
X0033512Y00169741I-00001J0D01*
G01*
X0054556Y0047625D02*
G03*
X0054556Y0047625I-00001J0D01*
G01*
X00230912Y00352766D02*
G03*
X00230912Y00352766I-00001J0D01*
G01*
X0056282Y0022078D02*
G03*
X0056282Y0022078I-00001J0D01*
G01*
X00095738Y00406852D02*
G03*
X00095738Y00406852I-00001J0D01*
G01*
X00299484Y00156718D02*
X00312902D01*
Y00174752D01*
X00299484D02*
X00312902D01*
X00277902D02*
X00291734D01*
X00277902Y00156718D02*
X00291734D01*
X00277902D02*
Y00174752D01*
X00228872Y00125984D02*
X00242316D01*
X00207264D02*
X00221122D01*
X00207264Y00108204D02*
X00221122D01*
X00228872D02*
X00242316D01*
X00207264D02*
Y00125984D01*
X00242316Y00108204D02*
Y00125984D01*
X00278156Y001143D02*
X00291574D01*
X00278156Y00096266D02*
Y001143D01*
Y00096266D02*
X00291574D01*
X00299324D02*
X00313156D01*
X00299324Y001143D02*
X00313156D01*
Y00096266D02*
Y001143D01*
X00277648Y00088392D02*
X00291066D01*
X00277648Y00070358D02*
Y00088392D01*
Y00070358D02*
X00291066D01*
X00298816D02*
X00312648D01*
X00298816Y00088392D02*
X00312648D01*
Y00070358D02*
Y00088392D01*
X0045417Y00079502D02*
X00467614D01*
X00432562D02*
X0044642D01*
X00432562Y00061722D02*
X0044642D01*
X0045417D02*
X00467614D01*
X00432562D02*
Y00079502D01*
X00467614Y00061722D02*
Y00079502D01*
X00443172Y00299974D02*
X00468122D01*
Y00363474D01*
X00442722D02*
X00468122D01*
X00442722Y00299974D02*
Y00363474D01*
Y00299974D02*
X00443172D01*
X003762Y00228092D02*
X00389618D01*
X003762Y00210058D02*
Y00228092D01*
Y00210058D02*
X00389618D01*
X00397368D02*
X004112D01*
X00397368Y00228092D02*
X004112D01*
Y00210058D02*
Y00228092D01*
X0028476D02*
X00298178D01*
X0028476Y00210058D02*
Y00228092D01*
Y00210058D02*
X00298178D01*
X00305928D02*
X0031976D01*
X00305928Y00228092D02*
X0031976D01*
Y00210058D02*
Y00228092D01*
X0044986D02*
X00463278D01*
X0044986Y00210058D02*
Y00228092D01*
Y00210058D02*
X00463278D01*
X00471028D02*
X0048486D01*
X00471028Y00228092D02*
X0048486D01*
Y00210058D02*
Y00228092D01*
X00606264Y00157606D02*
Y0017105D01*
Y00135998D02*
Y00149856D01*
X00624044Y00135998D02*
Y00149856D01*
Y00157606D02*
Y0017105D01*
X00606264Y00135998D02*
X00624044D01*
X00606264Y0017105D02*
X00624044D01*
X00649986Y00135636D02*
Y0014908D01*
Y0015683D02*
Y00170688D01*
X00632206Y0015683D02*
Y00170688D01*
Y00135636D02*
Y0014908D01*
Y00170688D02*
X00649986D01*
X00632206Y00135636D02*
X00649986D01*
X00598424Y0015699D02*
Y00170408D01*
X0058039D02*
X00598424D01*
X0058039Y0015699D02*
Y00170408D01*
Y00135408D02*
Y0014924D01*
X00598424Y00135408D02*
Y0014924D01*
X0058039Y00135408D02*
X00598424D01*
X0057023Y00134874D02*
Y00148318D01*
Y00156068D02*
Y00169926D01*
X0055245Y00156068D02*
Y00169926D01*
Y00134874D02*
Y00148318D01*
Y00169926D02*
X0057023D01*
X0055245Y00134874D02*
X0057023D01*
X00639082Y00259588D02*
X006525D01*
Y00277622D01*
X00639082D02*
X006525D01*
X006175D02*
X00631332D01*
X006175Y00259588D02*
X00631332D01*
X006175D02*
Y00277622D01*
X00567404Y00278284D02*
X00580822D01*
X00567404Y0026025D02*
Y00278284D01*
Y0026025D02*
X00580822D01*
X00588572D02*
X00602404D01*
X00588572Y00278284D02*
X00602404D01*
Y0026025D02*
Y00278284D01*
X00449834Y0017907D02*
X00463278D01*
X00471028D02*
X00484886D01*
X00471028Y0019685D02*
X00484886D01*
X00449834D02*
X00463278D01*
X00484886Y0017907D02*
Y0019685D01*
X00449834Y0017907D02*
Y0019685D01*
X00407688Y00078486D02*
X00421132D01*
X0038608D02*
X00399938D01*
X0038608Y00060706D02*
X00399938D01*
X00407688D02*
X00421132D01*
X0038608D02*
Y00078486D01*
X00421132Y00060706D02*
Y00078486D01*
X0033728Y00079148D02*
X00350698D01*
X0033728Y00061114D02*
Y00079148D01*
Y00061114D02*
X00350698D01*
X00358448D02*
X0037228D01*
X00358448Y00079148D02*
X0037228D01*
Y00061114D02*
Y00079148D01*
X00277902Y0006223D02*
X0029132D01*
X00277902Y00044196D02*
Y0006223D01*
Y00044196D02*
X0029132D01*
X0029907D02*
X00312902D01*
X0029907Y0006223D02*
X00312902D01*
Y00044196D02*
Y0006223D01*
X00207036Y00071882D02*
X00220454D01*
X00207036Y00053848D02*
Y00071882D01*
Y00053848D02*
X00220454D01*
X00228204D02*
X00242036D01*
X00228204Y00071882D02*
X00242036D01*
Y00053848D02*
Y00071882D01*
X00306342Y0020447D02*
X00319786D01*
X00284734D02*
X00298592D01*
X00284734Y0018669D02*
X00298592D01*
X00306342D02*
X00319786D01*
X00284734D02*
Y0020447D01*
X00319786Y0018669D02*
Y0020447D01*
X00299338Y00131926D02*
X00312756D01*
Y0014996D01*
X00299338D02*
X00312756D01*
X00277756D02*
X00291588D01*
X00277756Y00131926D02*
X00291588D01*
X00277756D02*
Y0014996D01*
X00230142Y00216408D02*
X0024356D01*
Y00234442D01*
X00230142D02*
X0024356D01*
X0020856D02*
X00222392D01*
X0020856Y00216408D02*
X00222392D01*
X0020856D02*
Y00234442D01*
X00207772Y0008128D02*
X00221216D01*
X00228966D02*
X00242824D01*
X00228966Y0009906D02*
X00242824D01*
X00207772D02*
X00221216D01*
X00242824Y0008128D02*
Y0009906D01*
X00207772Y0008128D02*
Y0009906D01*
X00284252Y0025019D02*
X0029767D01*
X00284252Y00232156D02*
Y0025019D01*
Y00232156D02*
X0029767D01*
X0030542D02*
X00319252D01*
X0030542Y0025019D02*
X00319252D01*
Y00232156D02*
Y0025019D01*
X00527812Y00148862D02*
Y0016228D01*
X00509778D02*
X00527812D01*
X00509778Y00148862D02*
Y0016228D01*
Y0012728D02*
Y00141112D01*
X00527812Y0012728D02*
Y00141112D01*
X00509778Y0012728D02*
X00527812D01*
X0046482Y0011049D02*
X0047031D01*
X0046482D02*
Y0017399D01*
X004953D01*
Y0011049D02*
Y0017399D01*
X0047031Y0011049D02*
X004953D01*
X00527812Y00071882D02*
Y00085326D01*
Y00093076D02*
Y00106934D01*
X00510032Y00093076D02*
Y00106934D01*
Y00071882D02*
Y00085326D01*
Y00106934D02*
X00527812D01*
X00510032Y00071882D02*
X00527812D01*
X00471442Y0025527D02*
X00484886D01*
X00449834D02*
X00463692D01*
X00449834Y0023749D02*
X00463692D01*
X00471442D02*
X00484886D01*
X00449834D02*
Y0025527D01*
X00484886Y0023749D02*
Y0025527D01*
X00449834Y0026289D02*
X00463278D01*
X00471028D02*
X00484886D01*
X00471028Y0028067D02*
X00484886D01*
X00449834D02*
X00463278D01*
X00484886Y0026289D02*
Y0028067D01*
X00449834Y0026289D02*
Y0028067D01*
X0037592Y00236474D02*
X00389364D01*
X00397114D02*
X00410972D01*
X00397114Y00254254D02*
X00410972D01*
X0037592D02*
X00389364D01*
X00410972Y00236474D02*
Y00254254D01*
X0037592Y00236474D02*
Y00254254D01*
X00397782Y0028067D02*
X00411226D01*
X00376174D02*
X00390032D01*
X00376174Y0026289D02*
X00390032D01*
X00397782D02*
X00411226D01*
X00376174D02*
Y0028067D01*
X00411226Y0026289D02*
Y0028067D01*
X00306342D02*
X00319786D01*
X00284734D02*
X00298592D01*
X00284734Y0026289D02*
X00298592D01*
X00306342D02*
X00319786D01*
X00284734D02*
Y0028067D01*
X00319786Y0026289D02*
Y0028067D01*
X00320828Y00406654D02*
X00334246D01*
X00320828Y0038862D02*
Y00406654D01*
Y0038862D02*
X00334246D01*
X00341996D02*
X00355828D01*
X00341996Y00406654D02*
X00355828D01*
Y0038862D02*
Y00406654D01*
X00270198Y00389348D02*
X00283642D01*
X00291392D02*
X0030525D01*
X00291392Y00407128D02*
X0030525D01*
X00270198D02*
X00283642D01*
X0030525Y00389348D02*
Y00407128D01*
X00270198Y00389348D02*
Y00407128D01*
X00341902Y0033655D02*
X00355346D01*
X00320294D02*
X00334152D01*
X00320294Y0031877D02*
X00334152D01*
X00341902D02*
X00355346D01*
X00320294D02*
Y0033655D01*
X00355346Y0031877D02*
Y0033655D01*
X00269494Y00318262D02*
X00282938D01*
X00290688D02*
X00304546D01*
X00290688Y00336042D02*
X00304546D01*
X00269494D02*
X00282938D01*
X00304546Y00318262D02*
Y00336042D01*
X00269494Y00318262D02*
Y00336042D01*
X00291102Y0035814D02*
X0030452D01*
Y00376174D01*
X00291102D02*
X0030452D01*
X0026952D02*
X00283352D01*
X0026952Y0035814D02*
X00283352D01*
X0026952D02*
Y00376174D01*
X00081788Y0039067D02*
Y00404088D01*
X00063754D02*
X00081788D01*
X00063754Y0039067D02*
Y00404088D01*
Y00369088D02*
Y0038292D01*
X00081788Y00369088D02*
Y0038292D01*
X00063754Y00369088D02*
X00081788D01*
X00060706Y0039067D02*
Y00404088D01*
X00042672D02*
X00060706D01*
X00042672Y0039067D02*
Y00404088D01*
Y00369088D02*
Y0038292D01*
X00060706Y00369088D02*
Y0038292D01*
X00042672Y00369088D02*
X00060706D01*
X00499382Y00376428D02*
X005128D01*
Y00394462D01*
X00499382D02*
X005128D01*
X004778D02*
X00491632D01*
X004778Y00376428D02*
X00491632D01*
X004778D02*
Y00394462D01*
X00499382Y0042037D02*
X00512826D01*
X00477774D02*
X00491632D01*
X00477774Y0040259D02*
X00491632D01*
X00499382D02*
X00512826D01*
X00477774D02*
Y0042037D01*
X00512826Y0040259D02*
Y0042037D01*
X00499382Y0044577D02*
X00512826D01*
X00477774D02*
X00491632D01*
X00477774Y0042799D02*
X00491632D01*
X00499382D02*
X00512826D01*
X00477774D02*
Y0044577D01*
X00512826Y0042799D02*
Y0044577D01*
X00477184Y00471324D02*
X00490602D01*
X00477184Y0045329D02*
Y00471324D01*
Y0045329D02*
X00490602D01*
X00498352D02*
X00512184D01*
X00498352Y00471324D02*
X00512184D01*
Y0045329D02*
Y00471324D01*
X00446042Y00401828D02*
X0045946D01*
Y00419862D01*
X00446042D02*
X0045946D01*
X0042446D02*
X00438292D01*
X0042446Y00401828D02*
X00438292D01*
X0042446D02*
Y00419862D01*
X00424434Y0037719D02*
X00437878D01*
X00445628D02*
X00459486D01*
X00445628Y0039497D02*
X00459486D01*
X00424434D02*
X00437878D01*
X00459486Y0037719D02*
Y0039497D01*
X00424434Y0037719D02*
Y0039497D01*
Y0042799D02*
X00437878D01*
X00445628D02*
X00459486D01*
X00445628Y0044577D02*
X00459486D01*
X00424434D02*
X00437878D01*
X00459486Y0042799D02*
Y0044577D01*
X00424434Y0042799D02*
Y0044577D01*
X00423844Y00471324D02*
X00437262D01*
X00423844Y0045329D02*
Y00471324D01*
Y0045329D02*
X00437262D01*
X00445012D02*
X00458844D01*
X00445012Y00471324D02*
X00458844D01*
Y0045329D02*
Y00471324D01*
X0053975Y00338074D02*
Y00351518D01*
Y00359268D02*
Y00373126D01*
X0052197Y00359268D02*
Y00373126D01*
Y00338074D02*
Y00351518D01*
Y00373126D02*
X0053975D01*
X0052197Y00338074D02*
X0053975D01*
X0032038Y0037719D02*
X0036737D01*
X0032038Y0035941D02*
Y0037719D01*
Y0035941D02*
X0036737D01*
Y0036963D01*
Y0037719D01*
X0036229Y0035941D02*
Y0037719D01*
X00393446Y00362966D02*
X00418396D01*
X00393446Y00299466D02*
Y00362966D01*
Y00299466D02*
X00418846D01*
Y00362966D01*
X00418396D02*
X00418846D01*
X0064389Y00198374D02*
Y00211818D01*
Y00219568D02*
Y00233426D01*
X0062611Y00219568D02*
Y00233426D01*
Y00198374D02*
Y00211818D01*
Y00233426D02*
X0064389D01*
X0062611Y00198374D02*
X0064389D01*
X00734714Y00006064D02*
Y00008397D01*
Y0000723D01*
X00741712D01*
Y00006064D01*
Y00008397D01*
X00734714Y00015394D02*
Y00013062D01*
X00735881Y00011896D01*
X00740546D01*
X00741712Y00013062D01*
Y00015394D01*
X00740546Y00016561D01*
X00735881D01*
X00734714Y00015394D01*
X00735881Y00018893D02*
X00734714Y00020059D01*
Y00022392D01*
X00735881Y00023558D01*
X00740546D01*
X00741712Y00022392D01*
Y00020059D01*
X00740546Y00018893D01*
X00735881D01*
X00734714Y00030556D02*
X00735881Y00028224D01*
X00738213Y00025891D01*
X00740546D01*
X00741712Y00027057D01*
Y0002939D01*
X00740546Y00030556D01*
X00739379D01*
X00738213Y0002939D01*
Y00025891D01*
X0070779Y0000581D02*
Y00008143D01*
Y00006976D01*
X00714788D01*
Y0000581D01*
Y00008143D01*
X0070779Y0001514D02*
Y00012808D01*
X00708957Y00011641D01*
X00713622D01*
X00714788Y00012808D01*
Y0001514D01*
X00713622Y00016307D01*
X00708957D01*
X0070779Y0001514D01*
X00708957Y00018639D02*
X0070779Y00019806D01*
Y00022138D01*
X00708957Y00023304D01*
X00713622D01*
X00714788Y00022138D01*
Y00019806D01*
X00713622Y00018639D01*
X00708957D01*
X0070779Y00025637D02*
Y00030302D01*
X00708957D01*
X00713622Y00025637D01*
X00714788D01*
X00681882Y00006064D02*
Y00008397D01*
Y0000723D01*
X0068888D01*
Y00006064D01*
Y00008397D01*
X00681882Y00015394D02*
Y00013062D01*
X00683048Y00011896D01*
X00687714D01*
X0068888Y00013062D01*
Y00015394D01*
X00687714Y00016561D01*
X00683048D01*
X00681882Y00015394D01*
X0068888Y00018893D02*
Y00021226D01*
Y00020059D01*
X00681882D01*
X00683048Y00018893D01*
X00681882Y0002939D02*
Y00024725D01*
X00685381D01*
X00684215Y00027057D01*
Y00028224D01*
X00685381Y0002939D01*
X00687714D01*
X0068888Y00028224D01*
Y00025891D01*
X00687714Y00024725D01*
X00657498Y00006572D02*
Y00008905D01*
Y00007738D01*
X00664496D01*
Y00006572D01*
Y00008905D01*
X00657498Y00015902D02*
Y0001357D01*
X00658664Y00012404D01*
X0066333D01*
X00664496Y0001357D01*
Y00015902D01*
X0066333Y00017069D01*
X00658664D01*
X00657498Y00015902D01*
X00664496Y00019401D02*
Y00021734D01*
Y00020568D01*
X00657498D01*
X00658664Y00019401D01*
X00657498Y00029898D02*
X00658664Y00027565D01*
X00660997Y00025233D01*
X0066333D01*
X00664496Y00026399D01*
Y00028732D01*
X0066333Y00029898D01*
X00662163D01*
X00660997Y00028732D01*
Y00025233D01*
X0062905Y00006318D02*
Y00008651D01*
Y00007484D01*
X00636048D01*
Y00006318D01*
Y00008651D01*
X0062905Y00015648D02*
Y00013316D01*
X00630216Y00012149D01*
X00634882D01*
X00636048Y00013316D01*
Y00015648D01*
X00634882Y00016815D01*
X00630216D01*
X0062905Y00015648D01*
X00636048Y00019147D02*
Y0002148D01*
Y00020313D01*
X0062905D01*
X00630216Y00019147D01*
X0062905Y00024979D02*
Y00029644D01*
X00630216D01*
X00634882Y00024979D01*
X00636048D01*
X00768826Y0015327D02*
X00771159D01*
X00769992D01*
Y00146272D01*
X00768826D01*
X00771159D01*
X00778156Y0015327D02*
X00775824D01*
X00774658Y00152104D01*
Y00147438D01*
X00775824Y00146272D01*
X00778156D01*
X00779323Y00147438D01*
Y00152104D01*
X00778156Y0015327D01*
X00781655Y00152104D02*
X00782822Y0015327D01*
X00785154D01*
X0078632Y00152104D01*
Y00150937D01*
X00785154Y00149771D01*
X00783988D01*
X00785154D01*
X0078632Y00148605D01*
Y00147438D01*
X00785154Y00146272D01*
X00782822D01*
X00781655Y00147438D01*
X00793318Y0015327D02*
X00790985Y00152104D01*
X00788653Y00149771D01*
Y00147438D01*
X00789819Y00146272D01*
X00792152D01*
X00793318Y00147438D01*
Y00148605D01*
X00792152Y00149771D01*
X00788653D01*
X00769334Y00179178D02*
X00771667D01*
X007705D01*
Y0017218D01*
X00769334D01*
X00771667D01*
X00778664Y00179178D02*
X00776332D01*
X00775165Y00178011D01*
Y00173346D01*
X00776332Y0017218D01*
X00778664D01*
X00779831Y00173346D01*
Y00178011D01*
X00778664Y00179178D01*
X00782163Y00178011D02*
X00783329Y00179178D01*
X00785662D01*
X00786828Y00178011D01*
Y00176845D01*
X00785662Y00175679D01*
X00784496D01*
X00785662D01*
X00786828Y00174513D01*
Y00173346D01*
X00785662Y0017218D01*
X00783329D01*
X00782163Y00173346D01*
X00789161Y00179178D02*
X00793826D01*
Y00178011D01*
X00789161Y00173346D01*
Y0017218D01*
X00768826Y00204578D02*
X00771159D01*
X00769992D01*
Y0019758D01*
X00768826D01*
X00771159D01*
X00778156Y00204578D02*
X00775824D01*
X00774658Y00203412D01*
Y00198746D01*
X00775824Y0019758D01*
X00778156D01*
X00779323Y00198746D01*
Y00203412D01*
X00778156Y00204578D01*
X00785154Y0019758D02*
Y00204578D01*
X00781655Y00201079D01*
X0078632D01*
X00788653Y00203412D02*
X00789819Y00204578D01*
X00792152D01*
X00793318Y00203412D01*
Y00198746D01*
X00792152Y0019758D01*
X00789819D01*
X00788653Y00198746D01*
Y00203412D01*
X0076908Y0022947D02*
X00771413D01*
X00770246D01*
Y00222472D01*
X0076908D01*
X00771413D01*
X0077841Y0022947D02*
X00776078D01*
X00774911Y00228304D01*
Y00223638D01*
X00776078Y00222472D01*
X0077841D01*
X00779577Y00223638D01*
Y00228304D01*
X0077841Y0022947D01*
X00785408Y00222472D02*
Y0022947D01*
X00781909Y00225971D01*
X00786574D01*
X00788907Y00222472D02*
X00791239D01*
X00790073D01*
Y0022947D01*
X00788907Y00228304D01*
X00769588Y00255378D02*
X00771921D01*
X00770754D01*
Y0024838D01*
X00769588D01*
X00771921D01*
X00778918Y00255378D02*
X00776586D01*
X00775419Y00254212D01*
Y00249546D01*
X00776586Y0024838D01*
X00778918D01*
X00780085Y00249546D01*
Y00254212D01*
X00778918Y00255378D01*
X00785916Y0024838D02*
Y00255378D01*
X00782417Y00251879D01*
X00787082D01*
X0079408Y0024838D02*
X00789415D01*
X0079408Y00253045D01*
Y00254212D01*
X00792914Y00255378D01*
X00790581D01*
X00789415Y00254212D01*
X00246642Y0016198D02*
Y00171976D01*
X0025164D01*
X00253307Y0017031D01*
Y00166978D01*
X0025164Y00165312D01*
X00246642D01*
X00249974D02*
X00253307Y0016198D01*
X00256639D02*
X00259971D01*
X00258305D01*
Y00171976D01*
X00256639Y0017031D01*
X00264969Y00163646D02*
X00266636Y0016198D01*
X00269968D01*
X00271634Y00163646D01*
Y0017031D01*
X00269968Y00171976D01*
X00266636D01*
X00264969Y0017031D01*
Y00168644D01*
X00266636Y00166978D01*
X00271634D01*
X00362509Y00393782D02*
Y00403778D01*
X00367508D01*
X00369174Y00402112D01*
Y0039878D01*
X00367508Y00397114D01*
X00362509D01*
X00365842D02*
X00369174Y00393782D01*
X00372506Y00402112D02*
X00374172Y00403778D01*
X00377505D01*
X00379171Y00402112D01*
Y00400446D01*
X00377505Y0039878D01*
X00379171Y00397114D01*
Y00395448D01*
X00377505Y00393782D01*
X00374172D01*
X00372506Y00395448D01*
Y00397114D01*
X00374172Y0039878D01*
X00372506Y00400446D01*
Y00402112D01*
X00374172Y0039878D02*
X00377505D01*
X00380289Y00477438D02*
Y00467442D01*
Y0047244D01*
X00386954D01*
Y00477438D01*
Y00467442D01*
X00395285D02*
Y00477438D01*
X00390286Y0047244D01*
X00396951D01*
X00445456Y00147238D02*
Y00145572D01*
X00448788Y0014224D01*
X0045212Y00145572D01*
Y00147238D01*
X00448788Y0014224D02*
Y00137242D01*
X00455452D02*
X00458784D01*
X00457118D01*
Y00147238D01*
X00455452Y00145572D01*
X00337109Y00200578D02*
Y00192248D01*
X00338775Y00190582D01*
X00342108D01*
X00343774Y00192248D01*
Y00200578D01*
X00352104Y00190582D02*
Y00200578D01*
X00347106Y0019558D01*
X00353771D01*
X00179629Y00335198D02*
Y00326868D01*
X00181296Y00325202D01*
X00184628D01*
X00186294Y00326868D01*
Y00335198D01*
X00189626Y00333532D02*
X00191292Y00335198D01*
X00194625D01*
X00196291Y00333532D01*
Y00331866D01*
X00194625Y003302D01*
X00192958D01*
X00194625D01*
X00196291Y00328534D01*
Y00326868D01*
X00194625Y00325202D01*
X00191292D01*
X00189626Y00326868D01*
X00565201Y00249346D02*
Y00241016D01*
X00566867Y0023935D01*
X005702D01*
X00571866Y00241016D01*
Y00249346D01*
X00581863Y0023935D02*
X00575198D01*
X00581863Y00246014D01*
Y0024768D01*
X00580196Y00249346D01*
X00576864D01*
X00575198Y0024768D01*
X00777991Y00476157D02*
Y00482821D01*
X00767995D01*
Y00476157D01*
X00772993Y00482821D02*
Y00479489D01*
X00776325Y0046616D02*
X00777991Y00467826D01*
Y00471158D01*
X00776325Y00472824D01*
X00774659D01*
X00772993Y00471158D01*
Y00467826D01*
X00771327Y0046616D01*
X00769661D01*
X00767995Y00467826D01*
Y00471158D01*
X00769661Y00472824D01*
X00767995Y00462827D02*
X00777991D01*
Y00457829D01*
X00776325Y00456163D01*
X00772993D01*
X00771327Y00457829D01*
Y00462827D01*
X00776325Y00452831D02*
X00777991Y00451165D01*
Y00447832D01*
X00776325Y00446166D01*
X00774659D01*
X00772993Y00447832D01*
Y00449498D01*
Y00447832D01*
X00771327Y00446166D01*
X00769661D01*
X00767995Y00447832D01*
Y00451165D01*
X00769661Y00452831D01*
X00767995Y00436169D02*
Y00442834D01*
X00774659Y00436169D01*
X00776325D01*
X00777991Y00437835D01*
Y00441168D01*
X00776325Y00442834D01*
X00766329Y00432837D02*
Y00426173D01*
X00776325Y00416176D02*
X00777991Y00417842D01*
Y00421174D01*
X00776325Y0042284D01*
X00774659D01*
X00772993Y00421174D01*
Y00417842D01*
X00771327Y00416176D01*
X00769661D01*
X00767995Y00417842D01*
Y00421174D01*
X00769661Y0042284D01*
X00776325Y00412844D02*
X00777991Y00411177D01*
Y00407845D01*
X00776325Y00406179D01*
X00774659D01*
X00772993Y00407845D01*
Y00409511D01*
Y00407845D01*
X00771327Y00406179D01*
X00769661D01*
X00767995Y00407845D01*
Y00411177D01*
X00769661Y00412844D01*
X00426802Y00314413D02*
X00436798D01*
Y00319411D01*
X00435132Y00321077D01*
X00433466D01*
X004318Y00319411D01*
Y00314413D01*
Y00319411D01*
X00430134Y00321077D01*
X00428468D01*
X00426802Y00319411D01*
Y00314413D01*
Y00329408D02*
Y00326076D01*
X00428468Y00324409D01*
X00435132D01*
X00436798Y00326076D01*
Y00329408D01*
X00435132Y00331074D01*
X00428468D01*
X00426802Y00329408D01*
Y00339404D02*
Y00336072D01*
X00428468Y00334406D01*
X00435132D01*
X00436798Y00336072D01*
Y00339404D01*
X00435132Y00341071D01*
X00428468D01*
X00426802Y00339404D01*
Y00344403D02*
Y00351067D01*
Y00347735D01*
X00436798D01*
X00385998Y00319411D02*
X00376002D01*
Y00324409D01*
X00377668Y00326076D01*
X00381D01*
X00382666Y00324409D01*
Y00319411D01*
Y00322743D02*
X00385998Y00326076D01*
X00377668Y00336072D02*
X00376002Y00334406D01*
Y00331074D01*
X00377668Y00329408D01*
X00379334D01*
X00381Y00331074D01*
Y00334406D01*
X00382666Y00336072D01*
X00384332D01*
X00385998Y00334406D01*
Y00331074D01*
X00384332Y00329408D01*
X00376002Y00339404D02*
Y00346069D01*
Y00342737D01*
X00385998D01*
X00177571Y00057198D02*
Y00067194D01*
X00182569D01*
X00184235Y00065528D01*
Y00062196D01*
X00182569Y0006053D01*
X00177571D01*
X00180903D02*
X00184235Y00057198D01*
X00194232D02*
X00187568D01*
X00194232Y00063862D01*
Y00065528D01*
X00192566Y00067194D01*
X00189234D01*
X00187568Y00065528D01*
X00202563Y00057198D02*
Y00067194D01*
X00197565Y00062196D01*
X00204229D01*
X00350653Y00044024D02*
Y0005402D01*
X00355651D01*
X00357318Y00052354D01*
Y00049022D01*
X00355651Y00047356D01*
X00350653D01*
X00353985D02*
X00357318Y00044024D01*
X00367314D02*
X0036065D01*
X00367314Y00050688D01*
Y00052354D01*
X00365648Y0005402D01*
X00362316D01*
X0036065Y00052354D01*
X00370647D02*
X00372313Y0005402D01*
X00375645D01*
X00377311Y00052354D01*
Y00050688D01*
X00375645Y00049022D01*
X00373979D01*
X00375645D01*
X00377311Y00047356D01*
Y0004569D01*
X00375645Y00044024D01*
X00372313D01*
X00370647Y0004569D01*
X00246513Y00047834D02*
Y0005783D01*
X00251511D01*
X00253178Y00056164D01*
Y00052832D01*
X00251511Y00051166D01*
X00246513D01*
X00249845D02*
X00253178Y00047834D01*
X00263174D02*
X0025651D01*
X00263174Y00054498D01*
Y00056164D01*
X00261508Y0005783D01*
X00258176D01*
X0025651Y00056164D01*
X00273171Y00047834D02*
X00266507D01*
X00273171Y00054498D01*
Y00056164D01*
X00271505Y0005783D01*
X00268173D01*
X00266507Y00056164D01*
X00180761Y00221028D02*
Y00231024D01*
X0018576D01*
X00187426Y00229358D01*
Y00226026D01*
X0018576Y0022436D01*
X00180761D01*
X00184093D02*
X00187426Y00221028D01*
X00197422D02*
X00190758D01*
X00197422Y00227692D01*
Y00229358D01*
X00195756Y00231024D01*
X00192424D01*
X00190758Y00229358D01*
X00200755Y00221028D02*
X00204087D01*
X00202421D01*
Y00231024D01*
X00200755Y00229358D01*
X00246367Y0013658D02*
Y00146576D01*
X00251365D01*
X00253032Y0014491D01*
Y00141578D01*
X00251365Y00139912D01*
X00246367D01*
X00249699D02*
X00253032Y0013658D01*
X00263028D02*
X00256364D01*
X00263028Y00143244D01*
Y0014491D01*
X00261362Y00146576D01*
X0025803D01*
X00256364Y0014491D01*
X0026636D02*
X00268027Y00146576D01*
X00271359D01*
X00273025Y0014491D01*
Y00138246D01*
X00271359Y0013658D01*
X00268027D01*
X0026636Y00138246D01*
Y0014491D01*
X00505664Y00111842D02*
Y00121838D01*
X00510662D01*
X00512328Y00120172D01*
Y0011684D01*
X00510662Y00115174D01*
X00505664D01*
X00508996D02*
X00512328Y00111842D01*
X00515661D02*
X00518993D01*
X00517327D01*
Y00121838D01*
X00515661Y00120172D01*
X00523992D02*
X00525658Y00121838D01*
X0052899D01*
X00530656Y00120172D01*
Y00118506D01*
X0052899Y0011684D01*
X00530656Y00115174D01*
Y00113508D01*
X0052899Y00111842D01*
X00525658D01*
X00523992Y00113508D01*
Y00115174D01*
X00525658Y0011684D01*
X00523992Y00118506D01*
Y00120172D01*
X00525658Y0011684D02*
X0052899D01*
X00247746Y00074404D02*
Y000844D01*
X00252744D01*
X0025441Y00082734D01*
Y00079402D01*
X00252744Y00077736D01*
X00247746D01*
X00251078D02*
X0025441Y00074404D01*
X00257743D02*
X00261075D01*
X00259409D01*
Y000844D01*
X00257743Y00082734D01*
X00266073Y000844D02*
X00272738D01*
Y00082734D01*
X00266073Y0007607D01*
Y00074404D01*
X00248254Y00099804D02*
Y001098D01*
X00253252D01*
X00254918Y00108134D01*
Y00104802D01*
X00253252Y00103136D01*
X00248254D01*
X00251586D02*
X00254918Y00099804D01*
X00258251D02*
X00261583D01*
X00259917D01*
Y001098D01*
X00258251Y00108134D01*
X00273246Y001098D02*
X00269914Y00108134D01*
X00266581Y00104802D01*
Y0010147D01*
X00268248Y00099804D01*
X0027158D01*
X00273246Y0010147D01*
Y00103136D01*
X0027158Y00104802D01*
X00266581D01*
X00490424Y00215982D02*
Y00225978D01*
X00495422D01*
X00497089Y00224312D01*
Y0022098D01*
X00495422Y00219314D01*
X00490424D01*
X00493756D02*
X00497089Y00215982D01*
X00500421D02*
X00503753D01*
X00502087D01*
Y00225978D01*
X00500421Y00224312D01*
X00515416Y00225978D02*
X00508751D01*
Y0022098D01*
X00512084Y00222646D01*
X0051375D01*
X00515416Y0022098D01*
Y00217648D01*
X0051375Y00215982D01*
X00510418D01*
X00508751Y00217648D01*
X00416256Y00217252D02*
Y00227248D01*
X00421254D01*
X0042292Y00225582D01*
Y0022225D01*
X00421254Y00220584D01*
X00416256D01*
X00419588D02*
X0042292Y00217252D01*
X00426253D02*
X00429585D01*
X00427919D01*
Y00227248D01*
X00426253Y00225582D01*
X00439582Y00217252D02*
Y00227248D01*
X00434584Y0022225D01*
X00441248D01*
X00253696Y0023554D02*
Y00245536D01*
X00258694D01*
X00260361Y0024387D01*
Y00240538D01*
X00258694Y00238872D01*
X00253696D01*
X00257028D02*
X00260361Y0023554D01*
X00263693D02*
X00267025D01*
X00265359D01*
Y00245536D01*
X00263693Y0024387D01*
X00272024D02*
X0027369Y00245536D01*
X00277022D01*
X00278688Y0024387D01*
Y00242204D01*
X00277022Y00240538D01*
X00275356D01*
X00277022D01*
X00278688Y00238872D01*
Y00237206D01*
X00277022Y0023554D01*
X0027369D01*
X00272024Y00237206D01*
X00254204Y00213442D02*
Y00223438D01*
X00259202D01*
X00260868Y00221772D01*
Y0021844D01*
X00259202Y00216774D01*
X00254204D01*
X00257536D02*
X00260868Y00213442D01*
X00264201D02*
X00267533D01*
X00265867D01*
Y00223438D01*
X00264201Y00221772D01*
X00279196Y00213442D02*
X00272532D01*
X00279196Y00220106D01*
Y00221772D01*
X0027753Y00223438D01*
X00274198D01*
X00272532Y00221772D01*
X0039557Y00406482D02*
Y00416478D01*
X00400569D01*
X00402235Y00414812D01*
Y0041148D01*
X00400569Y00409814D01*
X0039557D01*
X00398902D02*
X00402235Y00406482D01*
X00405567D02*
X00408899D01*
X00407233D01*
Y00416478D01*
X00405567Y00414812D01*
X00413898Y00406482D02*
X0041723D01*
X00415564D01*
Y00416478D01*
X00413898Y00414812D01*
X00518364Y00381082D02*
Y00391078D01*
X00523362D01*
X00525028Y00389412D01*
Y0038608D01*
X00523362Y00384414D01*
X00518364D01*
X00521696D02*
X00525028Y00381082D01*
X00528361D02*
X00531693D01*
X00530027D01*
Y00391078D01*
X00528361Y00389412D01*
X00536692D02*
X00538358Y00391078D01*
X0054169D01*
X00543356Y00389412D01*
Y00382748D01*
X0054169Y00381082D01*
X00538358D01*
X00536692Y00382748D01*
Y00389412D01*
X00248209Y00362794D02*
Y0037279D01*
X00253208D01*
X00254874Y00371124D01*
Y00367792D01*
X00253208Y00366126D01*
X00248209D01*
X00251542D02*
X00254874Y00362794D01*
X00258206Y0036446D02*
X00259872Y00362794D01*
X00263204D01*
X00264871Y0036446D01*
Y00371124D01*
X00263204Y0037279D01*
X00259872D01*
X00258206Y00371124D01*
Y00369458D01*
X00259872Y00367792D01*
X00264871D01*
X00517449Y00457282D02*
Y00467278D01*
X00522448D01*
X00524114Y00465612D01*
Y0046228D01*
X00522448Y00460614D01*
X00517449D01*
X00520782D02*
X00524114Y00457282D01*
X00527446Y00467278D02*
X00534111D01*
Y00465612D01*
X00527446Y00458948D01*
Y00457282D01*
X00580949Y00122002D02*
Y00131998D01*
X00585948D01*
X00587614Y00130332D01*
Y00127D01*
X00585948Y00125334D01*
X00580949D01*
X00584282D02*
X00587614Y00122002D01*
X00597611Y00131998D02*
X00594278Y00130332D01*
X00590946Y00127D01*
Y00123668D01*
X00592612Y00122002D01*
X00595945D01*
X00597611Y00123668D01*
Y00125334D01*
X00595945Y00127D01*
X00590946D01*
X00043231Y00354412D02*
Y00364408D01*
X0004823D01*
X00049896Y00362742D01*
Y0035941D01*
X0004823Y00357744D01*
X00043231D01*
X00046564D02*
X00049896Y00354412D01*
X00059893Y00364408D02*
X00053228D01*
Y0035941D01*
X0005656Y00361076D01*
X00058226D01*
X00059893Y0035941D01*
Y00356078D01*
X00058226Y00354412D01*
X00054894D01*
X00053228Y00356078D01*
X00065075Y00354158D02*
Y00364154D01*
X00070074D01*
X0007174Y00362488D01*
Y00359156D01*
X00070074Y0035749D01*
X00065075D01*
X00068408D02*
X0007174Y00354158D01*
X0008007D02*
Y00364154D01*
X00075072Y00359156D01*
X00081737D01*
X00664769Y00264242D02*
Y00274238D01*
X00669768D01*
X00671434Y00272572D01*
Y0026924D01*
X00669768Y00267574D01*
X00664769D01*
X00668102D02*
X00671434Y00264242D01*
X00674766Y00272572D02*
X00676432Y00274238D01*
X00679764D01*
X00681431Y00272572D01*
Y00270906D01*
X00679764Y0026924D01*
X00678098D01*
X00679764D01*
X00681431Y00267574D01*
Y00265908D01*
X00679764Y00264242D01*
X00676432D01*
X00674766Y00265908D01*
X00546093Y00266174D02*
Y0027617D01*
X00551092D01*
X00552758Y00274504D01*
Y00271172D01*
X00551092Y00269506D01*
X00546093D01*
X00549426D02*
X00552758Y00266174D01*
X00562755D02*
X0055609D01*
X00562755Y00272838D01*
Y00274504D01*
X00561088Y0027617D01*
X00557756D01*
X0055609Y00274504D01*
X00404815Y00457282D02*
Y00467278D01*
X00409814D01*
X0041148Y00465612D01*
Y0046228D01*
X00409814Y00460614D01*
X00404815D01*
X00408148D02*
X0041148Y00457282D01*
X00414812D02*
X00418144D01*
X00416478D01*
Y00467278D01*
X00414812Y00465612D01*
X00266131Y0027754D02*
Y00267544D01*
X00272796D01*
X00276128D02*
X00279461D01*
X00277794D01*
Y0027754D01*
X00276128Y00275874D01*
X00007073Y00287102D02*
Y00297098D01*
X00012071D01*
X00013737Y00295432D01*
Y002921D01*
X00012071Y00290434D01*
X00007073D01*
X00010405D02*
X00013737Y00287102D01*
X00023734Y00297098D02*
X00020402D01*
X00022068D01*
Y00288768D01*
X00020402Y00287102D01*
X00018736D01*
X00017069Y00288768D01*
X00032064Y00287102D02*
Y00297098D01*
X00027066Y002921D01*
X00033731D01*
X00043727Y00297098D02*
X00037063D01*
Y002921D01*
X00040395Y00293766D01*
X00042061D01*
X00043727Y002921D01*
Y00288768D01*
X00042061Y00287102D01*
X00038729D01*
X00037063Y00288768D01*
X0002032Y00404794D02*
X00016988D01*
X00018654D01*
Y00396464D01*
X00016988Y00394798D01*
X00015322D01*
X00013656Y00396464D01*
X00023652Y00394798D02*
X00026985D01*
X00025318D01*
Y00404794D01*
X00023652Y00403128D01*
X00133655Y00475914D02*
Y00465918D01*
Y00470916D01*
X0014032D01*
Y00475914D01*
Y00465918D01*
X00143652Y00474248D02*
X00145318Y00475914D01*
X00148651D01*
X00150317Y00474248D01*
Y00472582D01*
X00148651Y00470916D01*
X00146984D01*
X00148651D01*
X00150317Y0046925D01*
Y00467584D01*
X00148651Y00465918D01*
X00145318D01*
X00143652Y00467584D01*
X00585267Y00095168D02*
Y00085172D01*
Y0009017D01*
X00591932D01*
Y00095168D01*
Y00085172D01*
X00601929D02*
X00595264D01*
X00601929Y00091836D01*
Y00093502D01*
X00600262Y00095168D01*
X0059693D01*
X00595264Y00093502D01*
X00681675Y00137078D02*
Y00127082D01*
Y0013208D01*
X0068834D01*
Y00137078D01*
Y00127082D01*
X00691672D02*
X00695005D01*
X00693338D01*
Y00137078D01*
X00691672Y00135412D01*
X00372136Y00373298D02*
Y00363302D01*
X00377134D01*
X003788Y00364968D01*
Y00371632D01*
X00377134Y00373298D01*
X00372136D01*
X00382132Y00363302D02*
X00385465D01*
X00383798D01*
Y00373298D01*
X00382132Y00371632D01*
X00496255Y00275112D02*
X00494589Y00276778D01*
X00491257D01*
X00489591Y00275112D01*
Y00268448D01*
X00491257Y00266782D01*
X00494589D01*
X00496255Y00268448D01*
X00506252Y00266782D02*
X00499588D01*
X00506252Y00273446D01*
Y00275112D01*
X00504586Y00276778D01*
X00501254D01*
X00499588Y00275112D01*
X00509585D02*
X00511251Y00276778D01*
X00514583D01*
X00516249Y00275112D01*
Y00273446D01*
X00514583Y0027178D01*
X00512917D01*
X00514583D01*
X00516249Y00270114D01*
Y00268448D01*
X00514583Y00266782D01*
X00511251D01*
X00509585Y00268448D01*
X00423088Y00274588D02*
X00421421Y00276254D01*
X00418089D01*
X00416423Y00274588D01*
Y00267924D01*
X00418089Y00266258D01*
X00421421D01*
X00423088Y00267924D01*
X00433084Y00266258D02*
X0042642D01*
X00433084Y00272922D01*
Y00274588D01*
X00431418Y00276254D01*
X00428086D01*
X0042642Y00274588D01*
X00443081Y00266258D02*
X00436417D01*
X00443081Y00272922D01*
Y00274588D01*
X00441415Y00276254D01*
X00438083D01*
X00436417Y00274588D01*
X00497922Y00249712D02*
X00496255Y00251378D01*
X00492923D01*
X00491257Y00249712D01*
Y00243048D01*
X00492923Y00241382D01*
X00496255D01*
X00497922Y00243048D01*
X00507918Y00241382D02*
X00501254D01*
X00507918Y00248046D01*
Y00249712D01*
X00506252Y00251378D01*
X0050292D01*
X00501254Y00249712D01*
X00511251Y00241382D02*
X00514583D01*
X00512917D01*
Y00251378D01*
X00511251Y00249712D01*
X00422341Y00248696D02*
X00420675Y00250362D01*
X00417343D01*
X00415677Y00248696D01*
Y00242032D01*
X00417343Y00240366D01*
X00420675D01*
X00422341Y00242032D01*
X00432338Y00240366D02*
X00425674D01*
X00432338Y0024703D01*
Y00248696D01*
X00430672Y00250362D01*
X0042734D01*
X00425674Y00248696D01*
X00435671D02*
X00437337Y00250362D01*
X00440669D01*
X00442335Y00248696D01*
Y00242032D01*
X00440669Y00240366D01*
X00437337D01*
X00435671Y00242032D01*
Y00248696D01*
X00260868Y00201452D02*
X00259202Y00203118D01*
X0025587D01*
X00254204Y00201452D01*
Y00194788D01*
X0025587Y00193122D01*
X00259202D01*
X00260868Y00194788D01*
X00264201Y00193122D02*
X00267533D01*
X00265867D01*
Y00203118D01*
X00264201Y00201452D01*
X00272532Y00194788D02*
X00274198Y00193122D01*
X0027753D01*
X00279196Y00194788D01*
Y00201452D01*
X0027753Y00203118D01*
X00274198D01*
X00272532Y00201452D01*
Y00199786D01*
X00274198Y0019812D01*
X00279196D01*
X00443494Y00054386D02*
X00441828Y00056052D01*
X00438496D01*
X0043683Y00054386D01*
Y00047722D01*
X00438496Y00046056D01*
X00441828D01*
X00443494Y00047722D01*
X00446827Y00046056D02*
X00450159D01*
X00448493D01*
Y00056052D01*
X00446827Y00054386D01*
X00455158D02*
X00456824Y00056052D01*
X00460156D01*
X00461822Y00054386D01*
Y0005272D01*
X00460156Y00051054D01*
X00461822Y00049388D01*
Y00047722D01*
X00460156Y00046056D01*
X00456824D01*
X00455158Y00047722D01*
Y00049388D01*
X00456824Y00051054D01*
X00455158Y0005272D01*
Y00054386D01*
X00456824Y00051054D02*
X00460156D01*
X00397012Y00053116D02*
X00395346Y00054782D01*
X00392014D01*
X00390348Y00053116D01*
Y00046452D01*
X00392014Y00044786D01*
X00395346D01*
X00397012Y00046452D01*
X00400345Y00044786D02*
X00403677D01*
X00402011D01*
Y00054782D01*
X00400345Y00053116D01*
X00408675Y00054782D02*
X0041534D01*
Y00053116D01*
X00408675Y00046452D01*
Y00044786D01*
X00497089Y00191292D02*
X00495422Y00192958D01*
X0049209D01*
X00490424Y00191292D01*
Y00184628D01*
X0049209Y00182962D01*
X00495422D01*
X00497089Y00184628D01*
X00500421Y00182962D02*
X00503753D01*
X00502087D01*
Y00192958D01*
X00500421Y00191292D01*
X00515416Y00192958D02*
X00512084Y00191292D01*
X00508751Y0018796D01*
Y00184628D01*
X00510418Y00182962D01*
X0051375D01*
X00515416Y00184628D01*
Y00186294D01*
X0051375Y0018796D01*
X00508751D01*
X00511059Y00065054D02*
X00509392Y0006672D01*
X0050606D01*
X00504394Y00065054D01*
Y0005839D01*
X0050606Y00056724D01*
X00509392D01*
X00511059Y0005839D01*
X00514391Y00056724D02*
X00517723D01*
X00516057D01*
Y0006672D01*
X00514391Y00065054D01*
X00529386Y0006672D02*
X00522721D01*
Y00061722D01*
X00526054Y00063388D01*
X0052772D01*
X00529386Y00061722D01*
Y0005839D01*
X0052772Y00056724D01*
X00524388D01*
X00522721Y0005839D01*
X00185322Y00120392D02*
X00183656Y00122058D01*
X00180324D01*
X00178658Y00120392D01*
Y00113728D01*
X00180324Y00112062D01*
X00183656D01*
X00185322Y00113728D01*
X00188655Y00112062D02*
X00191987D01*
X00190321D01*
Y00122058D01*
X00188655Y00120392D01*
X00201984Y00112062D02*
Y00122058D01*
X00196985Y0011706D01*
X0020365D01*
X0018583Y00093468D02*
X00184164Y00095134D01*
X00180832D01*
X00179166Y00093468D01*
Y00086804D01*
X00180832Y00085138D01*
X00184164D01*
X0018583Y00086804D01*
X00189163Y00085138D02*
X00192495D01*
X00190829D01*
Y00095134D01*
X00189163Y00093468D01*
X00197493D02*
X0019916Y00095134D01*
X00202492D01*
X00204158Y00093468D01*
Y00091802D01*
X00202492Y00090136D01*
X00200826D01*
X00202492D01*
X00204158Y0008847D01*
Y00086804D01*
X00202492Y00085138D01*
X0019916D01*
X00197493Y00086804D01*
X00507174Y00351604D02*
X00505508Y00349938D01*
Y00346606D01*
X00507174Y0034494D01*
X00513838D01*
X00515504Y00346606D01*
Y00349938D01*
X00513838Y00351604D01*
X00515504Y00354937D02*
Y00358269D01*
Y00356603D01*
X00505508D01*
X00507174Y00354937D01*
X00515504Y00369932D02*
Y00363267D01*
X0050884Y00369932D01*
X00507174D01*
X00505508Y00368266D01*
Y00364934D01*
X00507174Y00363267D01*
X00526695Y00414812D02*
X00525029Y00416478D01*
X00521696D01*
X0052003Y00414812D01*
Y00408148D01*
X00521696Y00406482D01*
X00525029D01*
X00526695Y00408148D01*
X00530027Y00406482D02*
X00533359D01*
X00531693D01*
Y00416478D01*
X00530027Y00414812D01*
X00538358Y00406482D02*
X0054169D01*
X00540024D01*
Y00416478D01*
X00538358Y00414812D01*
X00331988Y00351312D02*
X00330322Y00352978D01*
X0032699D01*
X00325324Y00351312D01*
Y00344648D01*
X0032699Y00342982D01*
X00330322D01*
X00331988Y00344648D01*
X00335321Y00342982D02*
X00338653D01*
X00336987D01*
Y00352978D01*
X00335321Y00351312D01*
X00343652D02*
X00345318Y00352978D01*
X0034865D01*
X00350316Y00351312D01*
Y00344648D01*
X0034865Y00342982D01*
X00345318D01*
X00343652Y00344648D01*
Y00351312D01*
X00254874Y00330484D02*
X00253208Y0033215D01*
X00249876D01*
X00248209Y00330484D01*
Y0032382D01*
X00249876Y00322154D01*
X00253208D01*
X00254874Y0032382D01*
X00258206D02*
X00259872Y00322154D01*
X00263204D01*
X00264871Y0032382D01*
Y00330484D01*
X00263204Y0033215D01*
X00259872D01*
X00258206Y00330484D01*
Y00328818D01*
X00259872Y00327152D01*
X00264871D01*
X00254874Y00401604D02*
X00253208Y0040327D01*
X00249876D01*
X00248209Y00401604D01*
Y0039494D01*
X00249876Y00393274D01*
X00253208D01*
X00254874Y0039494D01*
X00258206Y00401604D02*
X00259872Y0040327D01*
X00263204D01*
X00264871Y00401604D01*
Y00399938D01*
X00263204Y00398272D01*
X00264871Y00396606D01*
Y0039494D01*
X00263204Y00393274D01*
X00259872D01*
X00258206Y0039494D01*
Y00396606D01*
X00259872Y00398272D01*
X00258206Y00399938D01*
Y00401604D01*
X00259872Y00398272D02*
X00263204D01*
X00524114Y00440212D02*
X00522448Y00441878D01*
X00519115D01*
X00517449Y00440212D01*
Y00433548D01*
X00519115Y00431882D01*
X00522448D01*
X00524114Y00433548D01*
X00527446Y00441878D02*
X00534111D01*
Y00440212D01*
X00527446Y00433548D01*
Y00431882D01*
X00559674Y00127792D02*
X00558008Y00129458D01*
X00554675D01*
X00553009Y00127792D01*
Y00121128D01*
X00554675Y00119462D01*
X00558008D01*
X00559674Y00121128D01*
X00569671Y00129458D02*
X00566338Y00127792D01*
X00563006Y0012446D01*
Y00121128D01*
X00564672Y00119462D01*
X00568004D01*
X00569671Y00121128D01*
Y00122794D01*
X00568004Y0012446D01*
X00563006D01*
X00613742Y00128916D02*
X00612076Y00130582D01*
X00608744D01*
X00607077Y00128916D01*
Y00122252D01*
X00608744Y00120586D01*
X00612076D01*
X00613742Y00122252D01*
X00623739Y00130582D02*
X00617074D01*
Y00125584D01*
X00620406Y0012725D01*
X00622072D01*
X00623739Y00125584D01*
Y00122252D01*
X00622072Y00120586D01*
X0061874D01*
X00617074Y00122252D01*
X00633791Y00249885D02*
X00632124Y00251551D01*
X00628792D01*
X00627126Y00249885D01*
Y0024322D01*
X00628792Y00241554D01*
X00632124D01*
X00633791Y0024322D01*
X00642121Y00241554D02*
Y00251551D01*
X00637123Y00246552D01*
X00643787D01*
X0063943Y00128554D02*
X00637764Y0013022D01*
X00634431D01*
X00632765Y00128554D01*
Y0012189D01*
X00634431Y00120224D01*
X00637764D01*
X0063943Y0012189D01*
X00642762Y00128554D02*
X00644428Y0013022D01*
X0064776D01*
X00649427Y00128554D01*
Y00126888D01*
X0064776Y00125222D01*
X00646094D01*
X0064776D01*
X00649427Y00123556D01*
Y0012189D01*
X0064776Y00120224D01*
X00644428D01*
X00642762Y0012189D01*
X00409814Y00440212D02*
X00408148Y00441878D01*
X00404815D01*
X00403149Y00440212D01*
Y00433548D01*
X00404815Y00431882D01*
X00408148D01*
X00409814Y00433548D01*
X00419811Y00431882D02*
X00413146D01*
X00419811Y00438546D01*
Y00440212D01*
X00418144Y00441878D01*
X00414812D01*
X00413146Y00440212D01*
X0041148Y00389412D02*
X00409814Y00391078D01*
X00406482D01*
X00404815Y00389412D01*
Y00382748D01*
X00406482Y00381082D01*
X00409814D01*
X0041148Y00382748D01*
X00414812Y00381082D02*
X00418144D01*
X00416478D01*
Y00391078D01*
X00414812Y00389412D01*
D11*
X0013308Y0027796D02*
G03*
X0013308Y0027796I-000015J0D01*
G01*
D12*
X00293158Y00158904D02*
X0029773D01*
X00293158Y0017262D02*
X0029773D01*
X00222546Y00123918D02*
X00227118D01*
X00222546Y00110202D02*
X00227118D01*
X00293328Y00112114D02*
X002979D01*
X00293328Y00098398D02*
X002979D01*
X0029282Y00086206D02*
X00297392D01*
X0029282Y0007249D02*
X00297392D01*
X00447844Y00077436D02*
X00452416D01*
X00447844Y0006372D02*
X00452416D01*
X00391372Y00225906D02*
X00395944D01*
X00391372Y0021219D02*
X00395944D01*
X00299932Y00225906D02*
X00304504D01*
X00299932Y0021219D02*
X00304504D01*
X00465032Y00225906D02*
X00469604D01*
X00465032Y0021219D02*
X00469604D01*
X0060833Y0015128D02*
Y00155852D01*
X00622046Y0015128D02*
Y00155852D01*
X0064792Y00150834D02*
Y00155406D01*
X00634204Y00150834D02*
Y00155406D01*
X00596238Y00150664D02*
Y00155236D01*
X00582522Y00150664D02*
Y00155236D01*
X00568164Y00150072D02*
Y00154644D01*
X00554448Y00150072D02*
Y00154644D01*
X00632756Y00261774D02*
X00637328D01*
X00632756Y0027549D02*
X00637328D01*
X00582576Y00276098D02*
X00587148D01*
X00582576Y00262382D02*
X00587148D01*
X00465032Y00181136D02*
X00469604D01*
X00465032Y00194852D02*
X00469604D01*
X00401362Y0007642D02*
X00405934D01*
X00401362Y00062704D02*
X00405934D01*
X00352452Y00076962D02*
X00357024D01*
X00352452Y00063246D02*
X00357024D01*
X00293074Y00060044D02*
X00297646D01*
X00293074Y00046328D02*
X00297646D01*
X00222208Y00069696D02*
X0022678D01*
X00222208Y0005598D02*
X0022678D01*
X00300016Y00202404D02*
X00304588D01*
X00300016Y00188688D02*
X00304588D01*
X00293012Y00134112D02*
X00297584D01*
X00293012Y00147828D02*
X00297584D01*
X00223816Y00218594D02*
X00228388D01*
X00223816Y0023231D02*
X00228388D01*
X0022297Y00083346D02*
X00227542D01*
X0022297Y00097062D02*
X00227542D01*
X00299424Y00248004D02*
X00303996D01*
X00299424Y00234288D02*
X00303996D01*
X00525626Y00142536D02*
Y00147108D01*
X0051191Y00142536D02*
Y00147108D01*
X00525746Y0008708D02*
Y00091652D01*
X0051203Y0008708D02*
Y00091652D01*
X00465116Y00253204D02*
X00469688D01*
X00465116Y00239488D02*
X00469688D01*
X00465032Y00264956D02*
X00469604D01*
X00465032Y00278672D02*
X00469604D01*
X00391118Y0023854D02*
X0039569D01*
X00391118Y00252256D02*
X0039569D01*
X00391456Y00278604D02*
X00396028D01*
X00391456Y00264888D02*
X00396028D01*
X00300016Y00278604D02*
X00304588D01*
X00300016Y00264888D02*
X00304588D01*
X00336Y00404468D02*
X00340572D01*
X00336Y00390752D02*
X00340572D01*
X00285396Y00391414D02*
X00289968D01*
X00285396Y0040513D02*
X00289968D01*
X00335576Y00334484D02*
X00340148D01*
X00335576Y00320768D02*
X00340148D01*
X00284692Y00320328D02*
X00289264D01*
X00284692Y00334044D02*
X00289264D01*
X00284776Y00360326D02*
X00289348D01*
X00284776Y00374042D02*
X00289348D01*
X00079602Y00384344D02*
Y00388916D01*
X00065886Y00384344D02*
Y00388916D01*
X0005852Y00384344D02*
Y00388916D01*
X00044804Y00384344D02*
Y00388916D01*
X00493056Y00378614D02*
X00497628D01*
X00493056Y0039233D02*
X00497628D01*
X00493056Y00418304D02*
X00497628D01*
X00493056Y00404588D02*
X00497628D01*
X00493056Y00443704D02*
X00497628D01*
X00493056Y00429988D02*
X00497628D01*
X00492356Y00469138D02*
X00496928D01*
X00492356Y00455422D02*
X00496928D01*
X00439716Y00404014D02*
X00444288D01*
X00439716Y0041773D02*
X00444288D01*
X00439632Y00379256D02*
X00444204D01*
X00439632Y00392972D02*
X00444204D01*
X00439632Y00430056D02*
X00444204D01*
X00439632Y00443772D02*
X00444204D01*
X00439016Y00469138D02*
X00443588D01*
X00439016Y00455422D02*
X00443588D01*
X00537684Y00353272D02*
Y00357844D01*
X00523968Y00353272D02*
Y00357844D01*
X00641824Y00213572D02*
Y00218144D01*
X00628108Y00213572D02*
Y00218144D01*
D13*
X0035312Y0017444D02*
Y0017774D01*
X0035642D01*
X0042082D02*
X0042412D01*
Y0017444D02*
Y0017774D01*
Y0010674D02*
Y0011004D01*
X0042082Y0010674D02*
X0042412D01*
X0035312D02*
X0035642D01*
X0035312D02*
Y0011004D01*
X0055656Y0055115D02*
X0073656D01*
Y0048395D02*
Y0055115D01*
X0055656Y0048395D02*
Y0055115D01*
Y0029615D02*
Y0030345D01*
Y0029615D02*
X0056901D01*
X0073656D02*
Y0030345D01*
X0072411Y0029615D02*
X0073656D01*
X00167582Y00342066D02*
Y00358066D01*
Y00394366D02*
Y00409266D01*
X00204782Y00406766D02*
Y00409266D01*
Y00342066D02*
Y00344666D01*
X00167582Y00409266D02*
X00204782D01*
X00167582Y00342066D02*
X00204782D01*
X0017338Y0010796D02*
Y0026796D01*
X-0004062Y0010796D02*
Y0026796D01*
Y0010796D02*
X0008358D01*
X0011458D02*
X0017338D01*
X-0004062Y0026796D02*
X0008358D01*
X0011458D02*
X0017338D01*
X0057182Y0022533D02*
Y0022828D01*
X0057477D01*
X0057182Y0018828D02*
X0057477D01*
X0057182D02*
Y0019123D01*
X0061182Y0018828D02*
Y0019123D01*
X0060887Y0018828D02*
X0061182D01*
X0060887Y0022828D02*
X0061182D01*
Y0022533D02*
Y0022828D01*
X00018038Y00439352D02*
Y00454352D01*
X00107438Y00439352D02*
Y00454352D01*
X00018038Y00492852D02*
X00107438D01*
X00018038Y00479352D02*
Y00492852D01*
X00107438Y00479352D02*
Y00492852D01*
D14*
X00609438Y0003709D02*
Y0009429D01*
X00760638D01*
Y0003709D02*
Y0009429D01*
X00609438Y0003709D02*
X00760638D01*
X0070454Y0012506D02*
X0076174D01*
X0070454D02*
Y0027626D01*
X0076174D01*
Y0012506D02*
Y0027626D01*
X0027238Y0047472D02*
X0037278D01*
X0027238Y0041752D02*
Y0047472D01*
Y0041752D02*
X0037278D01*
Y0047472D01*
X00159858Y00474974D02*
X00260258D01*
X00159858Y00417774D02*
Y00474974D01*
Y00417774D02*
X00260258D01*
Y00474974D01*
M02*
