M48
;Layer_Color=9474304
;FILE_FORMAT=2:4
INCH,LZ
;TYPE=PLATED
T01F00S00C0.0079
T02F00S00C0.0118
T03F00S00C0.0197
T05F00S00C0.0315
T06F00S00C0.0350
T07F00S00C0.0402
T08F00S00C0.0642
;TYPE=NON_PLATED
T09F00S00C0.0276
T10F00S00C0.1280
%
T01
X034589Y045959
X034313Y046235
X034589Y046511
X034313Y046786
X035416
Y046235
X034865
X03514Y046511
Y045959
Y047062
X034589
T02
X0319Y0312
X0326
X0312
X0305
X0298
X0291
X0156Y0314
Y032
X0149
Y0314
X0138
Y032
Y0326
X0131
Y032
Y0314
X0124
Y032
Y0326
X0117
Y032
Y0314
X011
Y032
Y0326
X0103
Y032
Y0314
Y0437
Y0443
X011
Y0437
X0117
Y0443
X0124
Y0437
X0131
Y0443
X0138
Y0437
X0177Y0397
X02281Y03778
X02428Y03674
X026Y0368
Y0372
X0263Y0374
X0262Y0365
X027693Y037483
X0266Y03883
X029696Y039424
X030899Y043801
X0312Y0319
X0305
X0298
X0291
X023592Y032792
X022586Y033924
X02205Y03554
X02159Y03565
X0184Y032
Y0314
X0177
Y032
X017
Y0314
X0163
Y032
X0319Y0319
X0326
X03329Y04357
X03328Y04403
X03391Y04329
X03279Y04505
X03282Y04555
X03279Y04605
X0328Y04655
X03831Y04605
X03965Y04655
X03994Y04452
X03792Y04403
X03731Y04465
X0359Y04166
X03561Y04192
X03829Y04702
X03278Y04705
X0313Y048
X028364Y046976
X0252Y047
T03
X02034Y04148
X0201Y043
X02425Y04097
X0332Y0358
T05
X03497Y03315
X03597
X03697
X03797
X03897
X0391Y0367
Y0377
Y0387
Y0397
Y0407
X0237Y0486
X0227
X0217
X01927Y04861
X01827
X01727
T06
X0152Y036952
Y037952
Y038952
Y039952
X0162Y039452
Y038452
Y037452
Y036452
T07
X010771Y035592
Y036592
Y039808
Y040808
T08
X013901Y035151
Y041249
T09
X011332Y047743
X013608
T10
X0127Y03595
Y04045
M30
